<svg width="298" height="44" viewBox="0 0 298 44" fill="none" xmlns="http://www.w3.org/2000/svg">
<g filter="url(#filter0_d_174_545)">
<path d="M2.41432 32V12.4H11.9903C14.4543 12.4 16.3023 12.8667 17.5343 13.8C18.785 14.7333 19.4103 15.9653 19.4103 17.496C19.4103 18.5227 19.1583 19.4187 18.6543 20.184C18.1503 20.9307 17.4597 21.5093 16.5823 21.92C15.705 22.3307 14.697 22.536 13.5583 22.536L14.0903 21.388C15.3223 21.388 16.4143 21.5933 17.3663 22.004C18.3183 22.396 19.0557 22.984 19.5783 23.768C20.1197 24.552 20.3903 25.5133 20.3903 26.652C20.3903 28.332 19.7277 29.648 18.4023 30.6C17.077 31.5333 15.1263 32 12.5503 32H2.41432ZM6.92232 28.584H12.2143C13.3903 28.584 14.277 28.3973 14.8743 28.024C15.4903 27.632 15.7983 27.016 15.7983 26.176C15.7983 25.3547 15.4903 24.748 14.8743 24.356C14.277 23.9453 13.3903 23.74 12.2143 23.74H6.58632V20.436H11.4303C12.5317 20.436 13.3717 20.2493 13.9503 19.876C14.5477 19.484 14.8463 18.896 14.8463 18.112C14.8463 17.3467 14.5477 16.7773 13.9503 16.404C13.3717 16.012 12.5317 15.816 11.4303 15.816H6.92232V28.584ZM27.1565 32V16.936H31.3285V21.192L30.7405 19.96C31.1885 18.896 31.9071 18.0933 32.8965 17.552C33.8858 16.992 35.0898 16.712 36.5085 16.712V20.744C36.3218 20.7253 36.1538 20.716 36.0045 20.716C35.8551 20.6973 35.6965 20.688 35.5285 20.688C34.3338 20.688 33.3631 21.0333 32.6165 21.724C31.8885 22.396 31.5245 23.4507 31.5245 24.888V32H27.1565ZM51.0013 32V29.06L50.7213 28.416V23.152C50.7213 22.2187 50.432 21.4907 49.8533 20.968C49.2933 20.4453 48.4253 20.184 47.2493 20.184C46.4466 20.184 45.6533 20.3147 44.8693 20.576C44.104 20.8187 43.4506 21.1547 42.9093 21.584L41.3413 18.532C42.1626 17.9533 43.152 17.5053 44.3093 17.188C45.4666 16.8707 46.6426 16.712 47.8373 16.712C50.1333 16.712 51.916 17.2533 53.1853 18.336C54.4546 19.4187 55.0893 21.108 55.0893 23.404V32H51.0013ZM46.4093 32.224C45.2333 32.224 44.2253 32.028 43.3853 31.636C42.5453 31.2253 41.9013 30.6747 41.4533 29.984C41.0053 29.2933 40.7813 28.5187 40.7813 27.66C40.7813 26.764 40.996 25.98 41.4253 25.308C41.8733 24.636 42.5733 24.1133 43.5253 23.74C44.4773 23.348 45.7186 23.152 47.2493 23.152H51.2533V25.7H47.7253C46.6986 25.7 45.9893 25.868 45.5973 26.204C45.224 26.54 45.0373 26.96 45.0373 27.464C45.0373 28.024 45.252 28.472 45.6813 28.808C46.1293 29.1253 46.736 29.284 47.5013 29.284C48.2293 29.284 48.8826 29.116 49.4613 28.78C50.04 28.4253 50.46 27.912 50.7213 27.24L51.3933 29.256C51.076 30.2267 50.4973 30.964 49.6573 31.468C48.8173 31.972 47.7346 32.224 46.4093 32.224ZM71.8386 16.712C73.0332 16.712 74.0972 16.9547 75.0306 17.44C75.9826 17.9067 76.7292 18.6347 77.2706 19.624C77.8119 20.5947 78.0826 21.8453 78.0826 23.376V32H73.7146V24.048C73.7146 22.8347 73.4439 21.9387 72.9026 21.36C72.3799 20.7813 71.6332 20.492 70.6626 20.492C69.9719 20.492 69.3466 20.6413 68.7866 20.94C68.2452 21.22 67.8159 21.6587 67.4986 22.256C67.1999 22.8533 67.0506 23.6187 67.0506 24.552V32H62.6826V16.936H66.8546V21.108L66.0706 19.848C66.6119 18.84 67.3866 18.0653 68.3946 17.524C69.4026 16.9827 70.5506 16.712 71.8386 16.712ZM92.2593 32.224C90.8406 32.224 89.562 31.9067 88.4233 31.272C87.2846 30.6187 86.3793 29.7133 85.7073 28.556C85.054 27.3987 84.7273 26.036 84.7273 24.468C84.7273 22.8813 85.054 21.5093 85.7073 20.352C86.3793 19.1947 87.2846 18.2987 88.4233 17.664C89.562 17.0293 90.8406 16.712 92.2593 16.712C93.5286 16.712 94.6393 16.992 95.5913 17.552C96.5433 18.112 97.2806 18.9613 97.8033 20.1C98.326 21.2387 98.5873 22.6947 98.5873 24.468C98.5873 26.2227 98.3353 27.6787 97.8313 28.836C97.3273 29.9747 96.5993 30.824 95.6473 31.384C94.714 31.944 93.5846 32.224 92.2593 32.224ZM93.0153 28.64C93.7246 28.64 94.3686 28.472 94.9473 28.136C95.526 27.8 95.9833 27.324 96.3193 26.708C96.674 26.0733 96.8513 25.3267 96.8513 24.468C96.8513 23.5907 96.674 22.844 96.3193 22.228C95.9833 21.612 95.526 21.136 94.9473 20.8C94.3686 20.464 93.7246 20.296 93.0153 20.296C92.2873 20.296 91.634 20.464 91.0553 20.8C90.4766 21.136 90.01 21.612 89.6553 22.228C89.3193 22.844 89.1513 23.5907 89.1513 24.468C89.1513 25.3267 89.3193 26.0733 89.6553 26.708C90.01 27.324 90.4766 27.8 91.0553 28.136C91.634 28.472 92.2873 28.64 93.0153 28.64ZM96.9633 32V28.92L97.0473 24.44L96.7673 19.988V11.224H101.135V32H96.9633ZM113.886 32.224C112.598 32.224 111.357 32.0747 110.162 31.776C108.986 31.4587 108.053 31.0667 107.362 30.6L108.818 27.464C109.509 27.8933 110.321 28.248 111.254 28.528C112.206 28.7893 113.139 28.92 114.054 28.92C115.062 28.92 115.771 28.7987 116.182 28.556C116.611 28.3133 116.826 27.9773 116.826 27.548C116.826 27.1933 116.658 26.932 116.322 26.764C116.005 26.5773 115.575 26.4373 115.034 26.344C114.493 26.2507 113.895 26.1573 113.242 26.064C112.607 25.9707 111.963 25.8493 111.31 25.7C110.657 25.532 110.059 25.2893 109.518 24.972C108.977 24.6547 108.538 24.2253 108.202 23.684C107.885 23.1427 107.726 22.4427 107.726 21.584C107.726 20.632 107.997 19.792 108.538 19.064C109.098 18.336 109.901 17.7667 110.946 17.356C111.991 16.9267 113.242 16.712 114.698 16.712C115.725 16.712 116.77 16.824 117.834 17.048C118.898 17.272 119.785 17.5987 120.494 18.028L119.038 21.136C118.31 20.7067 117.573 20.4173 116.826 20.268C116.098 20.1 115.389 20.016 114.698 20.016C113.727 20.016 113.018 20.1467 112.57 20.408C112.122 20.6693 111.898 21.0053 111.898 21.416C111.898 21.7893 112.057 22.0693 112.374 22.256C112.71 22.4427 113.149 22.592 113.69 22.704C114.231 22.816 114.819 22.9187 115.454 23.012C116.107 23.0867 116.761 23.208 117.414 23.376C118.067 23.544 118.655 23.7867 119.178 24.104C119.719 24.4027 120.158 24.8227 120.494 25.364C120.83 25.8867 120.998 26.5773 120.998 27.436C120.998 28.3693 120.718 29.2 120.158 29.928C119.598 30.6373 118.786 31.1973 117.722 31.608C116.677 32.0187 115.398 32.224 113.886 32.224ZM143.915 32L137.503 12.4H142.207L147.779 29.76H145.427L151.251 12.4H155.451L161.051 29.76H158.783L164.495 12.4H168.835L162.423 32H157.551L152.595 16.768H153.883L148.787 32H143.915ZM181.054 32.224C179.337 32.224 177.825 31.888 176.518 31.216C175.23 30.544 174.231 29.6293 173.522 28.472C172.813 27.296 172.458 25.9613 172.458 24.468C172.458 22.956 172.803 21.6213 173.494 20.464C174.203 19.288 175.165 18.3733 176.378 17.72C177.591 17.048 178.963 16.712 180.494 16.712C181.969 16.712 183.294 17.0293 184.47 17.664C185.665 18.28 186.607 19.176 187.298 20.352C187.989 21.5093 188.334 22.9 188.334 24.524C188.334 24.692 188.325 24.888 188.306 25.112C188.287 25.3173 188.269 25.5133 188.25 25.7H176.014V23.152H185.954L184.274 23.908C184.274 23.124 184.115 22.4427 183.798 21.864C183.481 21.2853 183.042 20.8373 182.482 20.52C181.922 20.184 181.269 20.016 180.522 20.016C179.775 20.016 179.113 20.184 178.534 20.52C177.974 20.8373 177.535 21.2947 177.218 21.892C176.901 22.4707 176.742 23.1613 176.742 23.964V24.636C176.742 25.4573 176.919 26.1853 177.274 26.82C177.647 27.436 178.161 27.912 178.814 28.248C179.486 28.5653 180.27 28.724 181.166 28.724C181.969 28.724 182.669 28.6027 183.266 28.36C183.882 28.1173 184.442 27.7533 184.946 27.268L187.27 29.788C186.579 30.572 185.711 31.1787 184.666 31.608C183.621 32.0187 182.417 32.224 181.054 32.224ZM216.14 32.336C214.628 32.336 213.218 32.0933 211.912 31.608C210.624 31.104 209.504 30.3947 208.552 29.48C207.6 28.5653 206.853 27.492 206.312 26.26C205.789 25.028 205.528 23.6747 205.528 22.2C205.528 20.7253 205.789 19.372 206.312 18.14C206.853 16.908 207.6 15.8347 208.552 14.92C209.522 14.0053 210.652 13.3053 211.94 12.82C213.228 12.316 214.637 12.064 216.168 12.064C217.866 12.064 219.397 12.3627 220.76 12.96C222.141 13.5387 223.298 14.3973 224.232 15.536L221.32 18.224C220.648 17.4587 219.901 16.8893 219.08 16.516C218.258 16.124 217.362 15.928 216.392 15.928C215.477 15.928 214.637 16.0773 213.872 16.376C213.106 16.6747 212.444 17.104 211.884 17.664C211.324 18.224 210.885 18.8867 210.568 19.652C210.269 20.4173 210.12 21.2667 210.12 22.2C210.12 23.1333 210.269 23.9827 210.568 24.748C210.885 25.5133 211.324 26.176 211.884 26.736C212.444 27.296 213.106 27.7253 213.872 28.024C214.637 28.3227 215.477 28.472 216.392 28.472C217.362 28.472 218.258 28.2853 219.08 27.912C219.901 27.52 220.648 26.932 221.32 26.148L224.232 28.836C223.298 29.9747 222.141 30.8427 220.76 31.44C219.397 32.0373 217.857 32.336 216.14 32.336ZM239.785 32V29.06L239.505 28.416V23.152C239.505 22.2187 239.215 21.4907 238.637 20.968C238.077 20.4453 237.209 20.184 236.033 20.184C235.23 20.184 234.437 20.3147 233.653 20.576C232.887 20.8187 232.234 21.1547 231.693 21.584L230.125 18.532C230.946 17.9533 231.935 17.5053 233.093 17.188C234.25 16.8707 235.426 16.712 236.621 16.712C238.917 16.712 240.699 17.2533 241.969 18.336C243.238 19.4187 243.873 21.108 243.873 23.404V32H239.785ZM235.193 32.224C234.017 32.224 233.009 32.028 232.169 31.636C231.329 31.2253 230.685 30.6747 230.237 29.984C229.789 29.2933 229.565 28.5187 229.565 27.66C229.565 26.764 229.779 25.98 230.209 25.308C230.657 24.636 231.357 24.1133 232.309 23.74C233.261 23.348 234.502 23.152 236.033 23.152H240.037V25.7H236.509C235.482 25.7 234.773 25.868 234.381 26.204C234.007 26.54 233.821 26.96 233.821 27.464C233.821 28.024 234.035 28.472 234.465 28.808C234.913 29.1253 235.519 29.284 236.285 29.284C237.013 29.284 237.666 29.116 238.245 28.78C238.823 28.4253 239.243 27.912 239.505 27.24L240.177 29.256C239.859 30.2267 239.281 30.964 238.441 31.468C237.601 31.972 236.518 32.224 235.193 32.224ZM251.466 32V16.936H255.638V21.192L255.05 19.96C255.498 18.896 256.217 18.0933 257.206 17.552C258.195 16.992 259.399 16.712 260.818 16.712V20.744C260.631 20.7253 260.463 20.716 260.314 20.716C260.165 20.6973 260.006 20.688 259.838 20.688C258.643 20.688 257.673 21.0333 256.926 21.724C256.198 22.396 255.834 23.4507 255.834 24.888V32H251.466ZM267.083 32V16.936H271.255V21.192L270.667 19.96C271.115 18.896 271.833 18.0933 272.823 17.552C273.812 16.992 275.016 16.712 276.435 16.712V20.744C276.248 20.7253 276.08 20.716 275.931 20.716C275.781 20.6973 275.623 20.688 275.455 20.688C274.26 20.688 273.289 21.0333 272.543 21.724C271.815 22.396 271.451 23.4507 271.451 24.888V32H267.083ZM285.095 37.656C284.311 37.656 283.537 37.5347 282.771 37.292C282.006 37.0493 281.381 36.7133 280.895 36.284L282.491 33.176C282.827 33.4747 283.21 33.708 283.639 33.876C284.087 34.044 284.526 34.128 284.955 34.128C285.571 34.128 286.057 33.9787 286.411 33.68C286.785 33.4 287.121 32.924 287.419 32.252L288.203 30.404L288.539 29.928L293.943 16.936H298.143L291.339 32.924C290.854 34.1373 290.294 35.0893 289.659 35.78C289.043 36.4707 288.353 36.956 287.587 37.236C286.841 37.516 286.01 37.656 285.095 37.656ZM287.671 32.588L280.951 16.936H285.459L290.667 29.536L287.671 32.588Z" fill="black"/>
</g>
<defs>
<filter id="filter0_d_174_545" x="-2.38569" y="6.42388" width="305.329" height="36.0321" filterUnits="userSpaceOnUse" color-interpolation-filters="sRGB">
<feFlood flood-opacity="0" result="BackgroundImageFix"/>
<feColorMatrix in="SourceAlpha" type="matrix" values="0 0 0 0 0 0 0 0 0 0 0 0 0 0 0 0 0 0 127 0" result="hardAlpha"/>
<feOffset/>
<feGaussianBlur stdDeviation="2.4"/>
<feComposite in2="hardAlpha" operator="out"/>
<feColorMatrix type="matrix" values="0 0 0 0 0 0 0 0 0 0 0 0 0 0 0 0 0 0 0.12 0"/>
<feBlend mode="normal" in2="BackgroundImageFix" result="effect1_dropShadow_174_545"/>
<feBlend mode="normal" in="SourceGraphic" in2="effect1_dropShadow_174_545" result="shape"/>
</filter>
</defs>
</svg>
