<svg width="534" height="59" viewBox="0 0 534 59" fill="none" xmlns="http://www.w3.org/2000/svg">
<path d="M9.196 20.132C8.03733 20.132 6.96667 19.9413 5.984 19.56C5.00133 19.164 4.15067 18.614 3.432 17.91C2.71333 17.206 2.14867 16.3773 1.738 15.424C1.342 14.4707 1.144 13.4293 1.144 12.3C1.144 11.1707 1.342 10.1293 1.738 9.176C2.14867 8.22267 2.71333 7.394 3.432 6.69C4.16533 5.986 5.02333 5.44333 6.006 5.062C6.98867 4.666 8.05933 4.468 9.218 4.468C10.3327 4.468 11.3813 4.65867 12.364 5.04C13.3467 5.40667 14.1753 5.964 14.85 6.712L13.816 7.746C13.1853 7.10067 12.4887 6.63867 11.726 6.36C10.9633 6.06667 10.142 5.92 9.262 5.92C8.338 5.92 7.48 6.08133 6.688 6.404C5.896 6.712 5.20667 7.15933 4.62 7.746C4.03333 8.318 3.57133 8.99267 3.234 9.77C2.91133 10.5327 2.75 11.376 2.75 12.3C2.75 13.224 2.91133 14.0747 3.234 14.852C3.57133 15.6147 4.03333 16.2893 4.62 16.876C5.20667 17.448 5.896 17.8953 6.688 18.218C7.48 18.526 8.338 18.68 9.262 18.68C10.142 18.68 10.9633 18.5333 11.726 18.24C12.4887 17.9467 13.1853 17.4773 13.816 16.832L14.85 17.866C14.1753 18.614 13.3467 19.1787 12.364 19.56C11.3813 19.9413 10.3253 20.132 9.196 20.132ZM22.1829 20.11C21.0682 20.11 20.0635 19.8607 19.1689 19.362C18.2889 18.8487 17.5922 18.152 17.0789 17.272C16.5655 16.3773 16.3089 15.358 16.3089 14.214C16.3089 13.0553 16.5655 12.036 17.0789 11.156C17.5922 10.276 18.2889 9.58667 19.1689 9.088C20.0489 8.58933 21.0535 8.34 22.1829 8.34C23.3269 8.34 24.3389 8.58933 25.2189 9.088C26.1135 9.58667 26.8102 10.276 27.3089 11.156C27.8222 12.036 28.0789 13.0553 28.0789 14.214C28.0789 15.358 27.8222 16.3773 27.3089 17.272C26.8102 18.152 26.1135 18.8487 25.2189 19.362C24.3242 19.8607 23.3122 20.11 22.1829 20.11ZM22.1829 18.724C23.0189 18.724 23.7595 18.5407 24.4049 18.174C25.0502 17.7927 25.5562 17.2647 25.9229 16.59C26.3042 15.9007 26.4949 15.1087 26.4949 14.214C26.4949 13.3047 26.3042 12.5127 25.9229 11.838C25.5562 11.1633 25.0502 10.6427 24.4049 10.276C23.7595 9.89467 23.0262 9.704 22.2049 9.704C21.3835 9.704 20.6502 9.89467 20.0049 10.276C19.3595 10.6427 18.8462 11.1633 18.4649 11.838C18.0835 12.5127 17.8929 13.3047 17.8929 14.214C17.8929 15.1087 18.0835 15.9007 18.4649 16.59C18.8462 17.2647 19.3595 17.7927 20.0049 18.174C20.6502 18.5407 21.3762 18.724 22.1829 18.724ZM37.1638 8.34C38.1025 8.34 38.9238 8.52333 39.6278 8.89C40.3465 9.242 40.9038 9.78467 41.2998 10.518C41.7105 11.2513 41.9158 12.1753 41.9158 13.29V20H40.3538V13.444C40.3538 12.2267 40.0458 11.31 39.4298 10.694C38.8285 10.0633 37.9778 9.748 36.8778 9.748C36.0565 9.748 35.3378 9.91667 34.7218 10.254C34.1205 10.5767 33.6512 11.0533 33.3138 11.684C32.9912 12.3 32.8298 13.048 32.8298 13.928V20H31.2678V8.45H32.7638V11.618L32.5218 11.024C32.8885 10.188 33.4752 9.53533 34.2818 9.066C35.0885 8.582 36.0492 8.34 37.1638 8.34ZM49.787 20.11C48.7017 20.11 47.8657 19.8167 47.279 19.23C46.6924 18.6433 46.399 17.8147 46.399 16.744V5.898H47.961V16.656C47.961 17.3307 48.1297 17.8513 48.467 18.218C48.819 18.5847 49.3177 18.768 49.963 18.768C50.6524 18.768 51.2244 18.57 51.679 18.174L52.229 19.296C51.921 19.5747 51.547 19.78 51.107 19.912C50.6817 20.044 50.2417 20.11 49.787 20.11ZM44.331 9.748V8.45H51.481V9.748H44.331ZM62.3105 20V17.448L62.2445 17.03V12.762C62.2445 11.7793 61.9659 11.024 61.4085 10.496C60.8659 9.968 60.0519 9.704 58.9665 9.704C58.2185 9.704 57.5072 9.82867 56.8325 10.078C56.1579 10.3273 55.5859 10.6573 55.1165 11.068L54.4125 9.902C54.9992 9.40333 55.7032 9.022 56.5245 8.758C57.3459 8.47933 58.2112 8.34 59.1205 8.34C60.6165 8.34 61.7679 8.714 62.5745 9.462C63.3959 10.1953 63.8065 11.3173 63.8065 12.828V20H62.3105ZM58.3285 20.11C57.4632 20.11 56.7079 19.9707 56.0625 19.692C55.4319 19.3987 54.9479 19.0027 54.6105 18.504C54.2732 17.9907 54.1045 17.404 54.1045 16.744C54.1045 16.1427 54.2439 15.6 54.5225 15.116C54.8159 14.6173 55.2852 14.2213 55.9305 13.928C56.5905 13.62 57.4705 13.466 58.5705 13.466H62.5525V14.632H58.6145C57.4999 14.632 56.7225 14.83 56.2825 15.226C55.8572 15.622 55.6445 16.1133 55.6445 16.7C55.6445 17.36 55.9012 17.888 56.4145 18.284C56.9279 18.68 57.6465 18.878 58.5705 18.878C59.4505 18.878 60.2059 18.68 60.8365 18.284C61.4819 17.8733 61.9512 17.2867 62.2445 16.524L62.5965 17.602C62.3032 18.3647 61.7899 18.9733 61.0565 19.428C60.3379 19.8827 59.4285 20.11 58.3285 20.11ZM72.8451 20.11C71.7011 20.11 70.6744 19.8607 69.7651 19.362C68.8704 18.8487 68.1664 18.152 67.6531 17.272C67.1398 16.3773 66.8831 15.358 66.8831 14.214C66.8831 13.0553 67.1398 12.036 67.6531 11.156C68.1664 10.276 68.8704 9.58667 69.7651 9.088C70.6744 8.58933 71.7011 8.34 72.8451 8.34C73.8278 8.34 74.7151 8.53067 75.5071 8.912C76.2991 9.29333 76.9224 9.86533 77.3771 10.628L76.2111 11.42C75.8151 10.8333 75.3238 10.4007 74.7371 10.122C74.1504 9.84333 73.5124 9.704 72.8231 9.704C72.0018 9.704 71.2611 9.89467 70.6011 10.276C69.9411 10.6427 69.4204 11.1633 69.0391 11.838C68.6578 12.5127 68.4671 13.3047 68.4671 14.214C68.4671 15.1233 68.6578 15.9153 69.0391 16.59C69.4204 17.2647 69.9411 17.7927 70.6011 18.174C71.2611 18.5407 72.0018 18.724 72.8231 18.724C73.5124 18.724 74.1504 18.5847 74.7371 18.306C75.3238 18.0273 75.8151 17.602 76.2111 17.03L77.3771 17.822C76.9224 18.57 76.2991 19.142 75.5071 19.538C74.7151 19.9193 73.8278 20.11 72.8451 20.11ZM84.2265 20.11C83.1412 20.11 82.3052 19.8167 81.7185 19.23C81.1318 18.6433 80.8385 17.8147 80.8385 16.744V5.898H82.4005V16.656C82.4005 17.3307 82.5692 17.8513 82.9065 18.218C83.2585 18.5847 83.7572 18.768 84.4025 18.768C85.0918 18.768 85.6638 18.57 86.1185 18.174L86.6685 19.296C86.3605 19.5747 85.9865 19.78 85.5465 19.912C85.1212 20.044 84.6812 20.11 84.2265 20.11ZM78.7705 9.748V8.45H85.9205V9.748H78.7705ZM100.044 20.11C99.0611 20.11 98.2031 19.9267 97.4698 19.56C96.7365 19.1933 96.1645 18.6433 95.7538 17.91C95.3578 17.1767 95.1598 16.26 95.1598 15.16V8.45H96.7218V14.984C96.7218 16.216 97.0225 17.1473 97.6238 17.778C98.2398 18.394 99.0978 18.702 100.198 18.702C101.004 18.702 101.701 18.5407 102.288 18.218C102.889 17.8807 103.344 17.3967 103.652 16.766C103.974 16.1353 104.136 15.38 104.136 14.5V8.45H105.698V20H104.202V16.832L104.444 17.404C104.077 18.2547 103.505 18.922 102.728 19.406C101.965 19.8753 101.07 20.11 100.044 20.11ZM113.153 20.11C112.2 20.11 111.298 19.978 110.447 19.714C109.596 19.4353 108.929 19.0907 108.445 18.68L109.149 17.448C109.618 17.8 110.22 18.108 110.953 18.372C111.686 18.6213 112.456 18.746 113.263 18.746C114.363 18.746 115.155 18.5773 115.639 18.24C116.123 17.888 116.365 17.426 116.365 16.854C116.365 16.4287 116.226 16.0987 115.947 15.864C115.683 15.6147 115.331 15.4313 114.891 15.314C114.451 15.182 113.96 15.072 113.417 14.984C112.874 14.896 112.332 14.7933 111.789 14.676C111.261 14.5587 110.777 14.39 110.337 14.17C109.897 13.9353 109.538 13.62 109.259 13.224C108.995 12.828 108.863 12.3 108.863 11.64C108.863 11.0093 109.039 10.4447 109.391 9.946C109.743 9.44733 110.256 9.05867 110.931 8.78C111.62 8.48667 112.456 8.34 113.439 8.34C114.187 8.34 114.935 8.44267 115.683 8.648C116.431 8.83867 117.047 9.09533 117.531 9.418L116.849 10.672C116.336 10.32 115.786 10.0707 115.199 9.924C114.612 9.76267 114.026 9.682 113.439 9.682C112.398 9.682 111.628 9.86533 111.129 10.232C110.645 10.584 110.403 11.0387 110.403 11.596C110.403 12.036 110.535 12.3807 110.799 12.63C111.078 12.8793 111.437 13.0773 111.877 13.224C112.332 13.356 112.823 13.466 113.351 13.554C113.894 13.642 114.429 13.752 114.957 13.884C115.5 14.0013 115.991 14.17 116.431 14.39C116.886 14.5953 117.245 14.896 117.509 15.292C117.788 15.6733 117.927 16.1793 117.927 16.81C117.927 17.4847 117.736 18.0713 117.355 18.57C116.988 19.054 116.446 19.4353 115.727 19.714C115.023 19.978 114.165 20.11 113.153 20.11ZM130.203 20.11C129.118 20.11 128.282 19.8167 127.695 19.23C127.108 18.6433 126.815 17.8147 126.815 16.744V5.898H128.377V16.656C128.377 17.3307 128.546 17.8513 128.883 18.218C129.235 18.5847 129.734 18.768 130.379 18.768C131.068 18.768 131.64 18.57 132.095 18.174L132.645 19.296C132.337 19.5747 131.963 19.78 131.523 19.912C131.098 20.044 130.658 20.11 130.203 20.11ZM124.747 9.748V8.45H131.897V9.748H124.747ZM139.788 20.11C138.674 20.11 137.669 19.8607 136.774 19.362C135.894 18.8487 135.198 18.152 134.684 17.272C134.171 16.3773 133.914 15.358 133.914 14.214C133.914 13.0553 134.171 12.036 134.684 11.156C135.198 10.276 135.894 9.58667 136.774 9.088C137.654 8.58933 138.659 8.34 139.788 8.34C140.932 8.34 141.944 8.58933 142.824 9.088C143.719 9.58667 144.416 10.276 144.914 11.156C145.428 12.036 145.684 13.0553 145.684 14.214C145.684 15.358 145.428 16.3773 144.914 17.272C144.416 18.152 143.719 18.8487 142.824 19.362C141.93 19.8607 140.918 20.11 139.788 20.11ZM139.788 18.724C140.624 18.724 141.365 18.5407 142.01 18.174C142.656 17.7927 143.162 17.2647 143.528 16.59C143.91 15.9007 144.1 15.1087 144.1 14.214C144.1 13.3047 143.91 12.5127 143.528 11.838C143.162 11.1633 142.656 10.6427 142.01 10.276C141.365 9.89467 140.632 9.704 139.81 9.704C138.989 9.704 138.256 9.89467 137.61 10.276C136.965 10.6427 136.452 11.1633 136.07 11.838C135.689 12.5127 135.498 13.3047 135.498 14.214C135.498 15.1087 135.689 15.9007 136.07 16.59C136.452 17.2647 136.965 17.7927 137.61 18.174C138.256 18.5407 138.982 18.724 139.788 18.724ZM153.471 20.11C152.371 20.11 151.381 19.8607 150.501 19.362C149.636 18.8633 148.954 18.174 148.455 17.294C147.957 16.3993 147.707 15.3727 147.707 14.214C147.707 13.0407 147.957 12.014 148.455 11.134C148.954 10.254 149.636 9.572 150.501 9.088C151.381 8.58933 152.371 8.34 153.471 8.34C154.483 8.34 155.385 8.56733 156.177 9.022C156.984 9.47667 157.622 10.144 158.091 11.024C158.575 11.8893 158.817 12.9527 158.817 14.214C158.817 15.4607 158.583 16.524 158.113 17.404C157.644 18.284 157.006 18.9587 156.199 19.428C155.407 19.8827 154.498 20.11 153.471 20.11ZM153.581 18.724C154.403 18.724 155.136 18.5407 155.781 18.174C156.441 17.7927 156.955 17.2647 157.321 16.59C157.703 15.9007 157.893 15.1087 157.893 14.214C157.893 13.3047 157.703 12.5127 157.321 11.838C156.955 11.1633 156.441 10.6427 155.781 10.276C155.136 9.89467 154.403 9.704 153.581 9.704C152.775 9.704 152.049 9.89467 151.403 10.276C150.758 10.6427 150.245 11.1633 149.863 11.838C149.482 12.5127 149.291 13.3047 149.291 14.214C149.291 15.1087 149.482 15.9007 149.863 16.59C150.245 17.2647 150.758 17.7927 151.403 18.174C152.049 18.5407 152.775 18.724 153.581 18.724ZM157.937 20V16.524L158.091 14.192L157.871 11.86V3.676H159.433V20H157.937ZM171.021 20V17.448L170.955 17.03V12.762C170.955 11.7793 170.677 11.024 170.119 10.496C169.577 9.968 168.763 9.704 167.677 9.704C166.929 9.704 166.218 9.82867 165.543 10.078C164.869 10.3273 164.297 10.6573 163.827 11.068L163.123 9.902C163.71 9.40333 164.414 9.022 165.235 8.758C166.057 8.47933 166.922 8.34 167.831 8.34C169.327 8.34 170.479 8.714 171.285 9.462C172.107 10.1953 172.517 11.3173 172.517 12.828V20H171.021ZM167.039 20.11C166.174 20.11 165.419 19.9707 164.773 19.692C164.143 19.3987 163.659 19.0027 163.321 18.504C162.984 17.9907 162.815 17.404 162.815 16.744C162.815 16.1427 162.955 15.6 163.233 15.116C163.527 14.6173 163.996 14.2213 164.641 13.928C165.301 13.62 166.181 13.466 167.281 13.466H171.263V14.632H167.325C166.211 14.632 165.433 14.83 164.993 15.226C164.568 15.622 164.355 16.1133 164.355 16.7C164.355 17.36 164.612 17.888 165.125 18.284C165.639 18.68 166.357 18.878 167.281 18.878C168.161 18.878 168.917 18.68 169.547 18.284C170.193 17.8733 170.662 17.2867 170.955 16.524L171.307 17.602C171.014 18.3647 170.501 18.9733 169.767 19.428C169.049 19.8827 168.139 20.11 167.039 20.11ZM176.633 24.378C176.091 24.378 175.57 24.29 175.071 24.114C174.587 23.938 174.169 23.674 173.817 23.322L174.543 22.156C174.837 22.4347 175.152 22.6473 175.489 22.794C175.841 22.9553 176.23 23.036 176.655 23.036C177.169 23.036 177.609 22.8893 177.975 22.596C178.357 22.3173 178.716 21.8187 179.053 21.1L179.801 19.406L179.977 19.164L184.729 8.45H186.269L180.483 21.386C180.161 22.134 179.801 22.728 179.405 23.168C179.024 23.608 178.606 23.916 178.151 24.092C177.697 24.2827 177.191 24.378 176.633 24.378ZM179.713 20.33L174.389 8.45H176.017L180.725 19.054L179.713 20.33ZM194.491 20V6.998C194.491 5.97133 194.791 5.14267 195.393 4.512C195.994 3.88133 196.859 3.566 197.989 3.566C198.429 3.566 198.854 3.62467 199.265 3.742C199.675 3.85933 200.02 4.04267 200.299 4.292L199.771 5.458C199.551 5.26733 199.294 5.128 199.001 5.04C198.707 4.93733 198.392 4.886 198.055 4.886C197.395 4.886 196.889 5.06933 196.537 5.436C196.185 5.80267 196.009 6.34533 196.009 7.064V8.824L196.053 9.55V20H194.491ZM192.423 9.748V8.45H199.573V9.748H192.423ZM206.197 20.11C205.082 20.11 204.077 19.8607 203.183 19.362C202.303 18.8487 201.606 18.152 201.093 17.272C200.579 16.3773 200.323 15.358 200.323 14.214C200.323 13.0553 200.579 12.036 201.093 11.156C201.606 10.276 202.303 9.58667 203.183 9.088C204.063 8.58933 205.067 8.34 206.197 8.34C207.341 8.34 208.353 8.58933 209.233 9.088C210.127 9.58667 210.824 10.276 211.323 11.156C211.836 12.036 212.093 13.0553 212.093 14.214C212.093 15.358 211.836 16.3773 211.323 17.272C210.824 18.152 210.127 18.8487 209.233 19.362C208.338 19.8607 207.326 20.11 206.197 20.11ZM206.197 18.724C207.033 18.724 207.773 18.5407 208.419 18.174C209.064 17.7927 209.57 17.2647 209.937 16.59C210.318 15.9007 210.509 15.1087 210.509 14.214C210.509 13.3047 210.318 12.5127 209.937 11.838C209.57 11.1633 209.064 10.6427 208.419 10.276C207.773 9.89467 207.04 9.704 206.219 9.704C205.397 9.704 204.664 9.89467 204.019 10.276C203.373 10.6427 202.86 11.1633 202.479 11.838C202.097 12.5127 201.907 13.3047 201.907 14.214C201.907 15.1087 202.097 15.9007 202.479 16.59C202.86 17.2647 203.373 17.7927 204.019 18.174C204.664 18.5407 205.39 18.724 206.197 18.724ZM215.282 20V8.45H216.778V11.596L216.624 11.046C216.946 10.166 217.489 9.49867 218.252 9.044C219.014 8.57467 219.96 8.34 221.09 8.34V9.858C221.031 9.858 220.972 9.858 220.914 9.858C220.855 9.84333 220.796 9.836 220.738 9.836C219.52 9.836 218.567 10.21 217.878 10.958C217.188 11.6913 216.844 12.74 216.844 14.104V20H215.282ZM237.107 20V17.448L237.041 17.03V12.762C237.041 11.7793 236.763 11.024 236.205 10.496C235.663 9.968 234.849 9.704 233.763 9.704C233.015 9.704 232.304 9.82867 231.629 10.078C230.955 10.3273 230.383 10.6573 229.913 11.068L229.209 9.902C229.796 9.40333 230.5 9.022 231.321 8.758C232.143 8.47933 233.008 8.34 233.917 8.34C235.413 8.34 236.565 8.714 237.371 9.462C238.193 10.1953 238.603 11.3173 238.603 12.828V20H237.107ZM233.125 20.11C232.26 20.11 231.505 19.9707 230.859 19.692C230.229 19.3987 229.745 19.0027 229.407 18.504C229.07 17.9907 228.901 17.404 228.901 16.744C228.901 16.1427 229.041 15.6 229.319 15.116C229.613 14.6173 230.082 14.2213 230.727 13.928C231.387 13.62 232.267 13.466 233.367 13.466H237.349V14.632H233.411C232.297 14.632 231.519 14.83 231.079 15.226C230.654 15.622 230.441 16.1133 230.441 16.7C230.441 17.36 230.698 17.888 231.211 18.284C231.725 18.68 232.443 18.878 233.367 18.878C234.247 18.878 235.003 18.68 235.633 18.284C236.279 17.8733 236.748 17.2867 237.041 16.524L237.393 17.602C237.1 18.3647 236.587 18.9733 235.853 19.428C235.135 19.8827 234.225 20.11 233.125 20.11ZM253.202 20.11C252.102 20.11 251.112 19.8607 250.232 19.362C249.366 18.8633 248.684 18.174 248.186 17.294C247.687 16.414 247.438 15.3873 247.438 14.214C247.438 13.0553 247.687 12.036 248.186 11.156C248.684 10.2613 249.366 9.572 250.232 9.088C251.112 8.58933 252.102 8.34 253.202 8.34C254.228 8.34 255.138 8.56733 255.93 9.022C256.736 9.47667 257.374 10.144 257.844 11.024C258.313 11.8893 258.548 12.9527 258.548 14.214C258.548 15.4753 258.306 16.546 257.822 17.426C257.352 18.2913 256.714 18.9587 255.908 19.428C255.116 19.8827 254.214 20.11 253.202 20.11ZM253.312 18.724C254.133 18.724 254.866 18.5407 255.512 18.174C256.172 17.7927 256.685 17.2647 257.052 16.59C257.433 15.9007 257.624 15.1087 257.624 14.214C257.624 13.3193 257.433 12.5347 257.052 11.86C256.685 11.1853 256.172 10.6573 255.512 10.276C254.866 9.89467 254.133 9.704 253.312 9.704C252.505 9.704 251.779 9.89467 251.134 10.276C250.488 10.6573 249.975 11.1853 249.594 11.86C249.212 12.5347 249.022 13.3193 249.022 14.214C249.022 15.1087 249.212 15.9007 249.594 16.59C249.975 17.2647 250.488 17.7927 251.134 18.174C251.779 18.5407 252.505 18.724 253.312 18.724ZM257.602 24.268V16.568L257.822 14.236L257.668 11.926V8.45H259.164V24.268H257.602ZM268.288 20.11C267.305 20.11 266.447 19.9267 265.714 19.56C264.981 19.1933 264.409 18.6433 263.998 17.91C263.602 17.1767 263.404 16.26 263.404 15.16V8.45H264.966V14.984C264.966 16.216 265.267 17.1473 265.868 17.778C266.484 18.394 267.342 18.702 268.442 18.702C269.249 18.702 269.945 18.5407 270.532 18.218C271.133 17.8807 271.588 17.3967 271.896 16.766C272.219 16.1353 272.38 15.38 272.38 14.5V8.45H273.942V20H272.446V16.832L272.688 17.404C272.321 18.2547 271.749 18.922 270.972 19.406C270.209 19.8753 269.315 20.11 268.288 20.11ZM278.295 20V8.45H279.857V20H278.295ZM279.087 5.898C278.765 5.898 278.493 5.788 278.273 5.568C278.053 5.348 277.943 5.084 277.943 4.776C277.943 4.468 278.053 4.21133 278.273 4.006C278.493 3.786 278.765 3.676 279.087 3.676C279.41 3.676 279.681 3.77867 279.901 3.984C280.121 4.18933 280.231 4.446 280.231 4.754C280.231 5.07667 280.121 5.348 279.901 5.568C279.696 5.788 279.425 5.898 279.087 5.898ZM288.999 20.11C287.855 20.11 286.829 19.8607 285.919 19.362C285.025 18.8487 284.321 18.152 283.807 17.272C283.294 16.3773 283.037 15.358 283.037 14.214C283.037 13.0553 283.294 12.036 283.807 11.156C284.321 10.276 285.025 9.58667 285.919 9.088C286.829 8.58933 287.855 8.34 288.999 8.34C289.982 8.34 290.869 8.53067 291.661 8.912C292.453 9.29333 293.077 9.86533 293.531 10.628L292.365 11.42C291.969 10.8333 291.478 10.4007 290.891 10.122C290.305 9.84333 289.667 9.704 288.977 9.704C288.156 9.704 287.415 9.89467 286.755 10.276C286.095 10.6427 285.575 11.1633 285.193 11.838C284.812 12.5127 284.621 13.3047 284.621 14.214C284.621 15.1233 284.812 15.9153 285.193 16.59C285.575 17.2647 286.095 17.7927 286.755 18.174C287.415 18.5407 288.156 18.724 288.977 18.724C289.667 18.724 290.305 18.5847 290.891 18.306C291.478 18.0273 291.969 17.602 292.365 17.03L293.531 17.822C293.077 18.57 292.453 19.142 291.661 19.538C290.869 19.9193 289.982 20.11 288.999 20.11ZM297.66 17.008L297.704 15.006L304.898 8.45H306.812L301.73 13.312L300.85 14.06L297.66 17.008ZM296.428 20V3.676H297.99V20H296.428ZM305.382 20L300.564 13.994L301.576 12.784L307.296 20H305.382ZM319.997 20.11C318.897 20.11 317.907 19.8607 317.027 19.362C316.161 18.8633 315.479 18.174 314.981 17.294C314.482 16.414 314.233 15.3873 314.233 14.214C314.233 13.0553 314.482 12.036 314.981 11.156C315.479 10.2613 316.161 9.572 317.027 9.088C317.907 8.58933 318.897 8.34 319.997 8.34C321.023 8.34 321.933 8.56733 322.725 9.022C323.531 9.47667 324.169 10.144 324.639 11.024C325.108 11.8893 325.343 12.9527 325.343 14.214C325.343 15.4753 325.101 16.546 324.617 17.426C324.147 18.2913 323.509 18.9587 322.703 19.428C321.911 19.8827 321.009 20.11 319.997 20.11ZM320.107 18.724C320.928 18.724 321.661 18.5407 322.307 18.174C322.967 17.7927 323.48 17.2647 323.847 16.59C324.228 15.9007 324.419 15.1087 324.419 14.214C324.419 13.3193 324.228 12.5347 323.847 11.86C323.48 11.1853 322.967 10.6573 322.307 10.276C321.661 9.89467 320.928 9.704 320.107 9.704C319.3 9.704 318.574 9.89467 317.929 10.276C317.283 10.6573 316.77 11.1853 316.389 11.86C316.007 12.5347 315.817 13.3193 315.817 14.214C315.817 15.1087 316.007 15.9007 316.389 16.59C316.77 17.2647 317.283 17.7927 317.929 18.174C318.574 18.5407 319.3 18.724 320.107 18.724ZM324.397 24.268V16.568L324.617 14.236L324.463 11.926V8.45H325.959V24.268H324.397ZM335.083 20.11C334.1 20.11 333.242 19.9267 332.509 19.56C331.776 19.1933 331.204 18.6433 330.793 17.91C330.397 17.1767 330.199 16.26 330.199 15.16V8.45H331.761V14.984C331.761 16.216 332.062 17.1473 332.663 17.778C333.279 18.394 334.137 18.702 335.237 18.702C336.044 18.702 336.74 18.5407 337.327 18.218C337.928 17.8807 338.383 17.3967 338.691 16.766C339.014 16.1353 339.175 15.38 339.175 14.5V8.45H340.737V20H339.241V16.832L339.483 17.404C339.116 18.2547 338.544 18.922 337.767 19.406C337.004 19.8753 336.11 20.11 335.083 20.11ZM349.798 20.11C348.683 20.11 347.679 19.8607 346.784 19.362C345.904 18.8487 345.207 18.152 344.694 17.272C344.181 16.3773 343.924 15.358 343.924 14.214C343.924 13.0553 344.181 12.036 344.694 11.156C345.207 10.276 345.904 9.58667 346.784 9.088C347.664 8.58933 348.669 8.34 349.798 8.34C350.942 8.34 351.954 8.58933 352.834 9.088C353.729 9.58667 354.425 10.276 354.924 11.156C355.437 12.036 355.694 13.0553 355.694 14.214C355.694 15.358 355.437 16.3773 354.924 17.272C354.425 18.152 353.729 18.8487 352.834 19.362C351.939 19.8607 350.927 20.11 349.798 20.11ZM349.798 18.724C350.634 18.724 351.375 18.5407 352.02 18.174C352.665 17.7927 353.171 17.2647 353.538 16.59C353.919 15.9007 354.11 15.1087 354.11 14.214C354.11 13.3047 353.919 12.5127 353.538 11.838C353.171 11.1633 352.665 10.6427 352.02 10.276C351.375 9.89467 350.641 9.704 349.82 9.704C348.999 9.704 348.265 9.89467 347.62 10.276C346.975 10.6427 346.461 11.1633 346.08 11.838C345.699 12.5127 345.508 13.3047 345.508 14.214C345.508 15.1087 345.699 15.9007 346.08 16.59C346.461 17.2647 346.975 17.7927 347.62 18.174C348.265 18.5407 348.991 18.724 349.798 18.724ZM362.535 20.11C361.45 20.11 360.614 19.8167 360.027 19.23C359.44 18.6433 359.147 17.8147 359.147 16.744V5.898H360.709V16.656C360.709 17.3307 360.878 17.8513 361.215 18.218C361.567 18.5847 362.066 18.768 362.711 18.768C363.4 18.768 363.972 18.57 364.427 18.174L364.977 19.296C364.669 19.5747 364.295 19.78 363.855 19.912C363.43 20.044 362.99 20.11 362.535 20.11ZM357.079 9.748V8.45H364.229V9.748H357.079ZM372.318 20.11C371.116 20.11 370.06 19.8607 369.15 19.362C368.241 18.8487 367.53 18.152 367.016 17.272C366.503 16.3773 366.246 15.358 366.246 14.214C366.246 13.07 366.488 12.058 366.972 11.178C367.471 10.298 368.146 9.60867 368.996 9.11C369.862 8.59667 370.83 8.34 371.9 8.34C372.986 8.34 373.946 8.58933 374.782 9.088C375.633 9.572 376.3 10.2613 376.784 11.156C377.268 12.036 377.51 13.0553 377.51 14.214C377.51 14.2873 377.503 14.368 377.488 14.456C377.488 14.5293 377.488 14.61 377.488 14.698H367.434V13.532H376.652L376.036 13.994C376.036 13.158 375.853 12.4173 375.486 11.772C375.134 11.112 374.65 10.5987 374.034 10.232C373.418 9.86533 372.707 9.682 371.9 9.682C371.108 9.682 370.397 9.86533 369.766 10.232C369.136 10.5987 368.644 11.112 368.292 11.772C367.94 12.432 367.764 13.1873 367.764 14.038V14.28C367.764 15.16 367.955 15.9373 368.336 16.612C368.732 17.272 369.275 17.7927 369.964 18.174C370.668 18.5407 371.468 18.724 372.362 18.724C373.066 18.724 373.719 18.5993 374.32 18.35C374.936 18.1007 375.464 17.7193 375.904 17.206L376.784 18.218C376.271 18.834 375.626 19.3033 374.848 19.626C374.086 19.9487 373.242 20.11 372.318 20.11ZM391.156 20.11C390.041 20.11 389.036 19.8607 388.142 19.362C387.262 18.8487 386.565 18.152 386.052 17.272C385.538 16.3773 385.282 15.358 385.282 14.214C385.282 13.0553 385.538 12.036 386.052 11.156C386.565 10.276 387.262 9.58667 388.142 9.088C389.022 8.58933 390.026 8.34 391.156 8.34C392.3 8.34 393.312 8.58933 394.192 9.088C395.086 9.58667 395.783 10.276 396.282 11.156C396.795 12.036 397.052 13.0553 397.052 14.214C397.052 15.358 396.795 16.3773 396.282 17.272C395.783 18.152 395.086 18.8487 394.192 19.362C393.297 19.8607 392.285 20.11 391.156 20.11ZM391.156 18.724C391.992 18.724 392.732 18.5407 393.378 18.174C394.023 17.7927 394.529 17.2647 394.896 16.59C395.277 15.9007 395.468 15.1087 395.468 14.214C395.468 13.3047 395.277 12.5127 394.896 11.838C394.529 11.1633 394.023 10.6427 393.378 10.276C392.732 9.89467 391.999 9.704 391.178 9.704C390.356 9.704 389.623 9.89467 388.978 10.276C388.332 10.6427 387.819 11.1633 387.438 11.838C387.056 12.5127 386.866 13.3047 386.866 14.214C386.866 15.1087 387.056 15.9007 387.438 16.59C387.819 17.2647 388.332 17.7927 388.978 18.174C389.623 18.5407 390.349 18.724 391.156 18.724ZM406.137 8.34C407.075 8.34 407.897 8.52333 408.601 8.89C409.319 9.242 409.877 9.78467 410.273 10.518C410.683 11.2513 410.889 12.1753 410.889 13.29V20H409.327V13.444C409.327 12.2267 409.019 11.31 408.403 10.694C407.801 10.0633 406.951 9.748 405.851 9.748C405.029 9.748 404.311 9.91667 403.695 10.254C403.093 10.5767 402.624 11.0533 402.287 11.684C401.964 12.3 401.803 13.048 401.803 13.928V20H400.241V8.45H401.737V11.618L401.495 11.024C401.861 10.188 402.448 9.53533 403.255 9.066C404.061 8.582 405.022 8.34 406.137 8.34ZM424.518 20.11C423.432 20.11 422.596 19.8167 422.01 19.23C421.423 18.6433 421.13 17.8147 421.13 16.744V5.898H422.692V16.656C422.692 17.3307 422.86 17.8513 423.198 18.218C423.55 18.5847 424.048 18.768 424.694 18.768C425.383 18.768 425.955 18.57 426.41 18.174L426.96 19.296C426.652 19.5747 426.278 19.78 425.838 19.912C425.412 20.044 424.972 20.11 424.518 20.11ZM419.062 9.748V8.45H426.212V9.748H419.062ZM435.699 8.34C436.638 8.34 437.459 8.52333 438.163 8.89C438.882 9.242 439.439 9.78467 439.835 10.518C440.246 11.2513 440.451 12.1753 440.451 13.29V20H438.889V13.444C438.889 12.2267 438.581 11.31 437.965 10.694C437.364 10.0633 436.513 9.748 435.413 9.748C434.592 9.748 433.873 9.91667 433.257 10.254C432.656 10.5767 432.186 11.0533 431.849 11.684C431.526 12.3 431.365 13.048 431.365 13.928V20H429.803V3.676H431.365V11.618L431.057 11.024C431.424 10.188 432.01 9.53533 432.817 9.066C433.624 8.582 434.584 8.34 435.699 8.34ZM449.576 20.11C448.374 20.11 447.318 19.8607 446.408 19.362C445.499 18.8487 444.788 18.152 444.274 17.272C443.761 16.3773 443.504 15.358 443.504 14.214C443.504 13.07 443.746 12.058 444.23 11.178C444.729 10.298 445.404 9.60867 446.254 9.11C447.12 8.59667 448.088 8.34 449.158 8.34C450.244 8.34 451.204 8.58933 452.04 9.088C452.891 9.572 453.558 10.2613 454.042 11.156C454.526 12.036 454.768 13.0553 454.768 14.214C454.768 14.2873 454.761 14.368 454.746 14.456C454.746 14.5293 454.746 14.61 454.746 14.698H444.692V13.532H453.91L453.294 13.994C453.294 13.158 453.111 12.4173 452.744 11.772C452.392 11.112 451.908 10.5987 451.292 10.232C450.676 9.86533 449.965 9.682 449.158 9.682C448.366 9.682 447.655 9.86533 447.024 10.232C446.394 10.5987 445.902 11.112 445.55 11.772C445.198 12.432 445.022 13.1873 445.022 14.038V14.28C445.022 15.16 445.213 15.9373 445.594 16.612C445.99 17.272 446.533 17.7927 447.222 18.174C447.926 18.5407 448.726 18.724 449.62 18.724C450.324 18.724 450.977 18.5993 451.578 18.35C452.194 18.1007 452.722 17.7193 453.162 17.206L454.042 18.218C453.529 18.834 452.884 19.3033 452.106 19.626C451.344 19.9487 450.5 20.11 449.576 20.11ZM468.611 20.11C467.409 20.11 466.353 19.8607 465.443 19.362C464.534 18.8487 463.823 18.152 463.309 17.272C462.796 16.3773 462.539 15.358 462.539 14.214C462.539 13.07 462.781 12.058 463.265 11.178C463.764 10.298 464.439 9.60867 465.289 9.11C466.155 8.59667 467.123 8.34 468.193 8.34C469.279 8.34 470.239 8.58933 471.075 9.088C471.926 9.572 472.593 10.2613 473.077 11.156C473.561 12.036 473.803 13.0553 473.803 14.214C473.803 14.2873 473.796 14.368 473.781 14.456C473.781 14.5293 473.781 14.61 473.781 14.698H463.727V13.532H472.945L472.329 13.994C472.329 13.158 472.146 12.4173 471.779 11.772C471.427 11.112 470.943 10.5987 470.327 10.232C469.711 9.86533 469 9.682 468.193 9.682C467.401 9.682 466.69 9.86533 466.059 10.232C465.429 10.5987 464.937 11.112 464.585 11.772C464.233 12.432 464.057 13.1873 464.057 14.038V14.28C464.057 15.16 464.248 15.9373 464.629 16.612C465.025 17.272 465.568 17.7927 466.257 18.174C466.961 18.5407 467.761 18.724 468.655 18.724C469.359 18.724 470.012 18.5993 470.613 18.35C471.229 18.1007 471.757 17.7193 472.197 17.206L473.077 18.218C472.564 18.834 471.919 19.3033 471.141 19.626C470.379 19.9487 469.535 20.11 468.611 20.11ZM474.9 20L479.784 13.664L479.762 14.434L475.12 8.45H476.88L480.686 13.4L480.026 13.378L483.832 8.45H485.548L480.862 14.5L480.884 13.664L485.812 20H484.03L480.004 14.72L480.62 14.808L476.66 20H474.9ZM495.436 20V17.448L495.37 17.03V12.762C495.37 11.7793 495.091 11.024 494.534 10.496C493.991 9.968 493.177 9.704 492.092 9.704C491.344 9.704 490.632 9.82867 489.958 10.078C489.283 10.3273 488.711 10.6573 488.242 11.068L487.538 9.902C488.124 9.40333 488.828 9.022 489.65 8.758C490.471 8.47933 491.336 8.34 492.246 8.34C493.742 8.34 494.893 8.714 495.7 9.462C496.521 10.1953 496.932 11.3173 496.932 12.828V20H495.436ZM491.454 20.11C490.588 20.11 489.833 19.9707 489.188 19.692C488.557 19.3987 488.073 19.0027 487.736 18.504C487.398 17.9907 487.23 17.404 487.23 16.744C487.23 16.1427 487.369 15.6 487.648 15.116C487.941 14.6173 488.41 14.2213 489.056 13.928C489.716 13.62 490.596 13.466 491.696 13.466H495.678V14.632H491.74C490.625 14.632 489.848 14.83 489.408 15.226C488.982 15.622 488.77 16.1133 488.77 16.7C488.77 17.36 489.026 17.888 489.54 18.284C490.053 18.68 490.772 18.878 491.696 18.878C492.576 18.878 493.331 18.68 493.962 18.284C494.607 17.8733 495.076 17.2867 495.37 16.524L495.722 17.602C495.428 18.3647 494.915 18.9733 494.182 19.428C493.463 19.8827 492.554 20.11 491.454 20.11ZM505.97 20.11C504.826 20.11 503.799 19.8607 502.89 19.362C501.995 18.8487 501.291 18.152 500.778 17.272C500.265 16.3773 500.008 15.358 500.008 14.214C500.008 13.0553 500.265 12.036 500.778 11.156C501.291 10.276 501.995 9.58667 502.89 9.088C503.799 8.58933 504.826 8.34 505.97 8.34C506.953 8.34 507.84 8.53067 508.632 8.912C509.424 9.29333 510.047 9.86533 510.502 10.628L509.336 11.42C508.94 10.8333 508.449 10.4007 507.862 10.122C507.275 9.84333 506.637 9.704 505.948 9.704C505.127 9.704 504.386 9.89467 503.726 10.276C503.066 10.6427 502.545 11.1633 502.164 11.838C501.783 12.5127 501.592 13.3047 501.592 14.214C501.592 15.1233 501.783 15.9153 502.164 16.59C502.545 17.2647 503.066 17.7927 503.726 18.174C504.386 18.5407 505.127 18.724 505.948 18.724C506.637 18.724 507.275 18.5847 507.862 18.306C508.449 18.0273 508.94 17.602 509.336 17.03L510.502 17.822C510.047 18.57 509.424 19.142 508.632 19.538C507.84 19.9193 506.953 20.11 505.97 20.11ZM517.351 20.11C516.266 20.11 515.43 19.8167 514.843 19.23C514.257 18.6433 513.963 17.8147 513.963 16.744V5.898H515.525V16.656C515.525 17.3307 515.694 17.8513 516.031 18.218C516.383 18.5847 516.882 18.768 517.527 18.768C518.217 18.768 518.789 18.57 519.243 18.174L519.793 19.296C519.485 19.5747 519.111 19.78 518.671 19.912C518.246 20.044 517.806 20.11 517.351 20.11ZM511.895 9.748V8.45H519.045V9.748H511.895ZM8.14 44.11C7.14267 44.11 6.24067 43.8827 5.434 43.428C4.62733 42.9587 3.982 42.2913 3.498 41.426C3.02867 40.546 2.794 39.4753 2.794 38.214C2.794 36.9527 3.02867 35.8893 3.498 35.024C3.96733 34.144 4.60533 33.4767 5.412 33.022C6.21867 32.5673 7.128 32.34 8.14 32.34C9.24 32.34 10.2227 32.5893 11.088 33.088C11.968 33.572 12.6573 34.2613 13.156 35.156C13.6547 36.036 13.904 37.0553 13.904 38.214C13.904 39.3873 13.6547 40.414 13.156 41.294C12.6573 42.174 11.968 42.8633 11.088 43.362C10.2227 43.8607 9.24 44.11 8.14 44.11ZM2.178 48.268V32.45H3.674V35.926L3.52 38.236L3.74 40.568V48.268H2.178ZM8.03 42.724C8.85133 42.724 9.58467 42.5407 10.23 42.174C10.8753 41.7927 11.3887 41.2647 11.77 40.59C12.1513 39.9007 12.342 39.1087 12.342 38.214C12.342 37.3193 12.1513 36.5347 11.77 35.86C11.3887 35.1853 10.8753 34.6573 10.23 34.276C9.58467 33.8947 8.85133 33.704 8.03 33.704C7.20867 33.704 6.468 33.8947 5.808 34.276C5.16267 34.6573 4.64933 35.1853 4.268 35.86C3.90133 36.5347 3.718 37.3193 3.718 38.214C3.718 39.1087 3.90133 39.9007 4.268 40.59C4.64933 41.2647 5.16267 41.7927 5.808 42.174C6.468 42.5407 7.20867 42.724 8.03 42.724ZM24.2617 44V41.448L24.1957 41.03V36.762C24.1957 35.7793 23.917 35.024 23.3597 34.496C22.817 33.968 22.003 33.704 20.9177 33.704C20.1697 33.704 19.4584 33.8287 18.7837 34.078C18.109 34.3273 17.537 34.6573 17.0677 35.068L16.3637 33.902C16.9504 33.4033 17.6544 33.022 18.4757 32.758C19.297 32.4793 20.1624 32.34 21.0717 32.34C22.5677 32.34 23.719 32.714 24.5257 33.462C25.347 34.1953 25.7577 35.3173 25.7577 36.828V44H24.2617ZM20.2797 44.11C19.4144 44.11 18.659 43.9707 18.0137 43.692C17.383 43.3987 16.899 43.0027 16.5617 42.504C16.2244 41.9907 16.0557 41.404 16.0557 40.744C16.0557 40.1427 16.195 39.6 16.4737 39.116C16.767 38.6173 17.2364 38.2213 17.8817 37.928C18.5417 37.62 19.4217 37.466 20.5217 37.466H24.5037V38.632H20.5657C19.451 38.632 18.6737 38.83 18.2337 39.226C17.8084 39.622 17.5957 40.1133 17.5957 40.7C17.5957 41.36 17.8524 41.888 18.3657 42.284C18.879 42.68 19.5977 42.878 20.5217 42.878C21.4017 42.878 22.157 42.68 22.7877 42.284C23.433 41.8733 23.9024 41.2867 24.1957 40.524L24.5477 41.602C24.2544 42.3647 23.741 42.9733 23.0077 43.428C22.289 43.8827 21.3797 44.11 20.2797 44.11ZM30.0003 44V32.45H31.4963V35.596L31.3423 35.046C31.6649 34.166 32.2076 33.4987 32.9703 33.044C33.7329 32.5747 34.6789 32.34 35.8083 32.34V33.858C35.7496 33.858 35.6909 33.858 35.6323 33.858C35.5736 33.8433 35.5149 33.836 35.4563 33.836C34.2389 33.836 33.2856 34.21 32.5963 34.958C31.9069 35.6913 31.5623 36.74 31.5623 38.104V44H30.0003ZM42.8046 44.11C41.7193 44.11 40.8833 43.8167 40.2966 43.23C39.7099 42.6433 39.4166 41.8147 39.4166 40.744V29.898H40.9786V40.656C40.9786 41.3307 41.1473 41.8513 41.4846 42.218C41.8366 42.5847 42.3353 42.768 42.9806 42.768C43.6699 42.768 44.2419 42.57 44.6966 42.174L45.2466 43.296C44.9386 43.5747 44.5646 43.78 44.1246 43.912C43.6993 44.044 43.2593 44.11 42.8046 44.11ZM37.3486 33.748V32.45H44.4986V33.748H37.3486ZM53.9359 48.378C53.3933 48.378 52.8726 48.29 52.3739 48.114C51.8899 47.938 51.4719 47.674 51.1199 47.322L51.8459 46.156C52.1393 46.4347 52.4546 46.6473 52.7919 46.794C53.1439 46.9553 53.5326 47.036 53.9579 47.036C54.4713 47.036 54.9113 46.8893 55.2779 46.596C55.6593 46.3173 56.0186 45.8187 56.3559 45.1L57.1039 43.406L57.2799 43.164L62.0319 32.45H63.5719L57.7859 45.386C57.4633 46.134 57.1039 46.728 56.7079 47.168C56.3266 47.608 55.9086 47.916 55.4539 48.092C54.9993 48.2827 54.4933 48.378 53.9359 48.378ZM57.0159 44.33L51.6919 32.45H53.3199L58.0279 43.054L57.0159 44.33ZM70.1575 44.11C69.0428 44.11 68.0382 43.8607 67.1435 43.362C66.2635 42.8487 65.5668 42.152 65.0535 41.272C64.5402 40.3773 64.2835 39.358 64.2835 38.214C64.2835 37.0553 64.5402 36.036 65.0535 35.156C65.5668 34.276 66.2635 33.5867 67.1435 33.088C68.0235 32.5893 69.0282 32.34 70.1575 32.34C71.3015 32.34 72.3135 32.5893 73.1935 33.088C74.0882 33.5867 74.7848 34.276 75.2835 35.156C75.7968 36.036 76.0535 37.0553 76.0535 38.214C76.0535 39.358 75.7968 40.3773 75.2835 41.272C74.7848 42.152 74.0882 42.8487 73.1935 43.362C72.2988 43.8607 71.2868 44.11 70.1575 44.11ZM70.1575 42.724C70.9935 42.724 71.7342 42.5407 72.3795 42.174C73.0248 41.7927 73.5308 41.2647 73.8975 40.59C74.2788 39.9007 74.4695 39.1087 74.4695 38.214C74.4695 37.3047 74.2788 36.5127 73.8975 35.838C73.5308 35.1633 73.0248 34.6427 72.3795 34.276C71.7342 33.8947 71.0008 33.704 70.1795 33.704C69.3582 33.704 68.6248 33.8947 67.9795 34.276C67.3342 34.6427 66.8208 35.1633 66.4395 35.838C66.0582 36.5127 65.8675 37.3047 65.8675 38.214C65.8675 39.1087 66.0582 39.9007 66.4395 40.59C66.8208 41.2647 67.3342 41.7927 67.9795 42.174C68.6248 42.5407 69.3508 42.724 70.1575 42.724ZM84.0165 44.11C83.0338 44.11 82.1758 43.9267 81.4425 43.56C80.7091 43.1933 80.1371 42.6433 79.7265 41.91C79.3305 41.1767 79.1325 40.26 79.1325 39.16V32.45H80.6945V38.984C80.6945 40.216 80.9951 41.1473 81.5965 41.778C82.2125 42.394 83.0705 42.702 84.1705 42.702C84.9771 42.702 85.6738 42.5407 86.2605 42.218C86.8618 41.8807 87.3165 41.3967 87.6245 40.766C87.9471 40.1353 88.1085 39.38 88.1085 38.5V32.45H89.6705V44H88.1745V40.832L88.4165 41.404C88.0498 42.2547 87.4778 42.922 86.7005 43.406C85.9378 43.8753 85.0431 44.11 84.0165 44.11ZM105.678 32.34C106.616 32.34 107.438 32.5233 108.142 32.89C108.86 33.242 109.418 33.7847 109.814 34.518C110.224 35.2513 110.43 36.1753 110.43 37.29V44H108.868V37.444C108.868 36.2267 108.56 35.31 107.944 34.694C107.342 34.0633 106.492 33.748 105.392 33.748C104.57 33.748 103.852 33.9167 103.236 34.254C102.634 34.5767 102.165 35.0533 101.828 35.684C101.505 36.3 101.344 37.048 101.344 37.928V44H99.7815V32.45H101.278V35.618L101.036 35.024C101.402 34.188 101.989 33.5353 102.796 33.066C103.602 32.582 104.563 32.34 105.678 32.34ZM119.555 44.11C118.352 44.11 117.296 43.8607 116.387 43.362C115.477 42.8487 114.766 42.152 114.253 41.272C113.739 40.3773 113.483 39.358 113.483 38.214C113.483 37.07 113.725 36.058 114.209 35.178C114.707 34.298 115.382 33.6087 116.233 33.11C117.098 32.5967 118.066 32.34 119.137 32.34C120.222 32.34 121.183 32.5893 122.019 33.088C122.869 33.572 123.537 34.2613 124.021 35.156C124.505 36.036 124.747 37.0553 124.747 38.214C124.747 38.2873 124.739 38.368 124.725 38.456C124.725 38.5293 124.725 38.61 124.725 38.698H114.671V37.532H123.889L123.273 37.994C123.273 37.158 123.089 36.4173 122.723 35.772C122.371 35.112 121.887 34.5987 121.271 34.232C120.655 33.8653 119.943 33.682 119.137 33.682C118.345 33.682 117.633 33.8653 117.003 34.232C116.372 34.5987 115.881 35.112 115.529 35.772C115.177 36.432 115.001 37.1873 115.001 38.038V38.28C115.001 39.16 115.191 39.9373 115.573 40.612C115.969 41.272 116.511 41.7927 117.201 42.174C117.905 42.5407 118.704 42.724 119.599 42.724C120.303 42.724 120.955 42.5993 121.557 42.35C122.173 42.1007 122.701 41.7193 123.141 41.206L124.021 42.218C123.507 42.834 122.862 43.3033 122.085 43.626C121.322 43.9487 120.479 44.11 119.555 44.11ZM132.832 44.11C131.629 44.11 130.573 43.8607 129.664 43.362C128.755 42.8487 128.043 42.152 127.53 41.272C127.017 40.3773 126.76 39.358 126.76 38.214C126.76 37.07 127.002 36.058 127.486 35.178C127.985 34.298 128.659 33.6087 129.51 33.11C130.375 32.5967 131.343 32.34 132.414 32.34C133.499 32.34 134.46 32.5893 135.296 33.088C136.147 33.572 136.814 34.2613 137.298 35.156C137.782 36.036 138.024 37.0553 138.024 38.214C138.024 38.2873 138.017 38.368 138.002 38.456C138.002 38.5293 138.002 38.61 138.002 38.698H127.948V37.532H137.166L136.55 37.994C136.55 37.158 136.367 36.4173 136 35.772C135.648 35.112 135.164 34.5987 134.548 34.232C133.932 33.8653 133.221 33.682 132.414 33.682C131.622 33.682 130.911 33.8653 130.28 34.232C129.649 34.5987 129.158 35.112 128.806 35.772C128.454 36.432 128.278 37.1873 128.278 38.038V38.28C128.278 39.16 128.469 39.9373 128.85 40.612C129.246 41.272 129.789 41.7927 130.478 42.174C131.182 42.5407 131.981 42.724 132.876 42.724C133.58 42.724 134.233 42.5993 134.834 42.35C135.45 42.1007 135.978 41.7193 136.418 41.206L137.298 42.218C136.785 42.834 136.139 43.3033 135.362 43.626C134.599 43.9487 133.756 44.11 132.832 44.11ZM145.801 44.11C144.701 44.11 143.711 43.8607 142.831 43.362C141.966 42.8633 141.284 42.174 140.785 41.294C140.287 40.3993 140.037 39.3727 140.037 38.214C140.037 37.0407 140.287 36.014 140.785 35.134C141.284 34.254 141.966 33.572 142.831 33.088C143.711 32.5893 144.701 32.34 145.801 32.34C146.813 32.34 147.715 32.5673 148.507 33.022C149.314 33.4767 149.952 34.144 150.421 35.024C150.905 35.8893 151.147 36.9527 151.147 38.214C151.147 39.4607 150.913 40.524 150.443 41.404C149.974 42.284 149.336 42.9587 148.529 43.428C147.737 43.8827 146.828 44.11 145.801 44.11ZM145.911 42.724C146.733 42.724 147.466 42.5407 148.111 42.174C148.771 41.7927 149.285 41.2647 149.651 40.59C150.033 39.9007 150.223 39.1087 150.223 38.214C150.223 37.3047 150.033 36.5127 149.651 35.838C149.285 35.1633 148.771 34.6427 148.111 34.276C147.466 33.8947 146.733 33.704 145.911 33.704C145.105 33.704 144.379 33.8947 143.733 34.276C143.088 34.6427 142.575 35.1633 142.193 35.838C141.812 36.5127 141.621 37.3047 141.621 38.214C141.621 39.1087 141.812 39.9007 142.193 40.59C142.575 41.2647 143.088 41.7927 143.733 42.174C144.379 42.5407 145.105 42.724 145.911 42.724ZM150.267 44V40.524L150.421 38.192L150.201 35.86V27.676H151.763V44H150.267ZM156.268 44.11C155.945 44.11 155.666 43.9927 155.432 43.758C155.212 43.5233 155.102 43.2373 155.102 42.9C155.102 42.548 155.212 42.262 155.432 42.042C155.666 41.822 155.945 41.712 156.268 41.712C156.59 41.712 156.862 41.822 157.082 42.042C157.316 42.262 157.434 42.548 157.434 42.9C157.434 43.2373 157.316 43.5233 157.082 43.758C156.862 43.9927 156.59 44.11 156.268 44.11ZM173.595 44.132C172.437 44.132 171.359 43.9413 170.361 43.56C169.379 43.164 168.521 42.614 167.787 41.91C167.069 41.1913 166.504 40.3627 166.093 39.424C165.697 38.4707 165.499 37.4293 165.499 36.3C165.499 35.1707 165.697 34.1367 166.093 33.198C166.504 32.2447 167.069 31.416 167.787 30.712C168.521 29.9933 169.379 29.4433 170.361 29.062C171.344 28.666 172.422 28.468 173.595 28.468C174.754 28.468 175.825 28.666 176.807 29.062C177.79 29.4433 178.641 29.986 179.359 30.69C180.093 31.394 180.657 32.2227 181.053 33.176C181.464 34.1293 181.669 35.1707 181.669 36.3C181.669 37.4293 181.464 38.4707 181.053 39.424C180.657 40.3773 180.093 41.206 179.359 41.91C178.641 42.614 177.79 43.164 176.807 43.56C175.825 43.9413 174.754 44.132 173.595 44.132ZM173.595 42.68C174.519 42.68 175.37 42.526 176.147 42.218C176.939 41.8953 177.621 41.448 178.193 40.876C178.78 40.2893 179.235 39.6147 179.557 38.852C179.88 38.0747 180.041 37.224 180.041 36.3C180.041 35.376 179.88 34.5327 179.557 33.77C179.235 32.9927 178.78 32.318 178.193 31.746C177.621 31.1593 176.939 30.712 176.147 30.404C175.37 30.0813 174.519 29.92 173.595 29.92C172.671 29.92 171.813 30.0813 171.021 30.404C170.229 30.712 169.54 31.1593 168.953 31.746C168.381 32.318 167.927 32.9927 167.589 33.77C167.267 34.5327 167.105 35.376 167.105 36.3C167.105 37.2093 167.267 38.0527 167.589 38.83C167.927 39.6073 168.381 40.2893 168.953 40.876C169.54 41.448 170.229 41.8953 171.021 42.218C171.813 42.526 172.671 42.68 173.595 42.68ZM189.763 44.11C188.78 44.11 187.922 43.9267 187.189 43.56C186.455 43.1933 185.883 42.6433 185.473 41.91C185.077 41.1767 184.879 40.26 184.879 39.16V32.45H186.441V38.984C186.441 40.216 186.741 41.1473 187.343 41.778C187.959 42.394 188.817 42.702 189.917 42.702C190.723 42.702 191.42 42.5407 192.007 42.218C192.608 41.8807 193.063 41.3967 193.371 40.766C193.693 40.1353 193.855 39.38 193.855 38.5V32.45H195.417V44H193.921V40.832L194.163 41.404C193.796 42.2547 193.224 42.922 192.447 43.406C191.684 43.8753 190.789 44.11 189.763 44.11ZM199.77 44V32.45H201.266V35.596L201.112 35.046C201.434 34.166 201.977 33.4987 202.74 33.044C203.502 32.5747 204.448 32.34 205.578 32.34V33.858C205.519 33.858 205.46 33.858 205.402 33.858C205.343 33.8433 205.284 33.836 205.226 33.836C204.008 33.836 203.055 34.21 202.366 34.958C201.676 35.6913 201.332 36.74 201.332 38.104V44H199.77ZM218.01 44.11C216.924 44.11 216.088 43.8167 215.502 43.23C214.915 42.6433 214.622 41.8147 214.622 40.744V29.898H216.184V40.656C216.184 41.3307 216.352 41.8513 216.69 42.218C217.042 42.5847 217.54 42.768 218.186 42.768C218.875 42.768 219.447 42.57 219.902 42.174L220.452 43.296C220.144 43.5747 219.77 43.78 219.33 43.912C218.904 44.044 218.464 44.11 218.01 44.11ZM212.554 33.748V32.45H219.704V33.748H212.554ZM227.793 44.11C226.59 44.11 225.534 43.8607 224.625 43.362C223.716 42.8487 223.004 42.152 222.491 41.272C221.978 40.3773 221.721 39.358 221.721 38.214C221.721 37.07 221.963 36.058 222.447 35.178C222.946 34.298 223.62 33.6087 224.471 33.11C225.336 32.5967 226.304 32.34 227.375 32.34C228.46 32.34 229.421 32.5893 230.257 33.088C231.108 33.572 231.775 34.2613 232.259 35.156C232.743 36.036 232.985 37.0553 232.985 38.214C232.985 38.2873 232.978 38.368 232.963 38.456C232.963 38.5293 232.963 38.61 232.963 38.698H222.909V37.532H232.127L231.511 37.994C231.511 37.158 231.328 36.4173 230.961 35.772C230.609 35.112 230.125 34.5987 229.509 34.232C228.893 33.8653 228.182 33.682 227.375 33.682C226.583 33.682 225.872 33.8653 225.241 34.232C224.61 34.5987 224.119 35.112 223.767 35.772C223.415 36.432 223.239 37.1873 223.239 38.038V38.28C223.239 39.16 223.43 39.9373 223.811 40.612C224.207 41.272 224.75 41.7927 225.439 42.174C226.143 42.5407 226.942 42.724 227.837 42.724C228.541 42.724 229.194 42.5993 229.795 42.35C230.411 42.1007 230.939 41.7193 231.379 41.206L232.259 42.218C231.746 42.834 231.1 43.3033 230.323 43.626C229.56 43.9487 228.717 44.11 227.793 44.11ZM243.08 44V41.448L243.014 41.03V36.762C243.014 35.7793 242.735 35.024 242.178 34.496C241.635 33.968 240.821 33.704 239.736 33.704C238.988 33.704 238.277 33.8287 237.602 34.078C236.927 34.3273 236.355 34.6573 235.886 35.068L235.182 33.902C235.769 33.4033 236.473 33.022 237.294 32.758C238.115 32.4793 238.981 32.34 239.89 32.34C241.386 32.34 242.537 32.714 243.344 33.462C244.165 34.1953 244.576 35.3173 244.576 36.828V44H243.08ZM239.098 44.11C238.233 44.11 237.477 43.9707 236.832 43.692C236.201 43.3987 235.717 43.0027 235.38 42.504C235.043 41.9907 234.874 41.404 234.874 40.744C234.874 40.1427 235.013 39.6 235.292 39.116C235.585 38.6173 236.055 38.2213 236.7 37.928C237.36 37.62 238.24 37.466 239.34 37.466H243.322V38.632H239.384C238.269 38.632 237.492 38.83 237.052 39.226C236.627 39.622 236.414 40.1133 236.414 40.7C236.414 41.36 236.671 41.888 237.184 42.284C237.697 42.68 238.416 42.878 239.34 42.878C240.22 42.878 240.975 42.68 241.606 42.284C242.251 41.8733 242.721 41.2867 243.014 40.524L243.366 41.602C243.073 42.3647 242.559 42.9733 241.826 43.428C241.107 43.8827 240.198 44.11 239.098 44.11ZM263.251 32.34C264.189 32.34 265.003 32.5233 265.693 32.89C266.397 33.242 266.939 33.7847 267.321 34.518C267.717 35.2513 267.915 36.1753 267.915 37.29V44H266.353V37.444C266.353 36.2267 266.059 35.31 265.473 34.694C264.901 34.0633 264.087 33.748 263.031 33.748C262.239 33.748 261.549 33.9167 260.963 34.254C260.391 34.5767 259.943 35.0533 259.621 35.684C259.313 36.3 259.159 37.048 259.159 37.928V44H257.597V37.444C257.597 36.2267 257.303 35.31 256.717 34.694C256.13 34.0633 255.309 33.748 254.253 33.748C253.475 33.748 252.793 33.9167 252.207 34.254C251.62 34.5767 251.165 35.0533 250.843 35.684C250.535 36.3 250.381 37.048 250.381 37.928V44H248.819V32.45H250.315V35.574L250.073 35.024C250.425 34.188 250.989 33.5353 251.767 33.066C252.559 32.582 253.49 32.34 254.561 32.34C255.69 32.34 256.651 32.626 257.443 33.198C258.235 33.7553 258.748 34.5987 258.983 35.728L258.367 35.486C258.704 34.5473 259.298 33.792 260.149 33.22C261.014 32.6333 262.048 32.34 263.251 32.34ZM277.908 44V32.45H279.47V44H277.908ZM278.7 29.898C278.378 29.898 278.106 29.788 277.886 29.568C277.666 29.348 277.556 29.084 277.556 28.776C277.556 28.468 277.666 28.2113 277.886 28.006C278.106 27.786 278.378 27.676 278.7 27.676C279.023 27.676 279.294 27.7787 279.514 27.984C279.734 28.1893 279.844 28.446 279.844 28.754C279.844 29.0767 279.734 29.348 279.514 29.568C279.309 29.788 279.038 29.898 278.7 29.898ZM286.919 44.11C285.965 44.11 285.063 43.978 284.213 43.714C283.362 43.4353 282.695 43.0907 282.211 42.68L282.915 41.448C283.384 41.8 283.985 42.108 284.719 42.372C285.452 42.6213 286.222 42.746 287.029 42.746C288.129 42.746 288.921 42.5773 289.405 42.24C289.889 41.888 290.131 41.426 290.131 40.854C290.131 40.4287 289.991 40.0987 289.713 39.864C289.449 39.6147 289.097 39.4313 288.657 39.314C288.217 39.182 287.725 39.072 287.183 38.984C286.64 38.896 286.097 38.7933 285.555 38.676C285.027 38.5587 284.543 38.39 284.103 38.17C283.663 37.9353 283.303 37.62 283.025 37.224C282.761 36.828 282.629 36.3 282.629 35.64C282.629 35.0093 282.805 34.4447 283.157 33.946C283.509 33.4473 284.022 33.0587 284.697 32.78C285.386 32.4867 286.222 32.34 287.205 32.34C287.953 32.34 288.701 32.4427 289.449 32.648C290.197 32.8387 290.813 33.0953 291.297 33.418L290.615 34.672C290.101 34.32 289.551 34.0707 288.965 33.924C288.378 33.7627 287.791 33.682 287.205 33.682C286.163 33.682 285.393 33.8653 284.895 34.232C284.411 34.584 284.169 35.0387 284.169 35.596C284.169 36.036 284.301 36.3807 284.565 36.63C284.843 36.8793 285.203 37.0773 285.643 37.224C286.097 37.356 286.589 37.466 287.117 37.554C287.659 37.642 288.195 37.752 288.723 37.884C289.265 38.0013 289.757 38.17 290.197 38.39C290.651 38.5953 291.011 38.896 291.275 39.292C291.553 39.6733 291.693 40.1793 291.693 40.81C291.693 41.4847 291.502 42.0713 291.121 42.57C290.754 43.054 290.211 43.4353 289.493 43.714C288.789 43.978 287.931 44.11 286.919 44.11ZM303.419 44.11C302.465 44.11 301.563 43.978 300.713 43.714C299.862 43.4353 299.195 43.0907 298.711 42.68L299.415 41.448C299.884 41.8 300.485 42.108 301.219 42.372C301.952 42.6213 302.722 42.746 303.529 42.746C304.629 42.746 305.421 42.5773 305.905 42.24C306.389 41.888 306.631 41.426 306.631 40.854C306.631 40.4287 306.491 40.0987 306.213 39.864C305.949 39.6147 305.597 39.4313 305.157 39.314C304.717 39.182 304.225 39.072 303.683 38.984C303.14 38.896 302.597 38.7933 302.055 38.676C301.527 38.5587 301.043 38.39 300.603 38.17C300.163 37.9353 299.803 37.62 299.525 37.224C299.261 36.828 299.129 36.3 299.129 35.64C299.129 35.0093 299.305 34.4447 299.657 33.946C300.009 33.4473 300.522 33.0587 301.197 32.78C301.886 32.4867 302.722 32.34 303.705 32.34C304.453 32.34 305.201 32.4427 305.949 32.648C306.697 32.8387 307.313 33.0953 307.797 33.418L307.115 34.672C306.601 34.32 306.051 34.0707 305.465 33.924C304.878 33.7627 304.291 33.682 303.705 33.682C302.663 33.682 301.893 33.8653 301.395 34.232C300.911 34.584 300.669 35.0387 300.669 35.596C300.669 36.036 300.801 36.3807 301.065 36.63C301.343 36.8793 301.703 37.0773 302.143 37.224C302.597 37.356 303.089 37.466 303.617 37.554C304.159 37.642 304.695 37.752 305.223 37.884C305.765 38.0013 306.257 38.17 306.697 38.39C307.151 38.5953 307.511 38.896 307.775 39.292C308.053 39.6733 308.193 40.1793 308.193 40.81C308.193 41.4847 308.002 42.0713 307.621 42.57C307.254 43.054 306.711 43.4353 305.993 43.714C305.289 43.978 304.431 44.11 303.419 44.11ZM314.711 44.11C313.626 44.11 312.79 43.8167 312.203 43.23C311.616 42.6433 311.323 41.8147 311.323 40.744V29.898H312.885V40.656C312.885 41.3307 313.054 41.8513 313.391 42.218C313.743 42.5847 314.242 42.768 314.887 42.768C315.576 42.768 316.148 42.57 316.603 42.174L317.153 43.296C316.845 43.5747 316.471 43.78 316.031 43.912C315.606 44.044 315.166 44.11 314.711 44.11ZM309.255 33.748V32.45H316.405V33.748H309.255ZM327.234 44V41.448L327.168 41.03V36.762C327.168 35.7793 326.89 35.024 326.332 34.496C325.79 33.968 324.976 33.704 323.89 33.704C323.142 33.704 322.431 33.8287 321.756 34.078C321.082 34.3273 320.51 34.6573 320.04 35.068L319.336 33.902C319.923 33.4033 320.627 33.022 321.448 32.758C322.27 32.4793 323.135 32.34 324.044 32.34C325.54 32.34 326.692 32.714 327.498 33.462C328.32 34.1953 328.73 35.3173 328.73 36.828V44H327.234ZM323.252 44.11C322.387 44.11 321.632 43.9707 320.986 43.692C320.356 43.3987 319.872 43.0027 319.534 42.504C319.197 41.9907 319.028 41.404 319.028 40.744C319.028 40.1427 319.168 39.6 319.446 39.116C319.74 38.6173 320.209 38.2213 320.854 37.928C321.514 37.62 322.394 37.466 323.494 37.466H327.476V38.632H323.538C322.424 38.632 321.646 38.83 321.206 39.226C320.781 39.622 320.568 40.1133 320.568 40.7C320.568 41.36 320.825 41.888 321.338 42.284C321.852 42.68 322.57 42.878 323.494 42.878C324.374 42.878 325.13 42.68 325.76 42.284C326.406 41.8733 326.875 41.2867 327.168 40.524L327.52 41.602C327.227 42.3647 326.714 42.9733 325.98 43.428C325.262 43.8827 324.352 44.11 323.252 44.11ZM338.869 32.34C339.808 32.34 340.629 32.5233 341.333 32.89C342.052 33.242 342.609 33.7847 343.005 34.518C343.416 35.2513 343.621 36.1753 343.621 37.29V44H342.059V37.444C342.059 36.2267 341.751 35.31 341.135 34.694C340.534 34.0633 339.683 33.748 338.583 33.748C337.762 33.748 337.043 33.9167 336.427 34.254C335.826 34.5767 335.356 35.0533 335.019 35.684C334.696 36.3 334.535 37.048 334.535 37.928V44H332.973V32.45H334.469V35.618L334.227 35.024C334.594 34.188 335.18 33.5353 335.987 33.066C336.794 32.582 337.754 32.34 338.869 32.34ZM352.438 44.11C351.338 44.11 350.348 43.8607 349.468 43.362C348.603 42.8633 347.921 42.174 347.422 41.294C346.923 40.3993 346.674 39.3727 346.674 38.214C346.674 37.0407 346.923 36.014 347.422 35.134C347.921 34.254 348.603 33.572 349.468 33.088C350.348 32.5893 351.338 32.34 352.438 32.34C353.45 32.34 354.352 32.5673 355.144 33.022C355.951 33.4767 356.589 34.144 357.058 35.024C357.542 35.8893 357.784 36.9527 357.784 38.214C357.784 39.4607 357.549 40.524 357.08 41.404C356.611 42.284 355.973 42.9587 355.166 43.428C354.374 43.8827 353.465 44.11 352.438 44.11ZM352.548 42.724C353.369 42.724 354.103 42.5407 354.748 42.174C355.408 41.7927 355.921 41.2647 356.288 40.59C356.669 39.9007 356.86 39.1087 356.86 38.214C356.86 37.3047 356.669 36.5127 356.288 35.838C355.921 35.1633 355.408 34.6427 354.748 34.276C354.103 33.8947 353.369 33.704 352.548 33.704C351.741 33.704 351.015 33.8947 350.37 34.276C349.725 34.6427 349.211 35.1633 348.83 35.838C348.449 36.5127 348.258 37.3047 348.258 38.214C348.258 39.1087 348.449 39.9007 348.83 40.59C349.211 41.2647 349.725 41.7927 350.37 42.174C351.015 42.5407 351.741 42.724 352.548 42.724ZM356.904 44V40.524L357.058 38.192L356.838 35.86V27.676H358.4V44H356.904ZM362.75 44V32.45H364.312V44H362.75ZM363.542 29.898C363.22 29.898 362.948 29.788 362.728 29.568C362.508 29.348 362.398 29.084 362.398 28.776C362.398 28.468 362.508 28.2113 362.728 28.006C362.948 27.786 363.22 27.676 363.542 27.676C363.865 27.676 364.136 27.7787 364.356 27.984C364.576 28.1893 364.686 28.446 364.686 28.754C364.686 29.0767 364.576 29.348 364.356 29.568C364.151 29.788 363.88 29.898 363.542 29.898ZM374.554 32.34C375.493 32.34 376.314 32.5233 377.018 32.89C377.737 33.242 378.294 33.7847 378.69 34.518C379.101 35.2513 379.306 36.1753 379.306 37.29V44H377.744V37.444C377.744 36.2267 377.436 35.31 376.82 34.694C376.219 34.0633 375.368 33.748 374.268 33.748C373.447 33.748 372.728 33.9167 372.112 34.254C371.511 34.5767 371.042 35.0533 370.704 35.684C370.382 36.3 370.22 37.048 370.22 37.928V44H368.658V32.45H370.154V35.618L369.912 35.024C370.279 34.188 370.866 33.5353 371.672 33.066C372.479 32.582 373.44 32.34 374.554 32.34ZM388.454 48.378C387.398 48.378 386.386 48.224 385.418 47.916C384.45 47.608 383.665 47.168 383.064 46.596L383.856 45.408C384.398 45.892 385.066 46.2733 385.858 46.552C386.664 46.8453 387.515 46.992 388.41 46.992C389.876 46.992 390.954 46.6473 391.644 45.958C392.333 45.2833 392.678 44.2273 392.678 42.79V39.908L392.898 37.928L392.744 35.948V32.45H394.24V42.592C394.24 44.5867 393.748 46.046 392.766 46.97C391.798 47.9087 390.36 48.378 388.454 48.378ZM388.168 43.56C387.068 43.56 386.078 43.3253 385.198 42.856C384.318 42.372 383.621 41.7047 383.108 40.854C382.609 40.0033 382.36 39.028 382.36 37.928C382.36 36.828 382.609 35.86 383.108 35.024C383.621 34.1733 384.318 33.5133 385.198 33.044C386.078 32.5747 387.068 32.34 388.168 32.34C389.194 32.34 390.118 32.5527 390.94 32.978C391.761 33.4033 392.414 34.034 392.898 34.87C393.382 35.706 393.624 36.7253 393.624 37.928C393.624 39.1307 393.382 40.15 392.898 40.986C392.414 41.822 391.761 42.46 390.94 42.9C390.118 43.34 389.194 43.56 388.168 43.56ZM388.322 42.174C389.172 42.174 389.928 41.998 390.588 41.646C391.248 41.2793 391.768 40.7807 392.15 40.15C392.531 39.5047 392.722 38.764 392.722 37.928C392.722 37.092 392.531 36.3587 392.15 35.728C391.768 35.0973 391.248 34.606 390.588 34.254C389.928 33.8873 389.172 33.704 388.322 33.704C387.486 33.704 386.73 33.8873 386.056 34.254C385.396 34.606 384.875 35.0973 384.494 35.728C384.127 36.3587 383.944 37.092 383.944 37.928C383.944 38.764 384.127 39.5047 384.494 40.15C384.875 40.7807 385.396 41.2793 386.056 41.646C386.73 41.998 387.486 42.174 388.322 42.174ZM410.306 44.11C409.294 44.11 408.385 43.8827 407.578 43.428C406.771 42.9587 406.133 42.284 405.664 41.404C405.195 40.524 404.96 39.4607 404.96 38.214C404.96 36.9527 405.195 35.8893 405.664 35.024C406.148 34.144 406.793 33.4767 407.6 33.022C408.407 32.5673 409.309 32.34 410.306 32.34C411.406 32.34 412.389 32.5893 413.254 33.088C414.134 33.572 414.823 34.254 415.322 35.134C415.821 36.014 416.07 37.0407 416.07 38.214C416.07 39.3727 415.821 40.3993 415.322 41.294C414.823 42.174 414.134 42.8633 413.254 43.362C412.389 43.8607 411.406 44.11 410.306 44.11ZM404.344 44V27.676H405.906V35.86L405.686 38.192L405.84 40.524V44H404.344ZM410.196 42.724C411.017 42.724 411.751 42.5407 412.396 42.174C413.041 41.7927 413.555 41.2647 413.936 40.59C414.317 39.9007 414.508 39.1087 414.508 38.214C414.508 37.3047 414.317 36.5127 413.936 35.838C413.555 35.1633 413.041 34.6427 412.396 34.276C411.751 33.8947 411.017 33.704 410.196 33.704C409.375 33.704 408.634 33.8947 407.974 34.276C407.329 34.6427 406.815 35.1633 406.434 35.838C406.067 36.5127 405.884 37.3047 405.884 38.214C405.884 39.1087 406.067 39.9007 406.434 40.59C406.815 41.2647 407.329 41.7927 407.974 42.174C408.634 42.5407 409.375 42.724 410.196 42.724ZM419.02 48.378C418.477 48.378 417.957 48.29 417.458 48.114C416.974 47.938 416.556 47.674 416.204 47.322L416.93 46.156C417.223 46.4347 417.539 46.6473 417.876 46.794C418.228 46.9553 418.617 47.036 419.042 47.036C419.555 47.036 419.995 46.8893 420.362 46.596C420.743 46.3173 421.103 45.8187 421.44 45.1L422.188 43.406L422.364 43.164L427.116 32.45H428.656L422.87 45.386C422.547 46.134 422.188 46.728 421.792 47.168C421.411 47.608 420.993 47.916 420.538 48.092C420.083 48.2827 419.577 48.378 419.02 48.378ZM422.1 44.33L416.776 32.45H418.404L423.112 43.054L422.1 44.33ZM440.266 44.11C439.18 44.11 438.344 43.8167 437.758 43.23C437.171 42.6433 436.878 41.8147 436.878 40.744V29.898H438.44V40.656C438.44 41.3307 438.608 41.8513 438.946 42.218C439.298 42.5847 439.796 42.768 440.442 42.768C441.131 42.768 441.703 42.57 442.158 42.174L442.708 43.296C442.4 43.5747 442.026 43.78 441.586 43.912C441.16 44.044 440.72 44.11 440.266 44.11ZM434.81 33.748V32.45H441.96V33.748H434.81ZM449.851 44.11C448.736 44.11 447.732 43.8607 446.837 43.362C445.957 42.8487 445.26 42.152 444.747 41.272C444.234 40.3773 443.977 39.358 443.977 38.214C443.977 37.0553 444.234 36.036 444.747 35.156C445.26 34.276 445.957 33.5867 446.837 33.088C447.717 32.5893 448.722 32.34 449.851 32.34C450.995 32.34 452.007 32.5893 452.887 33.088C453.782 33.5867 454.478 34.276 454.977 35.156C455.49 36.036 455.747 37.0553 455.747 38.214C455.747 39.358 455.49 40.3773 454.977 41.272C454.478 42.152 453.782 42.8487 452.887 43.362C451.992 43.8607 450.98 44.11 449.851 44.11ZM449.851 42.724C450.687 42.724 451.428 42.5407 452.073 42.174C452.718 41.7927 453.224 41.2647 453.591 40.59C453.972 39.9007 454.163 39.1087 454.163 38.214C454.163 37.3047 453.972 36.5127 453.591 35.838C453.224 35.1633 452.718 34.6427 452.073 34.276C451.428 33.8947 450.694 33.704 449.873 33.704C449.052 33.704 448.318 33.8947 447.673 34.276C447.028 34.6427 446.514 35.1633 446.133 35.838C445.752 36.5127 445.561 37.3047 445.561 38.214C445.561 39.1087 445.752 39.9007 446.133 40.59C446.514 41.2647 447.028 41.7927 447.673 42.174C448.318 42.5407 449.044 42.724 449.851 42.724ZM470.59 32.34C471.528 32.34 472.35 32.5233 473.054 32.89C473.772 33.242 474.33 33.7847 474.726 34.518C475.136 35.2513 475.342 36.1753 475.342 37.29V44H473.78V37.444C473.78 36.2267 473.472 35.31 472.856 34.694C472.254 34.0633 471.404 33.748 470.304 33.748C469.482 33.748 468.764 33.9167 468.148 34.254C467.546 34.5767 467.077 35.0533 466.74 35.684C466.417 36.3 466.256 37.048 466.256 37.928V44H464.694V27.676H466.256V35.618L465.948 35.024C466.314 34.188 466.901 33.5353 467.708 33.066C468.514 32.582 469.475 32.34 470.59 32.34ZM484.467 44.11C483.264 44.11 482.208 43.8607 481.299 43.362C480.389 42.8487 479.678 42.152 479.165 41.272C478.651 40.3773 478.395 39.358 478.395 38.214C478.395 37.07 478.637 36.058 479.121 35.178C479.619 34.298 480.294 33.6087 481.145 33.11C482.01 32.5967 482.978 32.34 484.049 32.34C485.134 32.34 486.095 32.5893 486.931 33.088C487.781 33.572 488.449 34.2613 488.933 35.156C489.417 36.036 489.659 37.0553 489.659 38.214C489.659 38.2873 489.651 38.368 489.637 38.456C489.637 38.5293 489.637 38.61 489.637 38.698H479.583V37.532H488.801L488.185 37.994C488.185 37.158 488.001 36.4173 487.635 35.772C487.283 35.112 486.799 34.5987 486.183 34.232C485.567 33.8653 484.855 33.682 484.049 33.682C483.257 33.682 482.545 33.8653 481.915 34.232C481.284 34.5987 480.793 35.112 480.441 35.772C480.089 36.432 479.913 37.1873 479.913 38.038V38.28C479.913 39.16 480.103 39.9373 480.485 40.612C480.881 41.272 481.423 41.7927 482.113 42.174C482.817 42.5407 483.616 42.724 484.511 42.724C485.215 42.724 485.867 42.5993 486.469 42.35C487.085 42.1007 487.613 41.7193 488.053 41.206L488.933 42.218C488.419 42.834 487.774 43.3033 486.997 43.626C486.234 43.9487 485.391 44.11 484.467 44.11ZM492.838 44V27.676H494.4V44H492.838ZM504.708 44.11C503.711 44.11 502.809 43.8827 502.002 43.428C501.196 42.9587 500.55 42.2913 500.066 41.426C499.597 40.546 499.362 39.4753 499.362 38.214C499.362 36.9527 499.597 35.8893 500.066 35.024C500.536 34.144 501.174 33.4767 501.98 33.022C502.787 32.5673 503.696 32.34 504.708 32.34C505.808 32.34 506.791 32.5893 507.656 33.088C508.536 33.572 509.226 34.2613 509.724 35.156C510.223 36.036 510.472 37.0553 510.472 38.214C510.472 39.3873 510.223 40.414 509.724 41.294C509.226 42.174 508.536 42.8633 507.656 43.362C506.791 43.8607 505.808 44.11 504.708 44.11ZM498.746 48.268V32.45H500.242V35.926L500.088 38.236L500.308 40.568V48.268H498.746ZM504.598 42.724C505.42 42.724 506.153 42.5407 506.798 42.174C507.444 41.7927 507.957 41.2647 508.338 40.59C508.72 39.9007 508.91 39.1087 508.91 38.214C508.91 37.3193 508.72 36.5347 508.338 35.86C507.957 35.1853 507.444 34.6573 506.798 34.276C506.153 33.8947 505.42 33.704 504.598 33.704C503.777 33.704 503.036 33.8947 502.376 34.276C501.731 34.6573 501.218 35.1853 500.836 35.86C500.47 36.5347 500.286 37.3193 500.286 38.214C500.286 39.1087 500.47 39.9007 500.836 40.59C501.218 41.2647 501.731 41.7927 502.376 42.174C503.036 42.5407 503.777 42.724 504.598 42.724ZM513.488 44.11C513.166 44.11 512.887 43.9927 512.652 43.758C512.432 43.5233 512.322 43.2373 512.322 42.9C512.322 42.548 512.432 42.262 512.652 42.042C512.887 41.822 513.166 41.712 513.488 41.712C513.811 41.712 514.082 41.822 514.302 42.042C514.537 42.262 514.654 42.548 514.654 42.9C514.654 43.2373 514.537 43.5233 514.302 43.758C514.082 43.9927 513.811 44.11 513.488 44.11Z" fill="white"/>
</svg>
