<svg width="737" height="262" viewBox="0 0 737 262" fill="none" xmlns="http://www.w3.org/2000/svg">
<g filter="url(#filter0_d_196_242)">
<path d="M57.92 54V15.5H65.29L81.68 42.67H77.775L93.89 15.5H101.205L101.315 54H92.955L92.9 28.315H94.44L81.57 49.93H77.555L64.41 28.315H66.28V54H57.92ZM109.844 54V24.41H118.424V54H109.844ZM114.134 20.285C112.558 20.285 111.274 19.8267 110.284 18.91C109.294 17.9933 108.799 16.8567 108.799 15.5C108.799 14.1433 109.294 13.0067 110.284 12.09C111.274 11.1733 112.558 10.715 114.134 10.715C115.711 10.715 116.994 11.155 117.984 12.035C118.974 12.8783 119.469 13.9783 119.469 15.335C119.469 16.765 118.974 17.9567 117.984 18.91C117.031 19.8267 115.748 20.285 114.134 20.285ZM126.387 54V13.19H134.967V54H126.387ZM142.93 54V13.19H151.51V54H142.93ZM159.473 54V24.41H168.053V54H159.473ZM163.763 20.285C162.187 20.285 160.903 19.8267 159.913 18.91C158.923 17.9933 158.428 16.8567 158.428 15.5C158.428 14.1433 158.923 13.0067 159.913 12.09C160.903 11.1733 162.187 10.715 163.763 10.715C165.34 10.715 166.623 11.155 167.613 12.035C168.603 12.8783 169.098 13.9783 169.098 15.335C169.098 16.765 168.603 17.9567 167.613 18.91C166.66 19.8267 165.377 20.285 163.763 20.285ZM190.096 54.44C186.943 54.44 184.138 53.78 181.681 52.46C179.261 51.14 177.336 49.3433 175.906 47.07C174.513 44.76 173.816 42.1383 173.816 39.205C173.816 36.235 174.513 33.6133 175.906 31.34C177.336 29.03 179.261 27.2333 181.681 25.95C184.138 24.63 186.943 23.97 190.096 23.97C193.213 23.97 195.999 24.63 198.456 25.95C200.913 27.2333 202.838 29.0117 204.231 31.285C205.624 33.5583 206.321 36.1983 206.321 39.205C206.321 42.1383 205.624 44.76 204.231 47.07C202.838 49.3433 200.913 51.14 198.456 52.46C195.999 53.78 193.213 54.44 190.096 54.44ZM190.096 47.4C191.526 47.4 192.809 47.07 193.946 46.41C195.083 45.75 195.981 44.815 196.641 43.605C197.301 42.3583 197.631 40.8917 197.631 39.205C197.631 37.4817 197.301 36.015 196.641 34.805C195.981 33.595 195.083 32.66 193.946 32C192.809 31.34 191.526 31.01 190.096 31.01C188.666 31.01 187.383 31.34 186.246 32C185.109 32.66 184.193 33.595 183.496 34.805C182.836 36.015 182.506 37.4817 182.506 39.205C182.506 40.8917 182.836 42.3583 183.496 43.605C184.193 44.815 185.109 45.75 186.246 46.41C187.383 47.07 188.666 47.4 190.096 47.4ZM230.041 23.97C232.388 23.97 234.478 24.4467 236.311 25.4C238.181 26.3167 239.648 27.7467 240.711 29.69C241.775 31.5967 242.306 34.0533 242.306 37.06V54H233.726V38.38C233.726 35.9967 233.195 34.2367 232.131 33.1C231.105 31.9633 229.638 31.395 227.731 31.395C226.375 31.395 225.146 31.6883 224.046 32.275C222.983 32.825 222.14 33.6867 221.516 34.86C220.93 36.0333 220.636 37.5367 220.636 39.37V54H212.056V24.41H220.251V32.605L218.711 30.13C219.775 28.15 221.296 26.6283 223.276 25.565C225.256 24.5017 227.511 23.97 230.041 23.97ZM260.039 54.44C257.509 54.44 255.07 54.1467 252.724 53.56C250.414 52.9367 248.58 52.1667 247.224 51.25L250.084 45.09C251.44 45.9333 253.035 46.63 254.869 47.18C256.739 47.6933 258.572 47.95 260.369 47.95C262.349 47.95 263.742 47.7117 264.549 47.235C265.392 46.7583 265.814 46.0983 265.814 45.255C265.814 44.5583 265.484 44.045 264.824 43.715C264.2 43.3483 263.357 43.0733 262.294 42.89C261.23 42.7067 260.057 42.5233 258.774 42.34C257.527 42.1567 256.262 41.9183 254.979 41.625C253.695 41.295 252.522 40.8183 251.459 40.195C250.395 39.5717 249.534 38.7283 248.874 37.665C248.25 36.6017 247.939 35.2267 247.939 33.54C247.939 31.67 248.47 30.02 249.534 28.59C250.634 27.16 252.21 26.0417 254.264 25.235C256.317 24.3917 258.774 23.97 261.634 23.97C263.65 23.97 265.704 24.19 267.794 24.63C269.884 25.07 271.625 25.7117 273.019 26.555L270.159 32.66C268.729 31.8167 267.28 31.2483 265.814 30.955C264.384 30.625 262.99 30.46 261.634 30.46C259.727 30.46 258.334 30.7167 257.454 31.23C256.574 31.7433 256.134 32.4033 256.134 33.21C256.134 33.9433 256.445 34.4933 257.069 34.86C257.729 35.2267 258.59 35.52 259.654 35.74C260.717 35.96 261.872 36.1617 263.119 36.345C264.402 36.4917 265.685 36.73 266.969 37.06C268.252 37.39 269.407 37.8667 270.434 38.49C271.497 39.0767 272.359 39.9017 273.019 40.965C273.679 41.9917 274.009 43.3483 274.009 45.035C274.009 46.8683 273.459 48.5 272.359 49.93C271.259 51.3233 269.664 52.4233 267.574 53.23C265.52 54.0367 263.009 54.44 260.039 54.44ZM308.958 54.44C305.805 54.44 303 53.78 300.543 52.46C298.123 51.14 296.198 49.3433 294.768 47.07C293.375 44.76 292.678 42.1383 292.678 39.205C292.678 36.235 293.375 33.6133 294.768 31.34C296.198 29.03 298.123 27.2333 300.543 25.95C303 24.63 305.805 23.97 308.958 23.97C312.075 23.97 314.862 24.63 317.318 25.95C319.775 27.2333 321.7 29.0117 323.093 31.285C324.487 33.5583 325.183 36.1983 325.183 39.205C325.183 42.1383 324.487 44.76 323.093 47.07C321.7 49.3433 319.775 51.14 317.318 52.46C314.862 53.78 312.075 54.44 308.958 54.44ZM308.958 47.4C310.388 47.4 311.672 47.07 312.808 46.41C313.945 45.75 314.843 44.815 315.503 43.605C316.163 42.3583 316.493 40.8917 316.493 39.205C316.493 37.4817 316.163 36.015 315.503 34.805C314.843 33.595 313.945 32.66 312.808 32C311.672 31.34 310.388 31.01 308.958 31.01C307.528 31.01 306.245 31.34 305.108 32C303.972 32.66 303.055 33.595 302.358 34.805C301.698 36.015 301.368 37.4817 301.368 39.205C301.368 40.8917 301.698 42.3583 302.358 43.605C303.055 44.815 303.972 45.75 305.108 46.41C306.245 47.07 307.528 47.4 308.958 47.4ZM331.963 54V23.75C331.963 20.4133 332.953 17.755 334.933 15.775C336.913 13.7583 339.737 12.75 343.403 12.75C344.65 12.75 345.842 12.8783 346.978 13.135C348.152 13.3917 349.142 13.795 349.948 14.345L347.693 20.56C347.217 20.23 346.685 19.9733 346.098 19.79C345.512 19.6067 344.888 19.515 344.228 19.515C342.982 19.515 342.01 19.8817 341.313 20.615C340.653 21.3117 340.323 22.375 340.323 23.805V26.555L340.543 30.24V54H331.963ZM327.398 31.67V25.07H347.913V31.67H327.398ZM13.9576 122V83.5H21.3276L37.7176 110.67H33.8126L49.9276 83.5H57.2426L57.3526 122H48.9926L48.9376 96.315H50.4776L37.6076 117.93H33.5926L20.4476 96.315H22.3176V122H13.9576ZM84.0319 122V116.225L83.4819 114.96V104.62C83.4819 102.787 82.9135 101.357 81.7769 100.33C80.6769 99.3033 78.9719 98.79 76.6619 98.79C75.0852 98.79 73.5269 99.0467 71.9869 99.56C70.4835 100.037 69.2002 100.697 68.1369 101.54L65.0569 95.545C66.6702 94.4083 68.6135 93.5283 70.8869 92.905C73.1602 92.2817 75.4702 91.97 77.8169 91.97C82.3269 91.97 85.8285 93.0333 88.3219 95.16C90.8152 97.2867 92.0619 100.605 92.0619 105.115V122H84.0319ZM75.0119 122.44C72.7019 122.44 70.7219 122.055 69.0719 121.285C67.4219 120.478 66.1569 119.397 65.2769 118.04C64.3969 116.683 63.9569 115.162 63.9569 113.475C63.9569 111.715 64.3785 110.175 65.2219 108.855C66.1019 107.535 67.4769 106.508 69.3469 105.775C71.2169 105.005 73.6552 104.62 76.6619 104.62H84.5269V109.625H77.5969C75.5802 109.625 74.1869 109.955 73.4169 110.615C72.6835 111.275 72.3169 112.1 72.3169 113.09C72.3169 114.19 72.7385 115.07 73.5819 115.73C74.4619 116.353 75.6535 116.665 77.1569 116.665C78.5869 116.665 79.8702 116.335 81.0069 115.675C82.1435 114.978 82.9685 113.97 83.4819 112.65L84.8019 116.61C84.1785 118.517 83.0419 119.965 81.3919 120.955C79.7419 121.945 77.6152 122.44 75.0119 122.44ZM111.927 122.44C108.444 122.44 105.731 121.56 103.787 119.8C101.844 118.003 100.872 115.345 100.872 111.825V85.865H109.452V111.715C109.452 112.962 109.782 113.933 110.442 114.63C111.102 115.29 112.001 115.62 113.137 115.62C114.494 115.62 115.649 115.253 116.602 114.52L118.912 120.57C118.032 121.193 116.969 121.67 115.722 122C114.512 122.293 113.247 122.44 111.927 122.44ZM96.3072 99.67V93.07H116.822V99.67H96.3072ZM137.115 122.44C133.925 122.44 131.084 121.798 128.59 120.515C126.097 119.195 124.135 117.38 122.705 115.07C121.312 112.76 120.615 110.138 120.615 107.205C120.615 104.235 121.312 101.613 122.705 99.34C124.135 97.03 126.097 95.2333 128.59 93.95C131.084 92.63 133.925 91.97 137.115 91.97C140.232 91.97 142.945 92.63 145.255 93.95C147.565 95.2333 149.27 97.085 150.37 99.505L143.715 103.08C142.945 101.687 141.974 100.66 140.8 100C139.664 99.34 138.417 99.01 137.06 99.01C135.594 99.01 134.274 99.34 133.1 100C131.927 100.66 130.992 101.595 130.295 102.805C129.635 104.015 129.305 105.482 129.305 107.205C129.305 108.928 129.635 110.395 130.295 111.605C130.992 112.815 131.927 113.75 133.1 114.41C134.274 115.07 135.594 115.4 137.06 115.4C138.417 115.4 139.664 115.088 140.8 114.465C141.974 113.805 142.945 112.76 143.715 111.33L150.37 114.96C149.27 117.343 147.565 119.195 145.255 120.515C142.945 121.798 140.232 122.44 137.115 122.44ZM173.134 91.97C175.481 91.97 177.571 92.4467 179.404 93.4C181.274 94.3167 182.741 95.7467 183.804 97.69C184.868 99.5967 185.399 102.053 185.399 105.06V122H176.819V106.38C176.819 103.997 176.288 102.237 175.224 101.1C174.198 99.9633 172.731 99.395 170.824 99.395C169.468 99.395 168.239 99.6883 167.139 100.275C166.076 100.825 165.233 101.687 164.609 102.86C164.023 104.033 163.729 105.537 163.729 107.37V122H155.149V81.19H163.729V100.605L161.804 98.13C162.868 96.15 164.389 94.6283 166.369 93.565C168.349 92.5017 170.604 91.97 173.134 91.97ZM208.077 122.44C204.703 122.44 201.733 121.78 199.167 120.46C196.637 119.14 194.675 117.343 193.282 115.07C191.888 112.76 191.192 110.138 191.192 107.205C191.192 104.235 191.87 101.613 193.227 99.34C194.62 97.03 196.508 95.2333 198.892 93.95C201.275 92.63 203.97 91.97 206.977 91.97C209.873 91.97 212.477 92.5933 214.787 93.84C217.133 95.05 218.985 96.81 220.342 99.12C221.698 101.393 222.377 104.125 222.377 107.315C222.377 107.645 222.358 108.03 222.322 108.47C222.285 108.873 222.248 109.258 222.212 109.625H198.177V104.62H217.702L214.402 106.105C214.402 104.565 214.09 103.227 213.467 102.09C212.843 100.953 211.982 100.073 210.882 99.45C209.782 98.79 208.498 98.46 207.032 98.46C205.565 98.46 204.263 98.79 203.127 99.45C202.027 100.073 201.165 100.972 200.542 102.145C199.918 103.282 199.607 104.638 199.607 106.215V107.535C199.607 109.148 199.955 110.578 200.652 111.825C201.385 113.035 202.393 113.97 203.677 114.63C204.997 115.253 206.537 115.565 208.297 115.565C209.873 115.565 211.248 115.327 212.422 114.85C213.632 114.373 214.732 113.658 215.722 112.705L220.287 117.655C218.93 119.195 217.225 120.387 215.172 121.23C213.118 122.037 210.753 122.44 208.077 122.44ZM240.794 122.44C238.007 122.44 235.496 121.817 233.259 120.57C231.022 119.287 229.244 117.508 227.924 115.235C226.641 112.962 225.999 110.285 225.999 107.205C225.999 104.088 226.641 101.393 227.924 99.12C229.244 96.8467 231.022 95.0867 233.259 93.84C235.496 92.5933 238.007 91.97 240.794 91.97C243.287 91.97 245.469 92.52 247.339 93.62C249.209 94.72 250.657 96.3883 251.684 98.625C252.711 100.862 253.224 103.722 253.224 107.205C253.224 110.652 252.729 113.512 251.739 115.785C250.749 118.022 249.319 119.69 247.449 120.79C245.616 121.89 243.397 122.44 240.794 122.44ZM242.279 115.4C243.672 115.4 244.937 115.07 246.074 114.41C247.211 113.75 248.109 112.815 248.769 111.605C249.466 110.358 249.814 108.892 249.814 107.205C249.814 105.482 249.466 104.015 248.769 102.805C248.109 101.595 247.211 100.66 246.074 100C244.937 99.34 243.672 99.01 242.279 99.01C240.849 99.01 239.566 99.34 238.429 100C237.292 100.66 236.376 101.595 235.679 102.805C235.019 104.015 234.689 105.482 234.689 107.205C234.689 108.892 235.019 110.358 235.679 111.605C236.376 112.815 237.292 113.75 238.429 114.41C239.566 115.07 240.849 115.4 242.279 115.4ZM250.034 122V115.95L250.199 107.15L249.649 98.405V81.19H258.229V122H250.034ZM293.846 122.44C290.363 122.44 287.649 121.56 285.706 119.8C283.763 118.003 282.791 115.345 282.791 111.825V85.865H291.371V111.715C291.371 112.962 291.701 113.933 292.361 114.63C293.021 115.29 293.919 115.62 295.056 115.62C296.413 115.62 297.568 115.253 298.521 114.52L300.831 120.57C299.951 121.193 298.888 121.67 297.641 122C296.431 122.293 295.166 122.44 293.846 122.44ZM278.226 99.67V93.07H298.741V99.67H278.226ZM318.814 122.44C315.661 122.44 312.856 121.78 310.399 120.46C307.979 119.14 306.054 117.343 304.624 115.07C303.231 112.76 302.534 110.138 302.534 107.205C302.534 104.235 303.231 101.613 304.624 99.34C306.054 97.03 307.979 95.2333 310.399 93.95C312.856 92.63 315.661 91.97 318.814 91.97C321.931 91.97 324.718 92.63 327.174 93.95C329.631 95.2333 331.556 97.0117 332.949 99.285C334.343 101.558 335.039 104.198 335.039 107.205C335.039 110.138 334.343 112.76 332.949 115.07C331.556 117.343 329.631 119.14 327.174 120.46C324.718 121.78 321.931 122.44 318.814 122.44ZM318.814 115.4C320.244 115.4 321.528 115.07 322.664 114.41C323.801 113.75 324.699 112.815 325.359 111.605C326.019 110.358 326.349 108.892 326.349 107.205C326.349 105.482 326.019 104.015 325.359 102.805C324.699 101.595 323.801 100.66 322.664 100C321.528 99.34 320.244 99.01 318.814 99.01C317.384 99.01 316.101 99.34 314.964 100C313.828 100.66 312.911 101.595 312.214 102.805C311.554 104.015 311.224 105.482 311.224 107.205C311.224 108.892 311.554 110.358 312.214 111.605C312.911 112.815 313.828 113.75 314.964 114.41C316.101 115.07 317.384 115.4 318.814 115.4ZM366.526 122V106.27L368.561 111.66L351.621 83.5H361.081L374.061 105.115H368.616L381.651 83.5H390.396L373.456 111.66L375.436 106.27V122H366.526ZM404.322 122.44C401.169 122.44 398.364 121.78 395.907 120.46C393.487 119.14 391.562 117.343 390.132 115.07C388.739 112.76 388.042 110.138 388.042 107.205C388.042 104.235 388.739 101.613 390.132 99.34C391.562 97.03 393.487 95.2333 395.907 93.95C398.364 92.63 401.169 91.97 404.322 91.97C407.439 91.97 410.226 92.63 412.682 93.95C415.139 95.2333 417.064 97.0117 418.457 99.285C419.851 101.558 420.547 104.198 420.547 107.205C420.547 110.138 419.851 112.76 418.457 115.07C417.064 117.343 415.139 119.14 412.682 120.46C410.226 121.78 407.439 122.44 404.322 122.44ZM404.322 115.4C405.752 115.4 407.036 115.07 408.172 114.41C409.309 113.75 410.207 112.815 410.867 111.605C411.527 110.358 411.857 108.892 411.857 107.205C411.857 105.482 411.527 104.015 410.867 102.805C410.207 101.595 409.309 100.66 408.172 100C407.036 99.34 405.752 99.01 404.322 99.01C402.892 99.01 401.609 99.34 400.472 100C399.336 100.66 398.419 101.595 397.722 102.805C397.062 104.015 396.732 105.482 396.732 107.205C396.732 108.892 397.062 110.358 397.722 111.605C398.419 112.815 399.336 113.75 400.472 114.41C401.609 115.07 402.892 115.4 404.322 115.4ZM438.767 122.44C436.311 122.44 434.111 121.963 432.167 121.01C430.261 120.057 428.776 118.608 427.712 116.665C426.649 114.685 426.117 112.173 426.117 109.13V92.41H434.697V107.865C434.697 110.322 435.211 112.137 436.237 113.31C437.301 114.447 438.786 115.015 440.692 115.015C442.012 115.015 443.186 114.74 444.212 114.19C445.239 113.603 446.046 112.723 446.632 111.55C447.219 110.34 447.512 108.837 447.512 107.04V92.41H456.092V122H447.952V113.86L449.437 116.225C448.447 118.278 446.981 119.837 445.037 120.9C443.131 121.927 441.041 122.44 438.767 122.44ZM464.041 122V92.41H472.236V100.77L471.081 98.35C471.961 96.26 473.373 94.6833 475.316 93.62C477.259 92.52 479.624 91.97 482.411 91.97V99.89C482.044 99.8533 481.714 99.835 481.421 99.835C481.128 99.7983 480.816 99.78 480.486 99.78C478.139 99.78 476.233 100.458 474.766 101.815C473.336 103.135 472.621 105.207 472.621 108.03V122H464.041ZM515.459 122L498.849 83.5H508.474L522.994 117.6H517.329L532.069 83.5H540.924L524.259 122H515.459ZM556.016 122.44C552.643 122.44 549.673 121.78 547.106 120.46C544.576 119.14 542.614 117.343 541.221 115.07C539.828 112.76 539.131 110.138 539.131 107.205C539.131 104.235 539.809 101.613 541.166 99.34C542.559 97.03 544.448 95.2333 546.831 93.95C549.214 92.63 551.909 91.97 554.916 91.97C557.813 91.97 560.416 92.5933 562.726 93.84C565.073 95.05 566.924 96.81 568.281 99.12C569.638 101.393 570.316 104.125 570.316 107.315C570.316 107.645 570.298 108.03 570.261 108.47C570.224 108.873 570.188 109.258 570.151 109.625H546.116V104.62H565.641L562.341 106.105C562.341 104.565 562.029 103.227 561.406 102.09C560.783 100.953 559.921 100.073 558.821 99.45C557.721 98.79 556.438 98.46 554.971 98.46C553.504 98.46 552.203 98.79 551.066 99.45C549.966 100.073 549.104 100.972 548.481 102.145C547.858 103.282 547.546 104.638 547.546 106.215V107.535C547.546 109.148 547.894 110.578 548.591 111.825C549.324 113.035 550.333 113.97 551.616 114.63C552.936 115.253 554.476 115.565 556.236 115.565C557.813 115.565 559.188 115.327 560.361 114.85C561.571 114.373 562.671 113.658 563.661 112.705L568.226 117.655C566.869 119.195 565.164 120.387 563.111 121.23C561.058 122.037 558.693 122.44 556.016 122.44ZM594.013 91.97C596.36 91.97 598.45 92.4467 600.283 93.4C602.153 94.3167 603.62 95.7467 604.683 97.69C605.747 99.5967 606.278 102.053 606.278 105.06V122H597.698V106.38C597.698 103.997 597.167 102.237 596.103 101.1C595.077 99.9633 593.61 99.395 591.703 99.395C590.347 99.395 589.118 99.6883 588.018 100.275C586.955 100.825 586.112 101.687 585.488 102.86C584.902 104.033 584.608 105.537 584.608 107.37V122H576.028V81.19H584.608V100.605L582.683 98.13C583.747 96.15 585.268 94.6283 587.248 93.565C589.228 92.5017 591.483 91.97 594.013 91.97ZM614.056 122V92.41H622.636V122H614.056ZM618.346 88.285C616.769 88.285 615.486 87.8267 614.496 86.91C613.506 85.9933 613.011 84.8567 613.011 83.5C613.011 82.1433 613.506 81.0067 614.496 80.09C615.486 79.1733 616.769 78.715 618.346 78.715C619.922 78.715 621.206 79.155 622.196 80.035C623.186 80.8783 623.681 81.9783 623.681 83.335C623.681 84.765 623.186 85.9567 622.196 86.91C621.242 87.8267 619.959 88.285 618.346 88.285ZM644.899 122.44C641.709 122.44 638.867 121.798 636.374 120.515C633.88 119.195 631.919 117.38 630.489 115.07C629.095 112.76 628.399 110.138 628.399 107.205C628.399 104.235 629.095 101.613 630.489 99.34C631.919 97.03 633.88 95.2333 636.374 93.95C638.867 92.63 641.709 91.97 644.899 91.97C648.015 91.97 650.729 92.63 653.039 93.95C655.349 95.2333 657.054 97.085 658.154 99.505L651.499 103.08C650.729 101.687 649.757 100.66 648.584 100C647.447 99.34 646.2 99.01 644.844 99.01C643.377 99.01 642.057 99.34 640.884 100C639.71 100.66 638.775 101.595 638.079 102.805C637.419 104.015 637.089 105.482 637.089 107.205C637.089 108.928 637.419 110.395 638.079 111.605C638.775 112.815 639.71 113.75 640.884 114.41C642.057 115.07 643.377 115.4 644.844 115.4C646.2 115.4 647.447 115.088 648.584 114.465C649.757 113.805 650.729 112.76 651.499 111.33L658.154 114.96C657.054 117.343 655.349 119.195 653.039 120.515C650.729 121.798 648.015 122.44 644.899 122.44ZM662.933 122V81.19H671.513V122H662.933ZM694.161 122.44C690.787 122.44 687.817 121.78 685.251 120.46C682.721 119.14 680.759 117.343 679.366 115.07C677.972 112.76 677.276 110.138 677.276 107.205C677.276 104.235 677.954 101.613 679.311 99.34C680.704 97.03 682.592 95.2333 684.976 93.95C687.359 92.63 690.054 91.97 693.061 91.97C695.957 91.97 698.561 92.5933 700.871 93.84C703.217 95.05 705.069 96.81 706.426 99.12C707.782 101.393 708.461 104.125 708.461 107.315C708.461 107.645 708.442 108.03 708.406 108.47C708.369 108.873 708.332 109.258 708.296 109.625H684.261V104.62H703.786L700.486 106.105C700.486 104.565 700.174 103.227 699.551 102.09C698.927 100.953 698.066 100.073 696.966 99.45C695.866 98.79 694.582 98.46 693.116 98.46C691.649 98.46 690.347 98.79 689.211 99.45C688.111 100.073 687.249 100.972 686.626 102.145C686.002 103.282 685.691 104.638 685.691 106.215V107.535C685.691 109.148 686.039 110.578 686.736 111.825C687.469 113.035 688.477 113.97 689.761 114.63C691.081 115.253 692.621 115.565 694.381 115.565C695.957 115.565 697.332 115.327 698.506 114.85C699.716 114.373 700.816 113.658 701.806 112.705L706.371 117.655C705.014 119.195 703.309 120.387 701.256 121.23C699.202 122.037 696.837 122.44 694.161 122.44ZM717.418 122.44C715.951 122.44 714.686 121.945 713.623 120.955C712.596 119.928 712.083 118.627 712.083 117.05C712.083 115.473 712.596 114.208 713.623 113.255C714.686 112.265 715.951 111.77 717.418 111.77C718.921 111.77 720.186 112.265 721.213 113.255C722.24 114.208 722.753 115.473 722.753 117.05C722.753 118.627 722.24 119.928 721.213 120.955C720.186 121.945 718.921 122.44 717.418 122.44Z" fill="white"/>
<path d="M387.069 54.66C384.026 54.66 381.203 54.165 378.599 53.175C376.033 52.185 373.796 50.7917 371.889 48.995C370.019 47.1983 368.553 45.09 367.489 42.67C366.463 40.25 365.949 37.61 365.949 34.75C365.949 31.89 366.463 29.25 367.489 26.83C368.553 24.41 370.038 22.3017 371.944 20.505C373.851 18.7083 376.088 17.315 378.654 16.325C381.221 15.335 384.008 14.84 387.014 14.84C390.058 14.84 392.844 15.335 395.374 16.325C397.941 17.315 400.159 18.7083 402.029 20.505C403.936 22.3017 405.421 24.41 406.484 26.83C407.548 29.2133 408.079 31.8533 408.079 34.75C408.079 37.61 407.548 40.2683 406.484 42.725C405.421 45.145 403.936 47.2533 402.029 49.05C400.159 50.81 397.941 52.185 395.374 53.175C392.844 54.165 390.076 54.66 387.069 54.66ZM387.014 47.07C388.738 47.07 390.314 46.7767 391.744 46.19C393.211 45.6033 394.494 44.76 395.594 43.66C396.694 42.56 397.538 41.2583 398.124 39.755C398.748 38.2517 399.059 36.5833 399.059 34.75C399.059 32.9167 398.748 31.2483 398.124 29.745C397.538 28.2417 396.694 26.94 395.594 25.84C394.531 24.74 393.266 23.8967 391.799 23.31C390.333 22.7233 388.738 22.43 387.014 22.43C385.291 22.43 383.696 22.7233 382.229 23.31C380.799 23.8967 379.534 24.74 378.434 25.84C377.334 26.94 376.473 28.2417 375.849 29.745C375.263 31.2483 374.969 32.9167 374.969 34.75C374.969 36.5467 375.263 38.215 375.849 39.755C376.473 41.2583 377.316 42.56 378.379 43.66C379.479 44.76 380.763 45.6033 382.229 46.19C383.696 46.7767 385.291 47.07 387.014 47.07ZM422.97 31.01H441.505V37.94H422.97V31.01ZM423.63 46.85H444.585V54H414.775V15.5H443.87V22.65H423.63V46.85ZM451.675 54V15.5H459.045L475.435 42.67H471.53L487.645 15.5H494.96L495.07 54H486.71L486.655 28.315H488.195L475.325 49.93H471.31L458.165 28.315H460.035V54H451.675ZM519.78 54V15.5H536.445C539.892 15.5 542.862 16.0683 545.355 17.205C547.849 18.305 549.774 19.9 551.13 21.99C552.487 24.08 553.165 26.5733 553.165 29.47C553.165 32.33 552.487 34.805 551.13 36.895C549.774 38.985 547.849 40.5983 545.355 41.735C542.862 42.835 539.892 43.385 536.445 43.385H524.73L528.69 39.37V54H519.78ZM528.69 40.36L524.73 36.125H535.95C538.7 36.125 540.754 35.5383 542.11 34.365C543.467 33.1917 544.145 31.56 544.145 29.47C544.145 27.3433 543.467 25.6933 542.11 24.52C540.754 23.3467 538.7 22.76 535.95 22.76H524.73L528.69 18.525V40.36ZM576.803 54V48.225L576.253 46.96V36.62C576.253 34.7867 575.685 33.3567 574.548 32.33C573.448 31.3033 571.743 30.79 569.433 30.79C567.856 30.79 566.298 31.0467 564.758 31.56C563.255 32.0367 561.971 32.6967 560.908 33.54L557.828 27.545C559.441 26.4083 561.385 25.5283 563.658 24.905C565.931 24.2817 568.241 23.97 570.588 23.97C575.098 23.97 578.6 25.0333 581.093 27.16C583.586 29.2867 584.833 32.605 584.833 37.115V54H576.803ZM567.783 54.44C565.473 54.44 563.493 54.055 561.843 53.285C560.193 52.4783 558.928 51.3967 558.048 50.04C557.168 48.6833 556.728 47.1617 556.728 45.475C556.728 43.715 557.15 42.175 557.993 40.855C558.873 39.535 560.248 38.5083 562.118 37.775C563.988 37.005 566.426 36.62 569.433 36.62H577.298V41.625H570.368C568.351 41.625 566.958 41.955 566.188 42.615C565.455 43.275 565.088 44.1 565.088 45.09C565.088 46.19 565.51 47.07 566.353 47.73C567.233 48.3533 568.425 48.665 569.928 48.665C571.358 48.665 572.641 48.335 573.778 47.675C574.915 46.9783 575.74 45.97 576.253 44.65L577.573 48.61C576.95 50.5167 575.813 51.965 574.163 52.955C572.513 53.945 570.386 54.44 567.783 54.44ZM592.598 54V24.41H600.793V32.77L599.638 30.35C600.518 28.26 601.93 26.6833 603.873 25.62C605.817 24.52 608.182 23.97 610.968 23.97V31.89C610.602 31.8533 610.272 31.835 609.978 31.835C609.685 31.7983 609.373 31.78 609.043 31.78C606.697 31.78 604.79 32.4583 603.323 33.815C601.893 35.135 601.178 37.2067 601.178 40.03V54H592.598ZM629.19 54.44C625.707 54.44 622.994 53.56 621.05 51.8C619.107 50.0033 618.135 47.345 618.135 43.825V17.865H626.715V43.715C626.715 44.9617 627.045 45.9333 627.705 46.63C628.365 47.29 629.264 47.62 630.4 47.62C631.757 47.62 632.912 47.2533 633.865 46.52L636.175 52.57C635.295 53.1933 634.232 53.67 632.985 54C631.775 54.2933 630.51 54.44 629.19 54.44ZM613.57 31.67V25.07H634.085V31.67H613.57ZM650.947 54.44C648.417 54.44 645.978 54.1467 643.632 53.56C641.322 52.9367 639.488 52.1667 638.132 51.25L640.992 45.09C642.348 45.9333 643.943 46.63 645.777 47.18C647.647 47.6933 649.48 47.95 651.277 47.95C653.257 47.95 654.65 47.7117 655.457 47.235C656.3 46.7583 656.722 46.0983 656.722 45.255C656.722 44.5583 656.392 44.045 655.732 43.715C655.108 43.3483 654.265 43.0733 653.202 42.89C652.138 42.7067 650.965 42.5233 649.682 42.34C648.435 42.1567 647.17 41.9183 645.887 41.625C644.603 41.295 643.43 40.8183 642.367 40.195C641.303 39.5717 640.442 38.7283 639.782 37.665C639.158 36.6017 638.847 35.2267 638.847 33.54C638.847 31.67 639.378 30.02 640.442 28.59C641.542 27.16 643.118 26.0417 645.172 25.235C647.225 24.3917 649.682 23.97 652.542 23.97C654.558 23.97 656.612 24.19 658.702 24.63C660.792 25.07 662.533 25.7117 663.927 26.555L661.067 32.66C659.637 31.8167 658.188 31.2483 656.722 30.955C655.292 30.625 653.898 30.46 652.542 30.46C650.635 30.46 649.242 30.7167 648.362 31.23C647.482 31.7433 647.042 32.4033 647.042 33.21C647.042 33.9433 647.353 34.4933 647.977 34.86C648.637 35.2267 649.498 35.52 650.562 35.74C651.625 35.96 652.78 36.1617 654.027 36.345C655.31 36.4917 656.593 36.73 657.877 37.06C659.16 37.39 660.315 37.8667 661.342 38.49C662.405 39.0767 663.267 39.9017 663.927 40.965C664.587 41.9917 664.917 43.3483 664.917 45.035C664.917 46.8683 664.367 48.5 663.267 49.93C662.167 51.3233 660.572 52.4233 658.482 53.23C656.428 54.0367 653.917 54.44 650.947 54.44ZM673.455 54.44C671.989 54.44 670.724 53.945 669.66 52.955C668.634 51.9283 668.12 50.6267 668.12 49.05C668.12 47.4733 668.634 46.2083 669.66 45.255C670.724 44.265 671.989 43.77 673.455 43.77C674.959 43.77 676.224 44.265 677.25 45.255C678.277 46.2083 678.79 47.4733 678.79 49.05C678.79 50.6267 678.277 51.9283 677.25 52.955C676.224 53.945 674.959 54.44 673.455 54.44Z" fill="#D71E24"/>
</g>
<g filter="url(#filter1_d_196_242)">
<path d="M93.2301 238.288C91.9021 238.288 90.6701 238.072 89.5341 237.64C88.4141 237.208 87.4381 236.6 86.6061 235.816C85.7901 235.032 85.1501 234.112 84.6861 233.056C84.2381 232 84.0141 230.848 84.0141 229.6C84.0141 228.352 84.2381 227.2 84.6861 226.144C85.1501 225.088 85.7981 224.168 86.6301 223.384C87.4621 222.6 88.4381 221.992 89.5581 221.56C90.6781 221.128 91.8941 220.912 93.2061 220.912C94.5341 220.912 95.7501 221.128 96.8541 221.56C97.9741 221.992 98.9421 222.6 99.7581 223.384C100.59 224.168 101.238 225.088 101.702 226.144C102.166 227.184 102.398 228.336 102.398 229.6C102.398 230.848 102.166 232.008 101.702 233.08C101.238 234.136 100.59 235.056 99.7581 235.84C98.9421 236.608 97.9741 237.208 96.8541 237.64C95.7501 238.072 94.5421 238.288 93.2301 238.288ZM93.2061 234.976C93.9581 234.976 94.6461 234.848 95.2701 234.592C95.9101 234.336 96.4701 233.968 96.9501 233.488C97.4301 233.008 97.7981 232.44 98.0541 231.784C98.3261 231.128 98.4621 230.4 98.4621 229.6C98.4621 228.8 98.3261 228.072 98.0541 227.416C97.7981 226.76 97.4301 226.192 96.9501 225.712C96.4861 225.232 95.9341 224.864 95.2941 224.608C94.6541 224.352 93.9581 224.224 93.2061 224.224C92.4541 224.224 91.7581 224.352 91.1181 224.608C90.4941 224.864 89.9421 225.232 89.4621 225.712C88.9821 226.192 88.6061 226.76 88.3341 227.416C88.0781 228.072 87.9501 228.8 87.9501 229.6C87.9501 230.384 88.0781 231.112 88.3341 231.784C88.6061 232.44 88.9741 233.008 89.4381 233.488C89.9181 233.968 90.4781 234.336 91.1181 234.592C91.7581 234.848 92.4541 234.976 93.2061 234.976ZM112.904 224.896C113.928 224.896 114.84 225.104 115.64 225.52C116.456 225.92 117.096 226.544 117.56 227.392C118.024 228.224 118.256 229.296 118.256 230.608V238H114.512V231.184C114.512 230.144 114.28 229.376 113.816 228.88C113.368 228.384 112.728 228.136 111.896 228.136C111.304 228.136 110.768 228.264 110.288 228.52C109.824 228.76 109.456 229.136 109.184 229.648C108.928 230.16 108.8 230.816 108.8 231.616V238H105.056V225.088H108.632V228.664L107.96 227.584C108.424 226.72 109.088 226.056 109.952 225.592C110.816 225.128 111.8 224.896 112.904 224.896ZM128.152 238.192C126.68 238.192 125.384 237.904 124.264 237.328C123.16 236.752 122.304 235.968 121.696 234.976C121.088 233.968 120.784 232.824 120.784 231.544C120.784 230.248 121.08 229.104 121.672 228.112C122.28 227.104 123.104 226.32 124.144 225.76C125.184 225.184 126.36 224.896 127.672 224.896C128.936 224.896 130.072 225.168 131.08 225.712C132.104 226.24 132.912 227.008 133.504 228.016C134.096 229.008 134.392 230.2 134.392 231.592C134.392 231.736 134.384 231.904 134.368 232.096C134.352 232.272 134.336 232.44 134.32 232.6H123.832V230.416H132.352L130.912 231.064C130.912 230.392 130.776 229.808 130.504 229.312C130.232 228.816 129.856 228.432 129.376 228.16C128.896 227.872 128.336 227.728 127.696 227.728C127.056 227.728 126.488 227.872 125.992 228.16C125.512 228.432 125.136 228.824 124.864 229.336C124.592 229.832 124.456 230.424 124.456 231.112V231.688C124.456 232.392 124.608 233.016 124.912 233.56C125.232 234.088 125.672 234.496 126.232 234.784C126.808 235.056 127.48 235.192 128.248 235.192C128.936 235.192 129.536 235.088 130.048 234.88C130.576 234.672 131.056 234.36 131.488 233.944L133.48 236.104C132.888 236.776 132.144 237.296 131.248 237.664C130.352 238.016 129.32 238.192 128.152 238.192ZM148.025 238.192C146.921 238.192 145.857 238.064 144.833 237.808C143.825 237.536 143.025 237.2 142.433 236.8L143.681 234.112C144.273 234.48 144.969 234.784 145.769 235.024C146.585 235.248 147.385 235.36 148.169 235.36C149.033 235.36 149.641 235.256 149.993 235.048C150.361 234.84 150.545 234.552 150.545 234.184C150.545 233.88 150.401 233.656 150.113 233.512C149.841 233.352 149.473 233.232 149.009 233.152C148.545 233.072 148.033 232.992 147.473 232.912C146.929 232.832 146.377 232.728 145.817 232.6C145.257 232.456 144.745 232.248 144.281 231.976C143.817 231.704 143.441 231.336 143.153 230.872C142.881 230.408 142.745 229.808 142.745 229.072C142.745 228.256 142.977 227.536 143.441 226.912C143.921 226.288 144.609 225.8 145.505 225.448C146.401 225.08 147.473 224.896 148.721 224.896C149.601 224.896 150.497 224.992 151.409 225.184C152.321 225.376 153.081 225.656 153.689 226.024L152.441 228.688C151.817 228.32 151.185 228.072 150.545 227.944C149.921 227.8 149.313 227.728 148.721 227.728C147.889 227.728 147.281 227.84 146.897 228.064C146.513 228.288 146.321 228.576 146.321 228.928C146.321 229.248 146.457 229.488 146.729 229.648C147.017 229.808 147.393 229.936 147.857 230.032C148.321 230.128 148.825 230.216 149.369 230.296C149.929 230.36 150.489 230.464 151.049 230.608C151.609 230.752 152.113 230.96 152.561 231.232C153.025 231.488 153.401 231.848 153.689 232.312C153.977 232.76 154.121 233.352 154.121 234.088C154.121 234.888 153.881 235.6 153.401 236.224C152.921 236.832 152.225 237.312 151.313 237.664C150.417 238.016 149.321 238.192 148.025 238.192ZM172.967 224.896C173.991 224.896 174.895 225.104 175.679 225.52C176.479 225.92 177.103 226.544 177.551 227.392C178.015 228.224 178.247 229.296 178.247 230.608V238H174.503V231.184C174.503 230.144 174.287 229.376 173.855 228.88C173.423 228.384 172.815 228.136 172.031 228.136C171.487 228.136 170.999 228.264 170.567 228.52C170.135 228.76 169.799 229.128 169.559 229.624C169.319 230.12 169.199 230.752 169.199 231.52V238H165.455V231.184C165.455 230.144 165.239 229.376 164.807 228.88C164.391 228.384 163.791 228.136 163.007 228.136C162.463 228.136 161.975 228.264 161.543 228.52C161.111 228.76 160.775 229.128 160.535 229.624C160.295 230.12 160.175 230.752 160.175 231.52V238H156.431V225.088H160.007V228.616L159.335 227.584C159.783 226.704 160.415 226.04 161.231 225.592C162.063 225.128 163.007 224.896 164.063 224.896C165.247 224.896 166.279 225.2 167.159 225.808C168.055 226.4 168.647 227.312 168.935 228.544L167.615 228.184C168.047 227.176 168.735 226.376 169.679 225.784C170.639 225.192 171.735 224.896 172.967 224.896ZM189.523 238V235.48L189.283 234.928V230.416C189.283 229.616 189.035 228.992 188.539 228.544C188.059 228.096 187.315 227.872 186.307 227.872C185.619 227.872 184.939 227.984 184.267 228.208C183.611 228.416 183.051 228.704 182.587 229.072L181.243 226.456C181.947 225.96 182.795 225.576 183.787 225.304C184.779 225.032 185.787 224.896 186.811 224.896C188.779 224.896 190.307 225.36 191.395 226.288C192.483 227.216 193.027 228.664 193.027 230.632V238H189.523ZM185.587 238.192C184.579 238.192 183.715 238.024 182.995 237.688C182.275 237.336 181.723 236.864 181.339 236.272C180.955 235.68 180.763 235.016 180.763 234.28C180.763 233.512 180.947 232.84 181.315 232.264C181.699 231.688 182.299 231.24 183.115 230.92C183.931 230.584 184.995 230.416 186.307 230.416H189.739V232.6H186.715C185.835 232.6 185.227 232.744 184.891 233.032C184.571 233.32 184.411 233.68 184.411 234.112C184.411 234.592 184.595 234.976 184.963 235.264C185.347 235.536 185.867 235.672 186.523 235.672C187.147 235.672 187.707 235.528 188.203 235.24C188.699 234.936 189.059 234.496 189.283 233.92L189.859 235.648C189.587 236.48 189.091 237.112 188.371 237.544C187.651 237.976 186.723 238.192 185.587 238.192ZM196.416 238V225.088H199.992V228.736L199.488 227.68C199.872 226.768 200.488 226.08 201.336 225.616C202.184 225.136 203.216 224.896 204.432 224.896V228.352C204.272 228.336 204.128 228.328 204 228.328C203.872 228.312 203.736 228.304 203.592 228.304C202.568 228.304 201.736 228.6 201.096 229.192C200.472 229.768 200.16 230.672 200.16 231.904V238H196.416ZM212.383 238.192C210.863 238.192 209.679 237.808 208.831 237.04C207.983 236.256 207.559 235.096 207.559 233.56V222.232H211.303V233.512C211.303 234.056 211.447 234.48 211.735 234.784C212.023 235.072 212.415 235.216 212.911 235.216C213.503 235.216 214.007 235.056 214.423 234.736L215.431 237.376C215.047 237.648 214.583 237.856 214.039 238C213.511 238.128 212.959 238.192 212.383 238.192ZM205.567 228.256V225.376H214.519V228.256H205.567ZM228.674 238.192C227.57 238.192 226.506 238.064 225.482 237.808C224.474 237.536 223.674 237.2 223.082 236.8L224.33 234.112C224.922 234.48 225.618 234.784 226.418 235.024C227.234 235.248 228.034 235.36 228.818 235.36C229.682 235.36 230.29 235.256 230.642 235.048C231.01 234.84 231.194 234.552 231.194 234.184C231.194 233.88 231.05 233.656 230.762 233.512C230.49 233.352 230.122 233.232 229.658 233.152C229.194 233.072 228.682 232.992 228.122 232.912C227.578 232.832 227.026 232.728 226.466 232.6C225.906 232.456 225.394 232.248 224.93 231.976C224.466 231.704 224.09 231.336 223.802 230.872C223.53 230.408 223.394 229.808 223.394 229.072C223.394 228.256 223.626 227.536 224.09 226.912C224.57 226.288 225.258 225.8 226.154 225.448C227.05 225.08 228.122 224.896 229.37 224.896C230.25 224.896 231.146 224.992 232.058 225.184C232.97 225.376 233.73 225.656 234.338 226.024L233.09 228.688C232.466 228.32 231.834 228.072 231.194 227.944C230.57 227.8 229.962 227.728 229.37 227.728C228.538 227.728 227.93 227.84 227.546 228.064C227.162 228.288 226.97 228.576 226.97 228.928C226.97 229.248 227.106 229.488 227.378 229.648C227.666 229.808 228.042 229.936 228.506 230.032C228.97 230.128 229.474 230.216 230.018 230.296C230.578 230.36 231.138 230.464 231.698 230.608C232.258 230.752 232.762 230.96 233.21 231.232C233.674 231.488 234.05 231.848 234.338 232.312C234.626 232.76 234.77 233.352 234.77 234.088C234.77 234.888 234.53 235.6 234.05 236.224C233.57 236.832 232.874 237.312 231.962 237.664C231.066 238.016 229.97 238.192 228.674 238.192ZM243.488 238.192C242.016 238.192 240.72 237.904 239.6 237.328C238.496 236.752 237.64 235.968 237.032 234.976C236.424 233.968 236.12 232.824 236.12 231.544C236.12 230.248 236.416 229.104 237.008 228.112C237.616 227.104 238.44 226.32 239.48 225.76C240.52 225.184 241.696 224.896 243.008 224.896C244.272 224.896 245.408 225.168 246.416 225.712C247.44 226.24 248.248 227.008 248.84 228.016C249.432 229.008 249.728 230.2 249.728 231.592C249.728 231.736 249.72 231.904 249.704 232.096C249.688 232.272 249.672 232.44 249.656 232.6H239.168V230.416H247.688L246.248 231.064C246.248 230.392 246.112 229.808 245.84 229.312C245.568 228.816 245.192 228.432 244.712 228.16C244.232 227.872 243.672 227.728 243.032 227.728C242.392 227.728 241.824 227.872 241.328 228.16C240.848 228.432 240.472 228.824 240.2 229.336C239.928 229.832 239.792 230.424 239.792 231.112V231.688C239.792 232.392 239.944 233.016 240.248 233.56C240.568 234.088 241.008 234.496 241.568 234.784C242.144 235.056 242.816 235.192 243.584 235.192C244.272 235.192 244.872 235.088 245.384 234.88C245.912 234.672 246.392 234.36 246.824 233.944L248.816 236.104C248.224 236.776 247.48 237.296 246.584 237.664C245.688 238.016 244.656 238.192 243.488 238.192ZM259.789 238V235.48L259.549 234.928V230.416C259.549 229.616 259.301 228.992 258.805 228.544C258.325 228.096 257.581 227.872 256.573 227.872C255.885 227.872 255.205 227.984 254.533 228.208C253.877 228.416 253.317 228.704 252.853 229.072L251.509 226.456C252.213 225.96 253.061 225.576 254.053 225.304C255.045 225.032 256.053 224.896 257.077 224.896C259.045 224.896 260.573 225.36 261.661 226.288C262.749 227.216 263.293 228.664 263.293 230.632V238H259.789ZM255.853 238.192C254.845 238.192 253.981 238.024 253.261 237.688C252.541 237.336 251.989 236.864 251.605 236.272C251.221 235.68 251.029 235.016 251.029 234.28C251.029 233.512 251.213 232.84 251.581 232.264C251.965 231.688 252.565 231.24 253.381 230.92C254.197 230.584 255.261 230.416 256.573 230.416H260.005V232.6H256.981C256.101 232.6 255.493 232.744 255.157 233.032C254.837 233.32 254.677 233.68 254.677 234.112C254.677 234.592 254.861 234.976 255.229 235.264C255.613 235.536 256.133 235.672 256.789 235.672C257.413 235.672 257.973 235.528 258.469 235.24C258.965 234.936 259.325 234.496 259.549 233.92L260.125 235.648C259.853 236.48 259.357 237.112 258.637 237.544C257.917 237.976 256.989 238.192 255.853 238.192ZM266.681 238V225.088H270.257V228.736L269.753 227.68C270.137 226.768 270.753 226.08 271.601 225.616C272.449 225.136 273.481 224.896 274.697 224.896V228.352C274.537 228.336 274.393 228.328 274.265 228.328C274.137 228.312 274.001 228.304 273.857 228.304C272.833 228.304 272.001 228.6 271.361 229.192C270.737 229.768 270.425 230.672 270.425 231.904V238H266.681ZM283.07 238.192C281.678 238.192 280.438 237.912 279.35 237.352C278.262 236.776 277.406 235.984 276.782 234.976C276.174 233.968 275.87 232.824 275.87 231.544C275.87 230.248 276.174 229.104 276.782 228.112C277.406 227.104 278.262 226.32 279.35 225.76C280.438 225.184 281.678 224.896 283.07 224.896C284.43 224.896 285.614 225.184 286.622 225.76C287.63 226.32 288.374 227.128 288.854 228.184L285.95 229.744C285.614 229.136 285.19 228.688 284.678 228.4C284.182 228.112 283.638 227.968 283.046 227.968C282.406 227.968 281.83 228.112 281.318 228.4C280.806 228.688 280.398 229.096 280.094 229.624C279.806 230.152 279.662 230.792 279.662 231.544C279.662 232.296 279.806 232.936 280.094 233.464C280.398 233.992 280.806 234.4 281.318 234.688C281.83 234.976 282.406 235.12 283.046 235.12C283.638 235.12 284.182 234.984 284.678 234.712C285.19 234.424 285.614 233.968 285.95 233.344L288.854 234.928C288.374 235.968 287.63 236.776 286.622 237.352C285.614 237.912 284.43 238.192 283.07 238.192ZM298.787 224.896C299.811 224.896 300.723 225.104 301.523 225.52C302.339 225.92 302.979 226.544 303.443 227.392C303.907 228.224 304.139 229.296 304.139 230.608V238H300.395V231.184C300.395 230.144 300.163 229.376 299.699 228.88C299.251 228.384 298.611 228.136 297.779 228.136C297.187 228.136 296.651 228.264 296.171 228.52C295.707 228.76 295.339 229.136 295.067 229.648C294.811 230.16 294.683 230.816 294.683 231.616V238H290.939V220.192H294.683V228.664L293.843 227.584C294.307 226.72 294.971 226.056 295.835 225.592C296.699 225.128 297.683 224.896 298.787 224.896ZM308.949 238.192C308.309 238.192 307.757 237.976 307.293 237.544C306.845 237.096 306.621 236.528 306.621 235.84C306.621 235.152 306.845 234.6 307.293 234.184C307.757 233.752 308.309 233.536 308.949 233.536C309.605 233.536 310.157 233.752 310.605 234.184C311.053 234.6 311.277 235.152 311.277 235.84C311.277 236.528 311.053 237.096 310.605 237.544C310.157 237.976 309.605 238.192 308.949 238.192ZM325.051 238V231.136L325.939 233.488L318.547 221.2H322.675L328.339 230.632H325.963L331.651 221.2H335.467L328.075 233.488L328.939 231.136V238H325.051ZM341.544 238.192C340.168 238.192 338.944 237.904 337.872 237.328C336.816 236.752 335.976 235.968 335.352 234.976C334.744 233.968 334.44 232.824 334.44 231.544C334.44 230.248 334.744 229.104 335.352 228.112C335.976 227.104 336.816 226.32 337.872 225.76C338.944 225.184 340.168 224.896 341.544 224.896C342.904 224.896 344.12 225.184 345.192 225.76C346.264 226.32 347.104 227.096 347.712 228.088C348.32 229.08 348.624 230.232 348.624 231.544C348.624 232.824 348.32 233.968 347.712 234.976C347.104 235.968 346.264 236.752 345.192 237.328C344.12 237.904 342.904 238.192 341.544 238.192ZM341.544 235.12C342.168 235.12 342.728 234.976 343.224 234.688C343.72 234.4 344.112 233.992 344.4 233.464C344.688 232.92 344.832 232.28 344.832 231.544C344.832 230.792 344.688 230.152 344.4 229.624C344.112 229.096 343.72 228.688 343.224 228.4C342.728 228.112 342.168 227.968 341.544 227.968C340.92 227.968 340.36 228.112 339.864 228.4C339.368 228.688 338.968 229.096 338.664 229.624C338.376 230.152 338.232 230.792 338.232 231.544C338.232 232.28 338.376 232.92 338.664 233.464C338.968 233.992 339.368 234.4 339.864 234.688C340.36 234.976 340.92 235.12 341.544 235.12ZM356.574 238.192C355.502 238.192 354.542 237.984 353.694 237.568C352.862 237.152 352.214 236.52 351.75 235.672C351.286 234.808 351.054 233.712 351.054 232.384V225.088H354.798V231.832C354.798 232.904 355.022 233.696 355.47 234.208C355.934 234.704 356.582 234.952 357.414 234.952C357.99 234.952 358.502 234.832 358.95 234.592C359.398 234.336 359.75 233.952 360.006 233.44C360.262 232.912 360.39 232.256 360.39 231.472V225.088H364.134V238H360.582V234.448L361.23 235.48C360.798 236.376 360.158 237.056 359.31 237.52C358.478 237.968 357.566 238.192 356.574 238.192ZM367.603 238V225.088H371.179V228.736L370.675 227.68C371.059 226.768 371.675 226.08 372.523 225.616C373.371 225.136 374.403 224.896 375.619 224.896V228.352C375.459 228.336 375.315 228.328 375.187 228.328C375.059 228.312 374.923 228.304 374.779 228.304C373.755 228.304 372.923 228.6 372.283 229.192C371.659 229.768 371.347 230.672 371.347 231.904V238H367.603ZM392.368 238.192C391.28 238.192 390.328 237.952 389.512 237.472C388.696 236.992 388.056 236.264 387.592 235.288C387.144 234.296 386.92 233.048 386.92 231.544C386.92 230.024 387.136 228.776 387.568 227.8C388 226.824 388.624 226.096 389.44 225.616C390.256 225.136 391.232 224.896 392.368 224.896C393.584 224.896 394.672 225.176 395.632 225.736C396.608 226.28 397.376 227.048 397.936 228.04C398.512 229.032 398.8 230.2 398.8 231.544C398.8 232.904 398.512 234.08 397.936 235.072C397.376 236.064 396.608 236.832 395.632 237.376C394.672 237.92 393.584 238.192 392.368 238.192ZM384.736 242.656V225.088H388.312V227.728L388.24 231.568L388.48 235.384V242.656H384.736ZM391.72 235.12C392.344 235.12 392.896 234.976 393.376 234.688C393.872 234.4 394.264 233.992 394.552 233.464C394.856 232.92 395.008 232.28 395.008 231.544C395.008 230.792 394.856 230.152 394.552 229.624C394.264 229.096 393.872 228.688 393.376 228.4C392.896 228.112 392.344 227.968 391.72 227.968C391.096 227.968 390.536 228.112 390.04 228.4C389.544 228.688 389.152 229.096 388.864 229.624C388.576 230.152 388.432 230.792 388.432 231.544C388.432 232.28 388.576 232.92 388.864 233.464C389.152 233.992 389.544 234.4 390.04 234.688C390.536 234.976 391.096 235.12 391.72 235.12ZM407.714 238.192C406.242 238.192 404.946 237.904 403.826 237.328C402.722 236.752 401.866 235.968 401.258 234.976C400.65 233.968 400.346 232.824 400.346 231.544C400.346 230.248 400.642 229.104 401.234 228.112C401.842 227.104 402.666 226.32 403.706 225.76C404.746 225.184 405.922 224.896 407.234 224.896C408.498 224.896 409.634 225.168 410.642 225.712C411.666 226.24 412.474 227.008 413.066 228.016C413.658 229.008 413.954 230.2 413.954 231.592C413.954 231.736 413.946 231.904 413.93 232.096C413.914 232.272 413.898 232.44 413.882 232.6H403.394V230.416H411.914L410.474 231.064C410.474 230.392 410.338 229.808 410.066 229.312C409.794 228.816 409.418 228.432 408.938 228.16C408.458 227.872 407.898 227.728 407.258 227.728C406.618 227.728 406.05 227.872 405.554 228.16C405.074 228.432 404.698 228.824 404.426 229.336C404.154 229.832 404.018 230.424 404.018 231.112V231.688C404.018 232.392 404.17 233.016 404.474 233.56C404.794 234.088 405.234 234.496 405.794 234.784C406.37 235.056 407.042 235.192 407.81 235.192C408.498 235.192 409.098 235.088 409.61 234.88C410.138 234.672 410.618 234.36 411.05 233.944L413.042 236.104C412.45 236.776 411.706 237.296 410.81 237.664C409.914 238.016 408.882 238.192 407.714 238.192ZM416.447 238V225.088H420.023V228.736L419.519 227.68C419.903 226.768 420.519 226.08 421.367 225.616C422.215 225.136 423.247 224.896 424.463 224.896V228.352C424.303 228.336 424.159 228.328 424.031 228.328C423.903 228.312 423.767 228.304 423.623 228.304C422.599 228.304 421.767 228.6 421.127 229.192C420.503 229.768 420.191 230.672 420.191 231.904V238H416.447ZM427.239 238V224.8C427.239 223.344 427.671 222.184 428.535 221.32C429.399 220.44 430.631 220 432.231 220C432.775 220 433.295 220.056 433.791 220.168C434.303 220.28 434.735 220.456 435.087 220.696L434.103 223.408C433.895 223.264 433.663 223.152 433.407 223.072C433.151 222.992 432.879 222.952 432.591 222.952C432.047 222.952 431.623 223.112 431.319 223.432C431.031 223.736 430.887 224.2 430.887 224.824V226.024L430.983 227.632V238H427.239ZM425.247 228.256V225.376H434.199V228.256H425.247ZM442.308 238.192C440.836 238.192 439.54 237.904 438.42 237.328C437.316 236.752 436.46 235.968 435.852 234.976C435.244 233.968 434.94 232.824 434.94 231.544C434.94 230.248 435.236 229.104 435.828 228.112C436.436 227.104 437.26 226.32 438.3 225.76C439.34 225.184 440.516 224.896 441.828 224.896C443.092 224.896 444.228 225.168 445.236 225.712C446.26 226.24 447.068 227.008 447.66 228.016C448.252 229.008 448.548 230.2 448.548 231.592C448.548 231.736 448.54 231.904 448.524 232.096C448.508 232.272 448.492 232.44 448.476 232.6H437.988V230.416H446.508L445.068 231.064C445.068 230.392 444.932 229.808 444.66 229.312C444.388 228.816 444.012 228.432 443.532 228.16C443.052 227.872 442.492 227.728 441.852 227.728C441.212 227.728 440.644 227.872 440.148 228.16C439.668 228.432 439.292 228.824 439.02 229.336C438.748 229.832 438.612 230.424 438.612 231.112V231.688C438.612 232.392 438.764 233.016 439.068 233.56C439.388 234.088 439.828 234.496 440.388 234.784C440.964 235.056 441.636 235.192 442.404 235.192C443.092 235.192 443.692 235.088 444.204 234.88C444.732 234.672 445.212 234.36 445.644 233.944L447.636 236.104C447.044 236.776 446.3 237.296 445.404 237.664C444.508 238.016 443.476 238.192 442.308 238.192ZM457.281 238.192C455.889 238.192 454.649 237.912 453.561 237.352C452.473 236.776 451.617 235.984 450.993 234.976C450.385 233.968 450.081 232.824 450.081 231.544C450.081 230.248 450.385 229.104 450.993 228.112C451.617 227.104 452.473 226.32 453.561 225.76C454.649 225.184 455.889 224.896 457.281 224.896C458.641 224.896 459.825 225.184 460.833 225.76C461.841 226.32 462.585 227.128 463.065 228.184L460.161 229.744C459.825 229.136 459.401 228.688 458.889 228.4C458.393 228.112 457.849 227.968 457.257 227.968C456.617 227.968 456.041 228.112 455.529 228.4C455.017 228.688 454.609 229.096 454.305 229.624C454.017 230.152 453.873 230.792 453.873 231.544C453.873 232.296 454.017 232.936 454.305 233.464C454.609 233.992 455.017 234.4 455.529 234.688C456.041 234.976 456.617 235.12 457.257 235.12C457.849 235.12 458.393 234.984 458.889 234.712C459.401 234.424 459.825 233.968 460.161 233.344L463.065 234.928C462.585 235.968 461.841 236.776 460.833 237.352C459.825 237.912 458.641 238.192 457.281 238.192ZM470.688 238.192C469.168 238.192 467.984 237.808 467.136 237.04C466.288 236.256 465.864 235.096 465.864 233.56V222.232H469.608V233.512C469.608 234.056 469.752 234.48 470.04 234.784C470.328 235.072 470.72 235.216 471.216 235.216C471.808 235.216 472.312 235.056 472.728 234.736L473.736 237.376C473.352 237.648 472.888 237.856 472.344 238C471.816 238.128 471.264 238.192 470.688 238.192ZM463.872 228.256V225.376H472.824V228.256H463.872ZM483.09 238V224.8C483.09 223.344 483.522 222.184 484.386 221.32C485.25 220.44 486.482 220 488.082 220C488.626 220 489.146 220.056 489.642 220.168C490.154 220.28 490.586 220.456 490.938 220.696L489.954 223.408C489.746 223.264 489.514 223.152 489.258 223.072C489.002 222.992 488.73 222.952 488.442 222.952C487.898 222.952 487.474 223.112 487.17 223.432C486.882 223.736 486.738 224.2 486.738 224.824V226.024L486.834 227.632V238H483.09ZM481.098 228.256V225.376H490.05V228.256H481.098ZM492.162 238V225.088H495.906V238H492.162ZM494.034 223.288C493.346 223.288 492.786 223.088 492.354 222.688C491.922 222.288 491.706 221.792 491.706 221.2C491.706 220.608 491.922 220.112 492.354 219.712C492.786 219.312 493.346 219.112 494.034 219.112C494.722 219.112 495.282 219.304 495.714 219.688C496.146 220.056 496.362 220.536 496.362 221.128C496.362 221.752 496.146 222.272 495.714 222.688C495.298 223.088 494.738 223.288 494.034 223.288ZM504.649 238.192C503.129 238.192 501.945 237.808 501.097 237.04C500.249 236.256 499.825 235.096 499.825 233.56V222.232H503.569V233.512C503.569 234.056 503.713 234.48 504.001 234.784C504.289 235.072 504.681 235.216 505.177 235.216C505.769 235.216 506.273 235.056 506.689 234.736L507.697 237.376C507.313 237.648 506.849 237.856 506.305 238C505.777 238.128 505.225 238.192 504.649 238.192ZM497.833 228.256V225.376H506.785V228.256H497.833ZM520.939 238.192C519.835 238.192 518.771 238.064 517.747 237.808C516.739 237.536 515.939 237.2 515.347 236.8L516.595 234.112C517.187 234.48 517.883 234.784 518.683 235.024C519.499 235.248 520.299 235.36 521.083 235.36C521.947 235.36 522.555 235.256 522.907 235.048C523.275 234.84 523.459 234.552 523.459 234.184C523.459 233.88 523.315 233.656 523.027 233.512C522.755 233.352 522.387 233.232 521.923 233.152C521.459 233.072 520.947 232.992 520.387 232.912C519.843 232.832 519.291 232.728 518.731 232.6C518.171 232.456 517.659 232.248 517.195 231.976C516.731 231.704 516.355 231.336 516.067 230.872C515.795 230.408 515.659 229.808 515.659 229.072C515.659 228.256 515.891 227.536 516.355 226.912C516.835 226.288 517.523 225.8 518.419 225.448C519.315 225.08 520.387 224.896 521.635 224.896C522.515 224.896 523.411 224.992 524.323 225.184C525.235 225.376 525.995 225.656 526.603 226.024L525.355 228.688C524.731 228.32 524.099 228.072 523.459 227.944C522.835 227.8 522.227 227.728 521.635 227.728C520.803 227.728 520.195 227.84 519.811 228.064C519.427 228.288 519.235 228.576 519.235 228.928C519.235 229.248 519.371 229.488 519.643 229.648C519.931 229.808 520.307 229.936 520.771 230.032C521.235 230.128 521.739 230.216 522.283 230.296C522.843 230.36 523.403 230.464 523.963 230.608C524.523 230.752 525.027 230.96 525.475 231.232C525.939 231.488 526.315 231.848 526.603 232.312C526.891 232.76 527.035 233.352 527.035 234.088C527.035 234.888 526.795 235.6 526.315 236.224C525.835 236.832 525.139 237.312 524.227 237.664C523.331 238.016 522.235 238.192 520.939 238.192ZM534.625 238.192C533.105 238.192 531.921 237.808 531.073 237.04C530.225 236.256 529.801 235.096 529.801 233.56V222.232H533.545V233.512C533.545 234.056 533.689 234.48 533.977 234.784C534.265 235.072 534.657 235.216 535.153 235.216C535.745 235.216 536.249 235.056 536.665 234.736L537.673 237.376C537.289 237.648 536.825 237.856 536.281 238C535.753 238.128 535.201 238.192 534.625 238.192ZM527.809 228.256V225.376H536.761V228.256H527.809ZM547.695 238V235.48L547.455 234.928V230.416C547.455 229.616 547.207 228.992 546.711 228.544C546.231 228.096 545.487 227.872 544.479 227.872C543.791 227.872 543.111 227.984 542.439 228.208C541.783 228.416 541.223 228.704 540.759 229.072L539.415 226.456C540.119 225.96 540.967 225.576 541.959 225.304C542.951 225.032 543.959 224.896 544.983 224.896C546.951 224.896 548.479 225.36 549.567 226.288C550.655 227.216 551.199 228.664 551.199 230.632V238H547.695ZM543.759 238.192C542.751 238.192 541.887 238.024 541.167 237.688C540.447 237.336 539.895 236.864 539.511 236.272C539.127 235.68 538.935 235.016 538.935 234.28C538.935 233.512 539.119 232.84 539.487 232.264C539.871 231.688 540.471 231.24 541.287 230.92C542.103 230.584 543.167 230.416 544.479 230.416H547.911V232.6H544.887C544.007 232.6 543.399 232.744 543.063 233.032C542.743 233.32 542.583 233.68 542.583 234.112C542.583 234.592 542.767 234.976 543.135 235.264C543.519 235.536 544.039 235.672 544.695 235.672C545.319 235.672 545.879 235.528 546.375 235.24C546.871 234.936 547.231 234.496 547.455 233.92L548.031 235.648C547.759 236.48 547.263 237.112 546.543 237.544C545.823 237.976 544.895 238.192 543.759 238.192ZM554.587 238V225.088H558.163V228.736L557.659 227.68C558.043 226.768 558.659 226.08 559.507 225.616C560.355 225.136 561.387 224.896 562.603 224.896V228.352C562.443 228.336 562.299 228.328 562.171 228.328C562.043 228.312 561.907 228.304 561.763 228.304C560.739 228.304 559.907 228.6 559.267 229.192C558.643 229.768 558.331 230.672 558.331 231.904V238H554.587ZM570.555 238.192C569.035 238.192 567.851 237.808 567.003 237.04C566.155 236.256 565.731 235.096 565.731 233.56V222.232H569.475V233.512C569.475 234.056 569.619 234.48 569.907 234.784C570.195 235.072 570.587 235.216 571.083 235.216C571.675 235.216 572.179 235.056 572.595 234.736L573.603 237.376C573.219 237.648 572.755 237.856 572.211 238C571.683 238.128 571.131 238.192 570.555 238.192ZM563.739 228.256V225.376H572.691V228.256H563.739ZM580.049 238.192C578.945 238.192 577.881 238.064 576.857 237.808C575.849 237.536 575.049 237.2 574.457 236.8L575.705 234.112C576.297 234.48 576.993 234.784 577.793 235.024C578.609 235.248 579.409 235.36 580.193 235.36C581.057 235.36 581.665 235.256 582.017 235.048C582.385 234.84 582.569 234.552 582.569 234.184C582.569 233.88 582.425 233.656 582.137 233.512C581.865 233.352 581.497 233.232 581.033 233.152C580.569 233.072 580.057 232.992 579.497 232.912C578.953 232.832 578.401 232.728 577.841 232.6C577.281 232.456 576.769 232.248 576.305 231.976C575.841 231.704 575.465 231.336 575.177 230.872C574.905 230.408 574.769 229.808 574.769 229.072C574.769 228.256 575.001 227.536 575.465 226.912C575.945 226.288 576.633 225.8 577.529 225.448C578.425 225.08 579.497 224.896 580.745 224.896C581.625 224.896 582.521 224.992 583.433 225.184C584.345 225.376 585.105 225.656 585.713 226.024L584.465 228.688C583.841 228.32 583.209 228.072 582.569 227.944C581.945 227.8 581.337 227.728 580.745 227.728C579.913 227.728 579.305 227.84 578.921 228.064C578.537 228.288 578.345 228.576 578.345 228.928C578.345 229.248 578.481 229.488 578.753 229.648C579.041 229.808 579.417 229.936 579.881 230.032C580.345 230.128 580.849 230.216 581.393 230.296C581.953 230.36 582.513 230.464 583.073 230.608C583.633 230.752 584.137 230.96 584.585 231.232C585.049 231.488 585.425 231.848 585.713 232.312C586.001 232.76 586.145 233.352 586.145 234.088C586.145 234.888 585.905 235.6 585.425 236.224C584.945 236.832 584.249 237.312 583.337 237.664C582.441 238.016 581.345 238.192 580.049 238.192ZM603.099 224.896C604.123 224.896 605.035 225.104 605.835 225.52C606.651 225.92 607.291 226.544 607.755 227.392C608.219 228.224 608.451 229.296 608.451 230.608V238H604.707V231.184C604.707 230.144 604.475 229.376 604.011 228.88C603.563 228.384 602.923 228.136 602.091 228.136C601.499 228.136 600.963 228.264 600.483 228.52C600.019 228.76 599.651 229.136 599.379 229.648C599.123 230.16 598.995 230.816 598.995 231.616V238H595.251V220.192H598.995V228.664L598.155 227.584C598.619 226.72 599.283 226.056 600.147 225.592C601.011 225.128 601.995 224.896 603.099 224.896ZM618.347 238.192C616.875 238.192 615.579 237.904 614.459 237.328C613.355 236.752 612.499 235.968 611.891 234.976C611.283 233.968 610.979 232.824 610.979 231.544C610.979 230.248 611.275 229.104 611.867 228.112C612.475 227.104 613.299 226.32 614.339 225.76C615.379 225.184 616.555 224.896 617.867 224.896C619.131 224.896 620.267 225.168 621.275 225.712C622.299 226.24 623.107 227.008 623.699 228.016C624.291 229.008 624.587 230.2 624.587 231.592C624.587 231.736 624.579 231.904 624.563 232.096C624.547 232.272 624.531 232.44 624.515 232.6H614.027V230.416H622.547L621.107 231.064C621.107 230.392 620.971 229.808 620.699 229.312C620.427 228.816 620.051 228.432 619.571 228.16C619.091 227.872 618.531 227.728 617.891 227.728C617.251 227.728 616.683 227.872 616.187 228.16C615.707 228.432 615.331 228.824 615.059 229.336C614.787 229.832 614.651 230.424 614.651 231.112V231.688C614.651 232.392 614.803 233.016 615.107 233.56C615.427 234.088 615.867 234.496 616.427 234.784C617.003 235.056 617.675 235.192 618.443 235.192C619.131 235.192 619.731 235.088 620.243 234.88C620.771 234.672 621.251 234.36 621.683 233.944L623.675 236.104C623.083 236.776 622.339 237.296 621.443 237.664C620.547 238.016 619.515 238.192 618.347 238.192ZM627.08 238V225.088H630.656V228.736L630.152 227.68C630.536 226.768 631.152 226.08 632 225.616C632.848 225.136 633.88 224.896 635.096 224.896V228.352C634.936 228.336 634.792 228.328 634.664 228.328C634.536 228.312 634.4 228.304 634.256 228.304C633.232 228.304 632.4 228.6 631.76 229.192C631.136 229.768 630.824 230.672 630.824 231.904V238H627.08ZM643.636 238.192C642.164 238.192 640.868 237.904 639.748 237.328C638.644 236.752 637.788 235.968 637.18 234.976C636.572 233.968 636.268 232.824 636.268 231.544C636.268 230.248 636.564 229.104 637.156 228.112C637.764 227.104 638.588 226.32 639.628 225.76C640.668 225.184 641.844 224.896 643.156 224.896C644.42 224.896 645.556 225.168 646.564 225.712C647.588 226.24 648.396 227.008 648.988 228.016C649.58 229.008 649.876 230.2 649.876 231.592C649.876 231.736 649.868 231.904 649.852 232.096C649.836 232.272 649.82 232.44 649.804 232.6H639.316V230.416H647.836L646.396 231.064C646.396 230.392 646.26 229.808 645.988 229.312C645.716 228.816 645.34 228.432 644.86 228.16C644.38 227.872 643.82 227.728 643.18 227.728C642.54 227.728 641.972 227.872 641.476 228.16C640.996 228.432 640.62 228.824 640.348 229.336C640.076 229.832 639.94 230.424 639.94 231.112V231.688C639.94 232.392 640.092 233.016 640.396 233.56C640.716 234.088 641.156 234.496 641.716 234.784C642.292 235.056 642.964 235.192 643.732 235.192C644.42 235.192 645.02 235.088 645.532 234.88C646.06 234.672 646.54 234.36 646.972 233.944L648.964 236.104C648.372 236.776 647.628 237.296 646.732 237.664C645.836 238.016 644.804 238.192 643.636 238.192ZM653.785 238.192C653.145 238.192 652.593 237.976 652.129 237.544C651.681 237.096 651.457 236.528 651.457 235.84C651.457 235.152 651.681 234.6 652.129 234.184C652.593 233.752 653.145 233.536 653.785 233.536C654.441 233.536 654.993 233.752 655.441 234.184C655.889 234.6 656.113 235.152 656.113 235.84C656.113 236.528 655.889 237.096 655.441 237.544C654.993 237.976 654.441 238.192 653.785 238.192Z" fill="white"/>
</g>
<defs>
<filter id="filter0_d_196_242" x="-0.0424194" y="0.714996" width="736.795" height="139.725" filterUnits="userSpaceOnUse" color-interpolation-filters="sRGB">
<feFlood flood-opacity="0" result="BackgroundImageFix"/>
<feColorMatrix in="SourceAlpha" type="matrix" values="0 0 0 0 0 0 0 0 0 0 0 0 0 0 0 0 0 0 127 0" result="hardAlpha"/>
<feMorphology radius="10" operator="dilate" in="SourceAlpha" result="effect1_dropShadow_196_242"/>
<feOffset dy="4"/>
<feGaussianBlur stdDeviation="2"/>
<feComposite in2="hardAlpha" operator="out"/>
<feColorMatrix type="matrix" values="0 0 0 0 0 0 0 0 0 0 0 0 0 0 0 0 0 0 1 0"/>
<feBlend mode="normal" in2="BackgroundImageFix" result="effect1_dropShadow_196_242"/>
<feBlend mode="normal" in="SourceGraphic" in2="effect1_dropShadow_196_242" result="shape"/>
</filter>
<filter id="filter1_d_196_242" x="70.0141" y="209.112" width="600.099" height="51.544" filterUnits="userSpaceOnUse" color-interpolation-filters="sRGB">
<feFlood flood-opacity="0" result="BackgroundImageFix"/>
<feColorMatrix in="SourceAlpha" type="matrix" values="0 0 0 0 0 0 0 0 0 0 0 0 0 0 0 0 0 0 127 0" result="hardAlpha"/>
<feMorphology radius="10" operator="dilate" in="SourceAlpha" result="effect1_dropShadow_196_242"/>
<feOffset dy="4"/>
<feGaussianBlur stdDeviation="2"/>
<feComposite in2="hardAlpha" operator="out"/>
<feColorMatrix type="matrix" values="0 0 0 0 0 0 0 0 0 0 0 0 0 0 0 0 0 0 1 0"/>
<feBlend mode="normal" in2="BackgroundImageFix" result="effect1_dropShadow_196_242"/>
<feBlend mode="normal" in="SourceGraphic" in2="effect1_dropShadow_196_242" result="shape"/>
</filter>
</defs>
</svg>
