<svg width="652" height="88" viewBox="0 0 652 88" fill="none" xmlns="http://www.w3.org/2000/svg">
<g filter="url(#filter0_d_228_2631)">
<path d="M16.0043 19.912H27.1403V23.336H16.0043V19.912ZM16.3243 29.512H28.9643V33H12.1643V10.6H28.5163V14.088H16.3243V29.512ZM30.6005 33L38.1205 23.208L38.0565 25.352L30.8885 15.912H35.3365L40.3605 22.632H38.6645L43.7205 15.912H48.0405L40.8085 25.352L40.8405 23.208L48.3285 33H43.8165L38.5365 25.864L40.2005 26.088L35.0165 33H30.6005ZM60.7523 33.224C59.3656 33.224 58.0963 32.904 56.9443 32.264C55.8136 31.624 54.9069 30.664 54.2243 29.384C53.5629 28.0827 53.2323 26.44 53.2323 24.456C53.2323 22.4507 53.5523 20.808 54.1923 19.528C54.8536 18.248 55.7496 17.2987 56.8802 16.68C58.0109 16.04 59.3016 15.72 60.7523 15.72C62.4376 15.72 63.9203 16.0827 65.2003 16.808C66.5016 17.5333 67.5256 18.5467 68.2723 19.848C69.0403 21.1493 69.4243 22.6853 69.4243 24.456C69.4243 26.2267 69.0403 27.7733 68.2723 29.096C67.5256 30.3973 66.5016 31.4107 65.2003 32.136C63.9203 32.8613 62.4376 33.224 60.7523 33.224ZM51.2803 39.208V15.912H55.0883V19.944L54.9603 24.488L55.2803 29.032V39.208H51.2803ZM60.3043 29.8C61.2643 29.8 62.1176 29.5867 62.8643 29.16C63.6323 28.7333 64.2403 28.1147 64.6883 27.304C65.1363 26.4933 65.3603 25.544 65.3603 24.456C65.3603 23.3467 65.1363 22.3973 64.6883 21.608C64.2403 20.7973 63.6323 20.1787 62.8643 19.752C62.1176 19.3253 61.2643 19.112 60.3043 19.112C59.3443 19.112 58.4803 19.3253 57.7123 19.752C56.9443 20.1787 56.3363 20.7973 55.8883 21.608C55.4403 22.3973 55.2163 23.3467 55.2163 24.456C55.2163 25.544 55.4403 26.4933 55.8883 27.304C56.3363 28.1147 56.9443 28.7333 57.7123 29.16C58.4803 29.5867 59.3443 29.8 60.3043 29.8ZM73.2178 33V9.256H77.2178V33H73.2178ZM90.1478 33.224C88.3984 33.224 86.8411 32.8507 85.4758 32.104C84.1104 31.336 83.0331 30.2907 82.2438 28.968C81.4544 27.6453 81.0598 26.1413 81.0598 24.456C81.0598 22.7493 81.4544 21.2453 82.2438 19.944C83.0331 18.6213 84.1104 17.5867 85.4758 16.84C86.8411 16.0933 88.3984 15.72 90.1478 15.72C91.9184 15.72 93.4864 16.0933 94.8518 16.84C96.2384 17.5867 97.3158 18.6107 98.0838 19.912C98.8731 21.2133 99.2678 22.728 99.2678 24.456C99.2678 26.1413 98.8731 27.6453 98.0838 28.968C97.3158 30.2907 96.2384 31.336 94.8518 32.104C93.4864 32.8507 91.9184 33.224 90.1478 33.224ZM90.1478 29.8C91.1291 29.8 92.0038 29.5867 92.7718 29.16C93.5398 28.7333 94.1371 28.1147 94.5638 27.304C95.0118 26.4933 95.2358 25.544 95.2358 24.456C95.2358 23.3467 95.0118 22.3973 94.5638 21.608C94.1371 20.7973 93.5398 20.1787 92.7718 19.752C92.0038 19.3253 91.1398 19.112 90.1798 19.112C89.1984 19.112 88.3238 19.3253 87.5558 19.752C86.8091 20.1787 86.2118 20.7973 85.7638 21.608C85.3158 22.3973 85.0918 23.3467 85.0918 24.456C85.0918 25.544 85.3158 26.4933 85.7638 27.304C86.2118 28.1147 86.8091 28.7333 87.5558 29.16C88.3238 29.5867 89.1878 29.8 90.1478 29.8ZM103.093 33V15.912H106.901V20.616L106.453 19.24C106.965 18.088 107.765 17.2133 108.853 16.616C109.962 16.0187 111.338 15.72 112.981 15.72V19.528C112.81 19.4853 112.65 19.464 112.501 19.464C112.351 19.4427 112.202 19.432 112.053 19.432C110.538 19.432 109.333 19.88 108.437 20.776C107.541 21.6507 107.093 22.9627 107.093 24.712V33H103.093ZM124.25 33.224C122.351 33.224 120.687 32.8507 119.258 32.104C117.85 31.336 116.751 30.2907 115.962 28.968C115.194 27.6453 114.81 26.1413 114.81 24.456C114.81 22.7493 115.183 21.2453 115.93 19.944C116.698 18.6213 117.743 17.5867 119.066 16.84C120.41 16.0933 121.935 15.72 123.642 15.72C125.306 15.72 126.788 16.0827 128.09 16.808C129.391 17.5333 130.415 18.5573 131.162 19.88C131.908 21.2027 132.282 22.76 132.282 24.552C132.282 24.7227 132.271 24.9147 132.25 25.128C132.25 25.3413 132.239 25.544 132.218 25.736H117.978V23.08H130.106L128.538 23.912C128.559 22.9307 128.356 22.0667 127.93 21.32C127.503 20.5733 126.916 19.9867 126.17 19.56C125.444 19.1333 124.602 18.92 123.642 18.92C122.66 18.92 121.796 19.1333 121.05 19.56C120.324 19.9867 119.748 20.584 119.322 21.352C118.916 22.0987 118.714 22.984 118.714 24.008V24.648C118.714 25.672 118.948 26.5787 119.418 27.368C119.887 28.1573 120.548 28.7653 121.402 29.192C122.255 29.6187 123.236 29.832 124.346 29.832C125.306 29.832 126.17 29.6827 126.938 29.384C127.706 29.0853 128.388 28.616 128.986 27.976L131.13 30.44C130.362 31.336 129.391 32.0293 128.218 32.52C127.066 32.9893 125.743 33.224 124.25 33.224ZM155.848 33.32C154.098 33.32 152.488 33.032 151.016 32.456C149.544 31.88 148.264 31.08 147.176 30.056C146.088 29.0107 145.245 27.7947 144.648 26.408C144.05 25 143.752 23.464 143.752 21.8C143.752 20.136 144.05 18.6107 144.648 17.224C145.245 15.816 146.088 14.6 147.176 13.576C148.264 12.5307 149.544 11.72 151.016 11.144C152.488 10.568 154.088 10.28 155.816 10.28C157.565 10.28 159.165 10.568 160.616 11.144C162.088 11.72 163.368 12.5307 164.456 13.576C165.544 14.6 166.386 15.816 166.984 17.224C167.581 18.6107 167.88 20.136 167.88 21.8C167.88 23.464 167.581 25 166.984 26.408C166.386 27.816 165.544 29.032 164.456 30.056C163.368 31.08 162.088 31.88 160.616 32.456C159.165 33.032 157.576 33.32 155.848 33.32ZM155.816 29.672C156.946 29.672 157.992 29.48 158.952 29.096C159.912 28.712 160.744 28.168 161.448 27.464C162.152 26.7387 162.696 25.9067 163.08 24.968C163.485 24.008 163.688 22.952 163.688 21.8C163.688 20.648 163.485 19.6027 163.08 18.664C162.696 17.704 162.152 16.872 161.448 16.168C160.744 15.4427 159.912 14.888 158.952 14.504C157.992 14.12 156.946 13.928 155.816 13.928C154.685 13.928 153.64 14.12 152.68 14.504C151.741 14.888 150.909 15.4427 150.184 16.168C149.48 16.872 148.925 17.704 148.52 18.664C148.136 19.6027 147.944 20.648 147.944 21.8C147.944 22.9307 148.136 23.976 148.52 24.936C148.925 25.896 149.48 26.7387 150.184 27.464C150.888 28.168 151.72 28.712 152.68 29.096C153.64 29.48 154.685 29.672 155.816 29.672ZM179.137 33.224C177.687 33.224 176.407 32.9573 175.297 32.424C174.188 31.8693 173.324 31.0373 172.705 29.928C172.087 28.7973 171.777 27.3787 171.777 25.672V15.912H175.777V25.128C175.777 26.664 176.119 27.816 176.801 28.584C177.505 29.3307 178.497 29.704 179.777 29.704C180.716 29.704 181.527 29.512 182.209 29.128C182.913 28.744 183.457 28.168 183.841 27.4C184.247 26.632 184.449 25.6827 184.449 24.552V15.912H188.449V33H184.641V28.392L185.313 29.8C184.737 30.9093 183.895 31.7627 182.785 32.36C181.676 32.936 180.46 33.224 179.137 33.224ZM193.687 33V15.912H197.495V20.616L197.047 19.24C197.559 18.088 198.359 17.2133 199.447 16.616C200.556 16.0187 201.932 15.72 203.575 15.72V19.528C203.404 19.4853 203.244 19.464 203.095 19.464C202.945 19.4427 202.796 19.432 202.647 19.432C201.132 19.432 199.927 19.88 199.031 20.776C198.135 21.6507 197.687 22.9627 197.687 24.712V33H193.687ZM389.015 33.32C385.943 33.32 383.532 32.456 381.783 30.728C380.055 29 379.191 26.504 379.191 23.24V10.6H383.351V23.08C383.351 25.384 383.842 27.0587 384.823 28.104C385.826 29.1493 387.234 29.672 389.047 29.672C390.86 29.672 392.258 29.1493 393.239 28.104C394.22 27.0587 394.711 25.384 394.711 23.08V10.6H398.807V23.24C398.807 26.504 397.932 29 396.183 30.728C394.455 32.456 392.066 33.32 389.015 33.32ZM409.529 33.224C408.1 33.224 406.724 33.0427 405.401 32.68C404.1 32.296 403.065 31.8373 402.297 31.304L403.833 28.264C404.601 28.7547 405.518 29.16 406.585 29.48C407.652 29.8 408.718 29.96 409.785 29.96C411.044 29.96 411.95 29.7893 412.505 29.448C413.081 29.1067 413.369 28.648 413.369 28.072C413.369 27.6027 413.177 27.2507 412.793 27.016C412.409 26.76 411.908 26.568 411.289 26.44C410.67 26.312 409.977 26.1947 409.209 26.088C408.462 25.9813 407.705 25.8427 406.937 25.672C406.19 25.48 405.508 25.2133 404.889 24.872C404.27 24.5093 403.769 24.0293 403.385 23.432C403.001 22.8347 402.809 22.0453 402.809 21.064C402.809 19.976 403.118 19.0373 403.737 18.248C404.356 17.4373 405.22 16.8187 406.329 16.392C407.46 15.944 408.793 15.72 410.329 15.72C411.481 15.72 412.644 15.848 413.817 16.104C414.99 16.36 415.961 16.7227 416.729 17.192L415.193 20.232C414.382 19.7413 413.561 19.4107 412.729 19.24C411.918 19.048 411.108 18.952 410.297 18.952C409.081 18.952 408.174 19.1333 407.577 19.496C407.001 19.8587 406.713 20.3173 406.713 20.872C406.713 21.384 406.905 21.768 407.289 22.024C407.673 22.28 408.174 22.4827 408.793 22.632C409.412 22.7813 410.094 22.9093 410.841 23.016C411.609 23.1013 412.366 23.24 413.113 23.432C413.86 23.624 414.542 23.8907 415.161 24.232C415.801 24.552 416.313 25.0107 416.697 25.608C417.081 26.2053 417.273 26.984 417.273 27.944C417.273 29.0107 416.953 29.9387 416.313 30.728C415.694 31.5173 414.809 32.136 413.657 32.584C412.505 33.0107 411.129 33.224 409.529 33.224ZM428.75 33.224C426.851 33.224 425.187 32.8507 423.758 32.104C422.35 31.336 421.251 30.2907 420.462 28.968C419.694 27.6453 419.31 26.1413 419.31 24.456C419.31 22.7493 419.683 21.2453 420.43 19.944C421.198 18.6213 422.243 17.5867 423.566 16.84C424.91 16.0933 426.435 15.72 428.142 15.72C429.806 15.72 431.288 16.0827 432.59 16.808C433.891 17.5333 434.915 18.5573 435.662 19.88C436.408 21.2027 436.782 22.76 436.782 24.552C436.782 24.7227 436.771 24.9147 436.75 25.128C436.75 25.3413 436.739 25.544 436.718 25.736H422.478V23.08H434.606L433.038 23.912C433.059 22.9307 432.856 22.0667 432.43 21.32C432.003 20.5733 431.416 19.9867 430.67 19.56C429.944 19.1333 429.102 18.92 428.142 18.92C427.16 18.92 426.296 19.1333 425.55 19.56C424.824 19.9867 424.248 20.584 423.822 21.352C423.416 22.0987 423.214 22.984 423.214 24.008V24.648C423.214 25.672 423.448 26.5787 423.918 27.368C424.387 28.1573 425.048 28.7653 425.902 29.192C426.755 29.6187 427.736 29.832 428.846 29.832C429.806 29.832 430.67 29.6827 431.438 29.384C432.206 29.0853 432.888 28.616 433.486 27.976L435.63 30.44C434.862 31.336 433.891 32.0293 432.718 32.52C431.566 32.9893 430.243 33.224 428.75 33.224ZM447.856 33.224C446.213 33.224 444.731 32.8613 443.408 32.136C442.107 31.3893 441.083 30.3653 440.336 29.064C439.589 27.7627 439.216 26.2267 439.216 24.456C439.216 22.6853 439.589 21.1493 440.336 19.848C441.083 18.5467 442.107 17.5333 443.408 16.808C444.731 16.0827 446.213 15.72 447.856 15.72C449.285 15.72 450.565 16.04 451.696 16.68C452.827 17.2987 453.723 18.248 454.384 19.528C455.045 20.808 455.376 22.4507 455.376 24.456C455.376 26.44 455.056 28.0827 454.416 29.384C453.776 30.664 452.891 31.624 451.76 32.264C450.629 32.904 449.328 33.224 447.856 33.224ZM448.336 29.8C449.296 29.8 450.149 29.5867 450.896 29.16C451.664 28.7333 452.272 28.1147 452.72 27.304C453.189 26.4933 453.424 25.544 453.424 24.456C453.424 23.3467 453.189 22.3973 452.72 21.608C452.272 20.7973 451.664 20.1787 450.896 19.752C450.149 19.3253 449.296 19.112 448.336 19.112C447.376 19.112 446.512 19.3253 445.744 19.752C444.997 20.1787 444.389 20.7973 443.92 21.608C443.472 22.3973 443.248 23.3467 443.248 24.456C443.248 25.544 443.472 26.4933 443.92 27.304C444.389 28.1147 444.997 28.7333 445.744 29.16C446.512 29.5867 447.376 29.8 448.336 29.8ZM453.52 33V28.968L453.68 24.424L453.36 19.88V9.256H457.328V33H453.52ZM468.652 33L478.733 10.6H482.829L492.941 33H488.589L479.917 12.808H481.581L472.941 33H468.652ZM473.293 27.816L474.413 24.552H486.509L487.628 27.816H473.293ZM502.325 33.224C500.874 33.224 499.594 32.9573 498.485 32.424C497.375 31.8693 496.511 31.0373 495.893 29.928C495.274 28.7973 494.965 27.3787 494.965 25.672V15.912H498.965V25.128C498.965 26.664 499.306 27.816 499.989 28.584C500.693 29.3307 501.685 29.704 502.965 29.704C503.903 29.704 504.714 29.512 505.397 29.128C506.101 28.744 506.645 28.168 507.029 27.4C507.434 26.632 507.637 25.6827 507.637 24.552V15.912H511.637V33H507.829V28.392L508.501 29.8C507.925 30.9093 507.082 31.7627 505.973 32.36C504.863 32.936 503.647 33.224 502.325 33.224ZM523.306 33.224C521.429 33.224 519.978 32.744 518.954 31.784C517.93 30.8027 517.418 29.3627 517.418 27.464V12.136H521.418V27.368C521.418 28.1787 521.621 28.808 522.026 29.256C522.453 29.704 523.039 29.928 523.786 29.928C524.682 29.928 525.429 29.6933 526.026 29.224L527.146 32.072C526.677 32.456 526.101 32.744 525.418 32.936C524.735 33.128 524.031 33.224 523.306 33.224ZM514.602 19.24V16.04H525.994V19.24H514.602ZM537.554 33.224C535.805 33.224 534.247 32.8507 532.882 32.104C531.517 31.336 530.439 30.2907 529.65 28.968C528.861 27.6453 528.466 26.1413 528.466 24.456C528.466 22.7493 528.861 21.2453 529.65 19.944C530.439 18.6213 531.517 17.5867 532.882 16.84C534.247 16.0933 535.805 15.72 537.554 15.72C539.325 15.72 540.893 16.0933 542.258 16.84C543.645 17.5867 544.722 18.6107 545.49 19.912C546.279 21.2133 546.674 22.728 546.674 24.456C546.674 26.1413 546.279 27.6453 545.49 28.968C544.722 30.2907 543.645 31.336 542.258 32.104C540.893 32.8507 539.325 33.224 537.554 33.224ZM537.554 29.8C538.535 29.8 539.41 29.5867 540.178 29.16C540.946 28.7333 541.543 28.1147 541.97 27.304C542.418 26.4933 542.642 25.544 542.642 24.456C542.642 23.3467 542.418 22.3973 541.97 21.608C541.543 20.7973 540.946 20.1787 540.178 19.752C539.41 19.3253 538.546 19.112 537.586 19.112C536.605 19.112 535.73 19.3253 534.962 19.752C534.215 20.1787 533.618 20.7973 533.17 21.608C532.722 22.3973 532.498 23.3467 532.498 24.456C532.498 25.544 532.722 26.4933 533.17 27.304C533.618 28.1147 534.215 28.7333 534.962 29.16C535.73 29.5867 536.594 29.8 537.554 29.8ZM559.727 33V10.6H568.943C570.927 10.6 572.623 10.92 574.031 11.56C575.46 12.2 576.559 13.1173 577.327 14.312C578.095 15.5067 578.479 16.9253 578.479 18.568C578.479 20.2107 578.095 21.6293 577.327 22.824C576.559 24.0187 575.46 24.936 574.031 25.576C572.623 26.216 570.927 26.536 568.943 26.536H562.031L563.887 24.584V33H559.727ZM563.887 25.032L562.031 23.016H568.751C570.585 23.016 571.961 22.632 572.879 21.864C573.817 21.0747 574.287 19.976 574.287 18.568C574.287 17.1387 573.817 16.04 572.879 15.272C571.961 14.504 570.585 14.12 568.751 14.12H562.031L563.887 12.072V25.032ZM592.621 33V29.544L592.397 28.808V22.76C592.397 21.5867 592.045 20.68 591.341 20.04C590.637 19.3787 589.57 19.048 588.141 19.048C587.181 19.048 586.231 19.1973 585.293 19.496C584.375 19.7947 583.597 20.2107 582.957 20.744L581.389 17.832C582.306 17.128 583.394 16.6053 584.653 16.264C585.933 15.9013 587.255 15.72 588.621 15.72C591.095 15.72 593.005 16.3173 594.349 17.512C595.714 18.6853 596.397 20.5093 596.397 22.984V33H592.621ZM587.245 33.224C585.965 33.224 584.845 33.0107 583.885 32.584C582.925 32.136 582.178 31.528 581.645 30.76C581.133 29.9707 580.877 29.0853 580.877 28.104C580.877 27.144 581.101 26.28 581.549 25.512C582.018 24.744 582.775 24.136 583.821 23.688C584.866 23.24 586.253 23.016 587.981 23.016H592.941V25.672H588.269C586.903 25.672 585.986 25.896 585.517 26.344C585.047 26.7707 584.813 27.304 584.813 27.944C584.813 28.6693 585.101 29.2453 585.677 29.672C586.253 30.0987 587.053 30.312 588.077 30.312C589.058 30.312 589.933 30.088 590.701 29.64C591.49 29.192 592.055 28.5307 592.397 27.656L593.069 30.056C592.685 31.0587 591.991 31.8373 590.989 32.392C590.007 32.9467 588.759 33.224 587.245 33.224ZM601.53 33V15.912H605.338V20.616L604.89 19.24C605.402 18.088 606.202 17.2133 607.29 16.616C608.4 16.0187 609.776 15.72 611.418 15.72V19.528C611.248 19.4853 611.088 19.464 610.938 19.464C610.789 19.4427 610.64 19.432 610.49 19.432C608.976 19.432 607.77 19.88 606.874 20.776C605.978 21.6507 605.53 22.9627 605.53 24.712V33H601.53ZM621.869 33.224C619.991 33.224 618.541 32.744 617.516 31.784C616.493 30.8027 615.981 29.3627 615.981 27.464V12.136H619.981V27.368C619.981 28.1787 620.183 28.808 620.589 29.256C621.015 29.704 621.602 29.928 622.349 29.928C623.245 29.928 623.991 29.6933 624.589 29.224L625.709 32.072C625.239 32.456 624.663 32.744 623.981 32.936C623.298 33.128 622.594 33.224 621.869 33.224ZM613.165 19.24V16.04H624.557V19.24H613.165ZM634.279 33.224C632.85 33.224 631.474 33.0427 630.151 32.68C628.85 32.296 627.815 31.8373 627.047 31.304L628.583 28.264C629.351 28.7547 630.268 29.16 631.335 29.48C632.402 29.8 633.468 29.96 634.535 29.96C635.794 29.96 636.7 29.7893 637.255 29.448C637.831 29.1067 638.119 28.648 638.119 28.072C638.119 27.6027 637.927 27.2507 637.543 27.016C637.159 26.76 636.658 26.568 636.039 26.44C635.42 26.312 634.727 26.1947 633.959 26.088C633.212 25.9813 632.455 25.8427 631.687 25.672C630.94 25.48 630.258 25.2133 629.639 24.872C629.02 24.5093 628.519 24.0293 628.135 23.432C627.751 22.8347 627.559 22.0453 627.559 21.064C627.559 19.976 627.868 19.0373 628.487 18.248C629.106 17.4373 629.97 16.8187 631.079 16.392C632.21 15.944 633.543 15.72 635.079 15.72C636.231 15.72 637.394 15.848 638.567 16.104C639.74 16.36 640.711 16.7227 641.479 17.192L639.943 20.232C639.132 19.7413 638.311 19.4107 637.479 19.24C636.668 19.048 635.858 18.952 635.047 18.952C633.831 18.952 632.924 19.1333 632.327 19.496C631.751 19.8587 631.463 20.3173 631.463 20.872C631.463 21.384 631.655 21.768 632.039 22.024C632.423 22.28 632.924 22.4827 633.543 22.632C634.162 22.7813 634.844 22.9093 635.591 23.016C636.359 23.1013 637.116 23.24 637.863 23.432C638.61 23.624 639.292 23.8907 639.911 24.232C640.551 24.552 641.063 25.0107 641.447 25.608C641.831 26.2053 642.023 26.984 642.023 27.944C642.023 29.0107 641.703 29.9387 641.063 30.728C640.444 31.5173 639.559 32.136 638.407 32.584C637.255 33.0107 635.879 33.224 634.279 33.224Z" fill="black"/>
<path d="M216.352 33V10.6H225.568C227.552 10.6 229.248 10.92 230.656 11.56C232.085 12.2 233.184 13.1173 233.952 14.312C234.72 15.5067 235.104 16.9253 235.104 18.568C235.104 20.2107 234.72 21.6293 233.952 22.824C233.184 24.0187 232.085 24.936 230.656 25.576C229.248 26.216 227.552 26.536 225.568 26.536H218.656L220.512 24.584V33H216.352ZM220.512 25.032L218.656 23.016H225.376C227.21 23.016 228.586 22.632 229.504 21.864C230.442 21.0747 230.912 19.976 230.912 18.568C230.912 17.1387 230.442 16.04 229.504 15.272C228.586 14.504 227.21 14.12 225.376 14.12H218.656L220.512 12.072V25.032ZM238.718 33V15.912H242.526V20.616L242.078 19.24C242.59 18.088 243.39 17.2133 244.478 16.616C245.587 16.0187 246.963 15.72 248.606 15.72V19.528C248.435 19.4853 248.275 19.464 248.126 19.464C247.976 19.4427 247.827 19.432 247.678 19.432C246.163 19.432 244.958 19.88 244.062 20.776C243.166 21.6507 242.718 22.9627 242.718 24.712V33H238.718ZM259.875 33.224C257.976 33.224 256.312 32.8507 254.883 32.104C253.475 31.336 252.376 30.2907 251.587 28.968C250.819 27.6453 250.435 26.1413 250.435 24.456C250.435 22.7493 250.808 21.2453 251.555 19.944C252.323 18.6213 253.368 17.5867 254.691 16.84C256.035 16.0933 257.56 15.72 259.267 15.72C260.931 15.72 262.413 16.0827 263.715 16.808C265.016 17.5333 266.04 18.5573 266.787 19.88C267.533 21.2027 267.907 22.76 267.907 24.552C267.907 24.7227 267.896 24.9147 267.875 25.128C267.875 25.3413 267.864 25.544 267.843 25.736H253.603V23.08H265.731L264.163 23.912C264.184 22.9307 263.981 22.0667 263.555 21.32C263.128 20.5733 262.541 19.9867 261.795 19.56C261.069 19.1333 260.227 18.92 259.267 18.92C258.285 18.92 257.421 19.1333 256.675 19.56C255.949 19.9867 255.373 20.584 254.947 21.352C254.541 22.0987 254.339 22.984 254.339 24.008V24.648C254.339 25.672 254.573 26.5787 255.043 27.368C255.512 28.1573 256.173 28.7653 257.027 29.192C257.88 29.6187 258.861 29.832 259.971 29.832C260.931 29.832 261.795 29.6827 262.563 29.384C263.331 29.0853 264.013 28.616 264.611 27.976L266.755 30.44C265.987 31.336 265.016 32.0293 263.843 32.52C262.691 32.9893 261.368 33.224 259.875 33.224ZM293.317 15.72C294.682 15.72 295.888 15.9867 296.933 16.52C298 17.0533 298.832 17.8747 299.429 18.984C300.026 20.072 300.325 21.48 300.325 23.208V33H296.325V23.72C296.325 22.2053 295.994 21.0747 295.333 20.328C294.672 19.5813 293.722 19.208 292.485 19.208C291.61 19.208 290.832 19.4 290.149 19.784C289.488 20.168 288.965 20.7333 288.581 21.48C288.218 22.2267 288.037 23.176 288.037 24.328V33H284.037V23.72C284.037 22.2053 283.706 21.0747 283.045 20.328C282.384 19.5813 281.434 19.208 280.197 19.208C279.322 19.208 278.544 19.4 277.861 19.784C277.2 20.168 276.677 20.7333 276.293 21.48C275.93 22.2267 275.749 23.176 275.749 24.328V33H271.749V15.912H275.557V20.456L274.885 19.112C275.461 18.0027 276.293 17.16 277.381 16.584C278.49 16.008 279.749 15.72 281.157 15.72C282.757 15.72 284.144 16.1147 285.317 16.904C286.512 17.6933 287.301 18.888 287.685 20.488L286.117 19.944C286.672 18.664 287.589 17.64 288.869 16.872C290.149 16.104 291.632 15.72 293.317 15.72ZM305.437 33V15.912H309.437V33H305.437ZM307.453 13.096C306.706 13.096 306.087 12.8613 305.597 12.392C305.127 11.9227 304.893 11.3573 304.893 10.696C304.893 10.0133 305.127 9.448 305.597 9C306.087 8.53067 306.706 8.296 307.453 8.296C308.199 8.296 308.807 8.52 309.277 8.968C309.767 9.39467 310.013 9.93867 310.013 10.6C310.013 11.304 309.778 11.9013 309.309 12.392C308.839 12.8613 308.221 13.096 307.453 13.096ZM321.919 33.224C320.468 33.224 319.188 32.9573 318.079 32.424C316.969 31.8693 316.105 31.0373 315.487 29.928C314.868 28.7973 314.559 27.3787 314.559 25.672V15.912H318.559V25.128C318.559 26.664 318.9 27.816 319.583 28.584C320.287 29.3307 321.279 29.704 322.559 29.704C323.497 29.704 324.308 29.512 324.991 29.128C325.695 28.744 326.239 28.168 326.623 27.4C327.028 26.632 327.231 25.6827 327.231 24.552V15.912H331.231V33H327.423V28.392L328.095 29.8C327.519 30.9093 326.676 31.7627 325.567 32.36C324.457 32.936 323.241 33.224 321.919 33.224ZM358.036 15.72C359.401 15.72 360.606 15.9867 361.652 16.52C362.718 17.0533 363.55 17.8747 364.148 18.984C364.745 20.072 365.044 21.48 365.044 23.208V33H361.044V23.72C361.044 22.2053 360.713 21.0747 360.052 20.328C359.39 19.5813 358.441 19.208 357.204 19.208C356.329 19.208 355.55 19.4 354.868 19.784C354.206 20.168 353.684 20.7333 353.3 21.48C352.937 22.2267 352.756 23.176 352.756 24.328V33H348.756V23.72C348.756 22.2053 348.425 21.0747 347.764 20.328C347.102 19.5813 346.153 19.208 344.916 19.208C344.041 19.208 343.262 19.4 342.58 19.784C341.918 20.168 341.396 20.7333 341.012 21.48C340.649 22.2267 340.468 23.176 340.468 24.328V33H336.468V15.912H340.276V20.456L339.604 19.112C340.18 18.0027 341.012 17.16 342.1 16.584C343.209 16.008 344.468 15.72 345.876 15.72C347.476 15.72 348.862 16.1147 350.036 16.904C351.23 17.6933 352.02 18.888 352.404 20.488L350.836 19.944C351.39 18.664 352.308 17.64 353.588 16.872C354.868 16.104 356.35 15.72 358.036 15.72Z" fill="#B90000"/>
</g>
<defs>
<filter id="filter0_d_228_2631" x="-1.83569" y="-1.70398" width="657.859" height="58.912" filterUnits="userSpaceOnUse" color-interpolation-filters="sRGB">
<feFlood flood-opacity="0" result="BackgroundImageFix"/>
<feColorMatrix in="SourceAlpha" type="matrix" values="0 0 0 0 0 0 0 0 0 0 0 0 0 0 0 0 0 0 127 0" result="hardAlpha"/>
<feMorphology radius="10" operator="dilate" in="SourceAlpha" result="effect1_dropShadow_228_2631"/>
<feOffset dy="4"/>
<feGaussianBlur stdDeviation="2"/>
<feComposite in2="hardAlpha" operator="out"/>
<feColorMatrix type="matrix" values="0 0 0 0 0 0 0 0 0 0 0 0 0 0 0 0 0 0 0.55 0"/>
<feBlend mode="normal" in2="BackgroundImageFix" result="effect1_dropShadow_228_2631"/>
<feBlend mode="normal" in="SourceGraphic" in2="effect1_dropShadow_228_2631" result="shape"/>
</filter>
</defs>
</svg>
