<svg width="338" height="44" viewBox="0 0 338 44" fill="none" xmlns="http://www.w3.org/2000/svg">
<g filter="url(#filter0_d_174_522)">
<path d="M2.47538 31V12.8H10.3534C11.9827 12.8 13.3867 13.0687 14.5654 13.606C15.7441 14.126 16.6541 14.88 17.2954 15.868C17.9367 16.856 18.2574 18.0347 18.2574 19.404C18.2574 20.756 17.9367 21.926 17.2954 22.914C16.6541 23.8847 15.7441 24.63 14.5654 25.15C13.3867 25.67 11.9827 25.93 10.3534 25.93H4.81538L6.68738 24.084V31H2.47538ZM14.0454 31L9.49538 24.396H13.9934L18.5954 31H14.0454ZM6.68738 24.552L4.81538 22.576H10.1194C11.4194 22.576 12.3901 22.2987 13.0314 21.744C13.6727 21.172 13.9934 20.392 13.9934 19.404C13.9934 18.3987 13.6727 17.6187 13.0314 17.064C12.3901 16.5093 11.4194 16.232 10.1194 16.232H4.81538L6.68738 14.23V24.552ZM28.2505 31.208C26.6559 31.208 25.2519 30.896 24.0385 30.272C22.8425 29.648 21.9152 28.7987 21.2565 27.724C20.5979 26.632 20.2685 25.3927 20.2685 24.006C20.2685 22.602 20.5892 21.3627 21.2305 20.288C21.8892 19.196 22.7819 18.3467 23.9085 17.74C25.0352 17.116 26.3092 16.804 27.7305 16.804C29.0999 16.804 30.3305 17.0987 31.4225 17.688C32.5319 18.26 33.4072 19.092 34.0485 20.184C34.6899 21.2587 35.0105 22.55 35.0105 24.058C35.0105 24.214 35.0019 24.396 34.9845 24.604C34.9672 24.7947 34.9499 24.9767 34.9325 25.15H23.5705V22.784H32.8005L31.2405 23.486C31.2405 22.758 31.0932 22.1253 30.7985 21.588C30.5039 21.0507 30.0965 20.6347 29.5765 20.34C29.0565 20.028 28.4499 19.872 27.7565 19.872C27.0632 19.872 26.4479 20.028 25.9105 20.34C25.3905 20.6347 24.9832 21.0593 24.6885 21.614C24.3939 22.1513 24.2465 22.7927 24.2465 23.538V24.162C24.2465 24.9247 24.4112 25.6007 24.7405 26.19C25.0872 26.762 25.5639 27.204 26.1705 27.516C26.7945 27.8107 27.5225 27.958 28.3545 27.958C29.0999 27.958 29.7499 27.8453 30.3045 27.62C30.8765 27.3947 31.3965 27.0567 31.8645 26.606L34.0225 28.946C33.3812 29.674 32.5752 30.2373 31.6045 30.636C30.6339 31.0173 29.5159 31.208 28.2505 31.208ZM45.91 31V28.27L45.65 27.672V22.784C45.65 21.9173 45.3813 21.2413 44.844 20.756C44.324 20.2707 43.518 20.028 42.426 20.028C41.6807 20.028 40.944 20.1493 40.216 20.392C39.5053 20.6173 38.8987 20.9293 38.396 21.328L36.94 18.494C37.7027 17.9567 38.6213 17.5407 39.696 17.246C40.7707 16.9513 41.8627 16.804 42.972 16.804C45.104 16.804 46.7593 17.3067 47.938 18.312C49.1167 19.3173 49.706 20.886 49.706 23.018V31H45.91ZM41.646 31.208C40.554 31.208 39.618 31.026 38.838 30.662C38.058 30.2807 37.46 29.7693 37.044 29.128C36.628 28.4867 36.42 27.7673 36.42 26.97C36.42 26.138 36.6193 25.41 37.018 24.786C37.434 24.162 38.084 23.6767 38.968 23.33C39.852 22.966 41.0047 22.784 42.426 22.784H46.144V25.15H42.868C41.9147 25.15 41.256 25.306 40.892 25.618C40.5453 25.93 40.372 26.32 40.372 26.788C40.372 27.308 40.5713 27.724 40.97 28.036C41.386 28.3307 41.9493 28.478 42.66 28.478C43.336 28.478 43.9427 28.322 44.48 28.01C45.0173 27.6807 45.4073 27.204 45.65 26.58L46.274 28.452C45.9793 29.3533 45.442 30.038 44.662 30.506C43.882 30.974 42.8767 31.208 41.646 31.208ZM59.4844 31.208C58.1671 31.208 56.9798 30.9133 55.9224 30.324C54.8651 29.7173 54.0244 28.8767 53.4004 27.802C52.7938 26.7273 52.4904 25.462 52.4904 24.006C52.4904 22.5327 52.7938 21.2587 53.4004 20.184C54.0244 19.1093 54.8651 18.2773 55.9224 17.688C56.9798 17.0987 58.1671 16.804 59.4844 16.804C60.6631 16.804 61.6944 17.064 62.5784 17.584C63.4624 18.104 64.1471 18.8927 64.6324 19.95C65.1178 21.0073 65.3604 22.3593 65.3604 24.006C65.3604 25.6353 65.1264 26.9873 64.6584 28.062C64.1904 29.1193 63.5144 29.908 62.6304 30.428C61.7638 30.948 60.7151 31.208 59.4844 31.208ZM60.1864 27.88C60.8451 27.88 61.4431 27.724 61.9804 27.412C62.5178 27.1 62.9424 26.658 63.2544 26.086C63.5838 25.4967 63.7484 24.8033 63.7484 24.006C63.7484 23.1913 63.5838 22.498 63.2544 21.926C62.9424 21.354 62.5178 20.912 61.9804 20.6C61.4431 20.288 60.8451 20.132 60.1864 20.132C59.5104 20.132 58.9038 20.288 58.3664 20.6C57.8291 20.912 57.3958 21.354 57.0664 21.926C56.7544 22.498 56.5984 23.1913 56.5984 24.006C56.5984 24.8033 56.7544 25.4967 57.0664 26.086C57.3958 26.658 57.8291 27.1 58.3664 27.412C58.9038 27.724 59.5104 27.88 60.1864 27.88ZM63.8524 31V28.14L63.9304 23.98L63.6704 19.846V11.708H67.7264V31H63.8524ZM73.2484 36.252C72.5204 36.252 71.8011 36.1393 71.0904 35.914C70.3797 35.6887 69.7991 35.3767 69.3484 34.978L70.8304 32.092C71.1424 32.3693 71.4977 32.586 71.8964 32.742C72.3124 32.898 72.7197 32.976 73.1184 32.976C73.6904 32.976 74.1411 32.8373 74.4704 32.56C74.8171 32.3 75.1291 31.858 75.4064 31.234L76.1344 29.518L76.4464 29.076L81.4644 17.012H85.3644L79.0464 31.858C78.5957 32.9847 78.0757 33.8687 77.4864 34.51C76.9144 35.1513 76.2731 35.602 75.5624 35.862C74.8691 36.122 74.0977 36.252 73.2484 36.252ZM75.6404 31.546L69.4004 17.012H73.5864L78.4224 28.712L75.6404 31.546ZM100.103 31.208C98.4561 31.208 97.1734 30.792 96.2547 29.96C95.3361 29.1107 94.8767 27.854 94.8767 26.19V13.918H98.9327V26.138C98.9327 26.7273 99.0887 27.1867 99.4007 27.516C99.7127 27.828 100.137 27.984 100.675 27.984C101.316 27.984 101.862 27.8107 102.313 27.464L103.405 30.324C102.989 30.6187 102.486 30.844 101.897 31C101.325 31.1387 100.727 31.208 100.103 31.208ZM92.7187 20.444V17.324H102.417V20.444H92.7187ZM111.906 31.208C110.415 31.208 109.089 30.896 107.928 30.272C106.784 29.648 105.874 28.7987 105.198 27.724C104.539 26.632 104.21 25.3927 104.21 24.006C104.21 22.602 104.539 21.3627 105.198 20.288C105.874 19.196 106.784 18.3467 107.928 17.74C109.089 17.116 110.415 16.804 111.906 16.804C113.379 16.804 114.697 17.116 115.858 17.74C117.019 18.3467 117.929 19.1873 118.588 20.262C119.247 21.3367 119.576 22.5847 119.576 24.006C119.576 25.3927 119.247 26.632 118.588 27.724C117.929 28.7987 117.019 29.648 115.858 30.272C114.697 30.896 113.379 31.208 111.906 31.208ZM111.906 27.88C112.582 27.88 113.189 27.724 113.726 27.412C114.263 27.1 114.688 26.658 115 26.086C115.312 25.4967 115.468 24.8033 115.468 24.006C115.468 23.1913 115.312 22.498 115 21.926C114.688 21.354 114.263 20.912 113.726 20.6C113.189 20.288 112.582 20.132 111.906 20.132C111.23 20.132 110.623 20.288 110.086 20.6C109.549 20.912 109.115 21.354 108.786 21.926C108.474 22.498 108.318 23.1913 108.318 24.006C108.318 24.8033 108.474 25.4967 108.786 26.086C109.115 26.658 109.549 27.1 110.086 27.412C110.623 27.724 111.23 27.88 111.906 27.88ZM133.836 20.99H142.572V24.37H133.836V20.99ZM134.148 31H129.936V12.8H143.69V16.18H134.148V31ZM146.256 31V17.012H150.312V31H146.256ZM148.284 15.062C147.538 15.062 146.932 14.8453 146.464 14.412C145.996 13.9787 145.762 13.4413 145.762 12.8C145.762 12.1587 145.996 11.6213 146.464 11.188C146.932 10.7547 147.538 10.538 148.284 10.538C149.029 10.538 149.636 10.746 150.104 11.162C150.572 11.5607 150.806 12.0807 150.806 12.722C150.806 13.398 150.572 13.9613 150.104 14.412C149.653 14.8453 149.046 15.062 148.284 15.062ZM162.578 16.804C163.687 16.804 164.675 17.0293 165.542 17.48C166.426 17.9133 167.119 18.5893 167.622 19.508C168.125 20.4093 168.376 21.5707 168.376 22.992V31H164.32V23.616C164.32 22.4893 164.069 21.6573 163.566 21.12C163.081 20.5827 162.387 20.314 161.486 20.314C160.845 20.314 160.264 20.4527 159.744 20.73C159.241 20.99 158.843 21.3973 158.548 21.952C158.271 22.5067 158.132 23.2173 158.132 24.084V31H154.076V17.012H157.95V20.886L157.222 19.716C157.725 18.78 158.444 18.0607 159.38 17.558C160.316 17.0553 161.382 16.804 162.578 16.804ZM178.16 31.208C176.843 31.208 175.656 30.9133 174.598 30.324C173.541 29.7173 172.7 28.8767 172.076 27.802C171.47 26.7273 171.166 25.462 171.166 24.006C171.166 22.5327 171.47 21.2587 172.076 20.184C172.7 19.1093 173.541 18.2773 174.598 17.688C175.656 17.0987 176.843 16.804 178.16 16.804C179.339 16.804 180.37 17.064 181.254 17.584C182.138 18.104 182.823 18.8927 183.308 19.95C183.794 21.0073 184.036 22.3593 184.036 24.006C184.036 25.6353 183.802 26.9873 183.334 28.062C182.866 29.1193 182.19 29.908 181.306 30.428C180.44 30.948 179.391 31.208 178.16 31.208ZM178.862 27.88C179.521 27.88 180.119 27.724 180.656 27.412C181.194 27.1 181.618 26.658 181.93 26.086C182.26 25.4967 182.424 24.8033 182.424 24.006C182.424 23.1913 182.26 22.498 181.93 21.926C181.618 21.354 181.194 20.912 180.656 20.6C180.119 20.288 179.521 20.132 178.862 20.132C178.186 20.132 177.58 20.288 177.042 20.6C176.505 20.912 176.072 21.354 175.742 21.926C175.43 22.498 175.274 23.1913 175.274 24.006C175.274 24.8033 175.43 25.4967 175.742 26.086C176.072 26.658 176.505 27.1 177.042 27.412C177.58 27.724 178.186 27.88 178.862 27.88ZM182.528 31V28.14L182.606 23.98L182.346 19.846V11.708H186.402V31H182.528ZM202.329 31V23.564L203.291 26.112L195.283 12.8H199.755L205.891 23.018H203.317L209.479 12.8H213.613L205.605 26.112L206.541 23.564V31H202.329ZM220.197 31.208C218.706 31.208 217.38 30.896 216.219 30.272C215.075 29.648 214.165 28.7987 213.489 27.724C212.83 26.632 212.501 25.3927 212.501 24.006C212.501 22.602 212.83 21.3627 213.489 20.288C214.165 19.196 215.075 18.3467 216.219 17.74C217.38 17.116 218.706 16.804 220.197 16.804C221.67 16.804 222.988 17.116 224.149 17.74C225.31 18.3467 226.22 19.1873 226.879 20.262C227.538 21.3367 227.867 22.5847 227.867 24.006C227.867 25.3927 227.538 26.632 226.879 27.724C226.22 28.7987 225.31 29.648 224.149 30.272C222.988 30.896 221.67 31.208 220.197 31.208ZM220.197 27.88C220.873 27.88 221.48 27.724 222.017 27.412C222.554 27.1 222.979 26.658 223.291 26.086C223.603 25.4967 223.759 24.8033 223.759 24.006C223.759 23.1913 223.603 22.498 223.291 21.926C222.979 21.354 222.554 20.912 222.017 20.6C221.48 20.288 220.873 20.132 220.197 20.132C219.521 20.132 218.914 20.288 218.377 20.6C217.84 20.912 217.406 21.354 217.077 21.926C216.765 22.498 216.609 23.1913 216.609 24.006C216.609 24.8033 216.765 25.4967 217.077 26.086C217.406 26.658 217.84 27.1 218.377 27.412C218.914 27.724 219.521 27.88 220.197 27.88ZM236.48 31.208C235.319 31.208 234.279 30.9827 233.36 30.532C232.459 30.0813 231.757 29.3967 231.254 28.478C230.751 27.542 230.5 26.3547 230.5 24.916V17.012H234.556V24.318C234.556 25.4793 234.799 26.3373 235.284 26.892C235.787 27.4293 236.489 27.698 237.39 27.698C238.014 27.698 238.569 27.568 239.054 27.308C239.539 27.0307 239.921 26.6147 240.198 26.06C240.475 25.488 240.614 24.7773 240.614 23.928V17.012H244.67V31H240.822V27.152L241.524 28.27C241.056 29.2407 240.363 29.9773 239.444 30.48C238.543 30.9653 237.555 31.208 236.48 31.208ZM248.428 31V17.012H252.302V20.964L251.756 19.82C252.172 18.832 252.839 18.0867 253.758 17.584C254.676 17.064 255.794 16.804 257.112 16.804V20.548C256.938 20.5307 256.782 20.522 256.644 20.522C256.505 20.5047 256.358 20.496 256.202 20.496C255.092 20.496 254.191 20.8167 253.498 21.458C252.822 22.082 252.484 23.0613 252.484 24.396V31H248.428ZM267.274 31V12.8H275.152C276.782 12.8 278.186 13.0687 279.364 13.606C280.543 14.126 281.453 14.88 282.094 15.868C282.736 16.856 283.056 18.0347 283.056 19.404C283.056 20.756 282.736 21.926 282.094 22.914C281.453 23.902 280.543 24.6647 279.364 25.202C278.186 25.722 276.782 25.982 275.152 25.982H269.614L271.486 24.084V31H267.274ZM271.486 24.552L269.614 22.55H274.918C276.218 22.55 277.189 22.2727 277.83 21.718C278.472 21.1633 278.792 20.392 278.792 19.404C278.792 18.3987 278.472 17.6187 277.83 17.064C277.189 16.5093 276.218 16.232 274.918 16.232H269.614L271.486 14.23V24.552ZM294.23 31V28.27L293.97 27.672V22.784C293.97 21.9173 293.702 21.2413 293.164 20.756C292.644 20.2707 291.838 20.028 290.746 20.028C290.001 20.028 289.264 20.1493 288.536 20.392C287.826 20.6173 287.219 20.9293 286.716 21.328L285.26 18.494C286.023 17.9567 286.942 17.5407 288.016 17.246C289.091 16.9513 290.183 16.804 291.292 16.804C293.424 16.804 295.08 17.3067 296.258 18.312C297.437 19.3173 298.026 20.886 298.026 23.018V31H294.23ZM289.966 31.208C288.874 31.208 287.938 31.026 287.158 30.662C286.378 30.2807 285.78 29.7693 285.364 29.128C284.948 28.4867 284.74 27.7673 284.74 26.97C284.74 26.138 284.94 25.41 285.338 24.786C285.754 24.162 286.404 23.6767 287.288 23.33C288.172 22.966 289.325 22.784 290.746 22.784H294.464V25.15H291.188C290.235 25.15 289.576 25.306 289.212 25.618C288.866 25.93 288.692 26.32 288.692 26.788C288.692 27.308 288.892 27.724 289.29 28.036C289.706 28.3307 290.27 28.478 290.98 28.478C291.656 28.478 292.263 28.322 292.8 28.01C293.338 27.6807 293.728 27.204 293.97 26.58L294.594 28.452C294.3 29.3533 293.762 30.038 292.982 30.506C292.202 30.974 291.197 31.208 289.966 31.208ZM301.697 31V17.012H305.571V20.964L305.025 19.82C305.441 18.832 306.109 18.0867 307.027 17.584C307.946 17.064 309.064 16.804 310.381 16.804V20.548C310.208 20.5307 310.052 20.522 309.913 20.522C309.775 20.5047 309.627 20.496 309.471 20.496C308.362 20.496 307.461 20.8167 306.767 21.458C306.091 22.082 305.753 23.0613 305.753 24.396V31H301.697ZM318.995 31.208C317.349 31.208 316.066 30.792 315.147 29.96C314.229 29.1107 313.769 27.854 313.769 26.19V13.918H317.825V26.138C317.825 26.7273 317.981 27.1867 318.293 27.516C318.605 27.828 319.03 27.984 319.567 27.984C320.209 27.984 320.755 27.8107 321.205 27.464L322.297 30.324C321.881 30.6187 321.379 30.844 320.789 31C320.217 31.1387 319.619 31.208 318.995 31.208ZM311.611 20.444V17.324H321.309V20.444H311.611ZM328.014 24.682C328.014 24.0753 328.109 23.538 328.3 23.07C328.508 22.602 328.759 22.186 329.054 21.822C329.366 21.458 329.695 21.12 330.042 20.808C330.389 20.496 330.709 20.2013 331.004 19.924C331.316 19.6293 331.567 19.326 331.758 19.014C331.966 18.702 332.07 18.3553 332.07 17.974C332.07 17.35 331.81 16.8473 331.29 16.466C330.787 16.0847 330.111 15.894 329.262 15.894C328.447 15.894 327.719 16.0673 327.078 16.414C326.437 16.7433 325.908 17.2113 325.492 17.818L322.346 15.972C323.039 14.9147 324.001 14.074 325.232 13.45C326.463 12.8087 327.953 12.488 329.704 12.488C331.004 12.488 332.148 12.6787 333.136 13.06C334.124 13.424 334.895 13.9613 335.45 14.672C336.022 15.3827 336.308 16.258 336.308 17.298C336.308 17.974 336.204 18.572 335.996 19.092C335.788 19.612 335.519 20.0627 335.19 20.444C334.861 20.8253 334.505 21.1807 334.124 21.51C333.76 21.8393 333.413 22.16 333.084 22.472C332.755 22.784 332.477 23.1133 332.252 23.46C332.044 23.8067 331.94 24.214 331.94 24.682H328.014ZM329.99 31.208C329.262 31.208 328.664 30.974 328.196 30.506C327.728 30.038 327.494 29.4833 327.494 28.842C327.494 28.1833 327.728 27.6373 328.196 27.204C328.664 26.7533 329.262 26.528 329.99 26.528C330.735 26.528 331.333 26.7533 331.784 27.204C332.252 27.6373 332.486 28.1833 332.486 28.842C332.486 29.4833 332.252 30.038 331.784 30.506C331.333 30.974 330.735 31.208 329.99 31.208Z" fill="#D51F25"/>
</g>
<defs>
<filter id="filter0_d_174_522" x="-2.3246" y="5.73809" width="343.433" height="35.3139" filterUnits="userSpaceOnUse" color-interpolation-filters="sRGB">
<feFlood flood-opacity="0" result="BackgroundImageFix"/>
<feColorMatrix in="SourceAlpha" type="matrix" values="0 0 0 0 0 0 0 0 0 0 0 0 0 0 0 0 0 0 127 0" result="hardAlpha"/>
<feOffset/>
<feGaussianBlur stdDeviation="2.4"/>
<feComposite in2="hardAlpha" operator="out"/>
<feColorMatrix type="matrix" values="0 0 0 0 0 0 0 0 0 0 0 0 0 0 0 0 0 0 0.12 0"/>
<feBlend mode="normal" in2="BackgroundImageFix" result="effect1_dropShadow_174_522"/>
<feBlend mode="normal" in="SourceGraphic" in2="effect1_dropShadow_174_522" result="shape"/>
</filter>
</defs>
</svg>
