<svg width="333" height="44" viewBox="0 0 333 44" fill="none" xmlns="http://www.w3.org/2000/svg">
<g filter="url(#filter0_d_174_546)">
<path d="M3.80994 27L0.533938 17.2H1.97594L4.98594 26.244H4.25794L7.37994 17.2H8.66794L11.7199 26.244H11.0199L14.0719 17.2H15.4019L12.1259 27H10.6559L7.79994 18.614H8.17794L5.30794 27H3.80994ZM19.662 27.084C18.8687 27.084 18.1687 26.9207 17.562 26.594C16.9647 26.2673 16.498 25.8193 16.162 25.25C15.8353 24.6807 15.672 24.0273 15.672 23.29C15.672 22.5527 15.8307 21.8993 16.148 21.33C16.4747 20.7607 16.918 20.3173 17.478 20C18.0473 19.6733 18.6867 19.51 19.396 19.51C20.1147 19.51 20.7493 19.6687 21.3 19.986C21.8507 20.3033 22.28 20.7513 22.588 21.33C22.9053 21.8993 23.064 22.5667 23.064 23.332C23.064 23.388 23.0593 23.4533 23.05 23.528C23.05 23.6027 23.0453 23.6727 23.036 23.738H16.722V22.772H22.336L21.79 23.108C21.7993 22.632 21.7013 22.2073 21.496 21.834C21.2907 21.4607 21.006 21.1713 20.642 20.966C20.2873 20.7513 19.872 20.644 19.396 20.644C18.9293 20.644 18.514 20.7513 18.15 20.966C17.786 21.1713 17.5013 21.4653 17.296 21.848C17.0907 22.2213 16.988 22.6507 16.988 23.136V23.36C16.988 23.8547 17.1 24.298 17.324 24.69C17.5573 25.0727 17.8793 25.3713 18.29 25.586C18.7007 25.8007 19.172 25.908 19.704 25.908C20.1427 25.908 20.5393 25.8333 20.894 25.684C21.258 25.5347 21.5753 25.3107 21.846 25.012L22.588 25.88C22.252 26.272 21.832 26.5707 21.328 26.776C20.8333 26.9813 20.278 27.084 19.662 27.084ZM30.818 27.084C30.202 27.084 29.614 27 29.054 26.832C28.5033 26.664 28.0693 26.4587 27.752 26.216L28.312 25.152C28.6293 25.3667 29.0213 25.5487 29.488 25.698C29.9547 25.8473 30.4307 25.922 30.916 25.922C31.5413 25.922 31.9893 25.8333 32.26 25.656C32.54 25.4787 32.68 25.2313 32.68 24.914C32.68 24.6807 32.596 24.4987 32.428 24.368C32.26 24.2373 32.036 24.1393 31.756 24.074C31.4853 24.0087 31.182 23.9527 30.846 23.906C30.51 23.85 30.174 23.7847 29.838 23.71C29.502 23.626 29.194 23.514 28.914 23.374C28.634 23.2247 28.41 23.024 28.242 22.772C28.074 22.5107 27.99 22.1653 27.99 21.736C27.99 21.288 28.116 20.896 28.368 20.56C28.62 20.224 28.9747 19.9673 29.432 19.79C29.8987 19.6033 30.4493 19.51 31.084 19.51C31.5693 19.51 32.0593 19.5707 32.554 19.692C33.058 19.804 33.4687 19.9673 33.786 20.182L33.212 21.246C32.876 21.022 32.526 20.868 32.162 20.784C31.798 20.7 31.434 20.658 31.07 20.658C30.482 20.658 30.0433 20.756 29.754 20.952C29.4647 21.1387 29.32 21.3813 29.32 21.68C29.32 21.932 29.404 22.128 29.572 22.268C29.7493 22.3987 29.9733 22.5013 30.244 22.576C30.524 22.6507 30.832 22.716 31.168 22.772C31.504 22.8187 31.84 22.884 32.176 22.968C32.512 23.0427 32.8153 23.15 33.086 23.29C33.366 23.43 33.59 23.626 33.758 23.878C33.9353 24.13 34.024 24.466 34.024 24.886C34.024 25.334 33.8933 25.7213 33.632 26.048C33.3707 26.3747 33.002 26.6313 32.526 26.818C32.05 26.9953 31.4807 27.084 30.818 27.084ZM38.2517 27.084C37.505 27.084 36.9264 26.8833 36.5157 26.482C36.105 26.0807 35.8997 25.5067 35.8997 24.76V17.956H37.2437V24.704C37.2437 25.1053 37.3417 25.4133 37.5377 25.628C37.743 25.8427 38.0324 25.95 38.4057 25.95C38.8257 25.95 39.1757 25.8333 39.4557 25.6L39.8757 26.566C39.6704 26.7433 39.423 26.874 39.1337 26.958C38.8537 27.042 38.5597 27.084 38.2517 27.084ZM34.6397 20.686V19.58H39.3717V20.686H34.6397ZM44.4325 27.084C43.6858 27.084 43.0231 26.9207 42.4445 26.594C41.8658 26.2673 41.4085 25.8193 41.0725 25.25C40.7365 24.6713 40.5685 24.018 40.5685 23.29C40.5685 22.5527 40.7365 21.8993 41.0725 21.33C41.4085 20.7607 41.8658 20.3173 42.4445 20C43.0231 19.6733 43.6858 19.51 44.4325 19.51C45.1698 19.51 45.8278 19.6733 46.4065 20C46.9945 20.3173 47.4518 20.7607 47.7785 21.33C48.1145 21.89 48.2825 22.5433 48.2825 23.29C48.2825 24.0273 48.1145 24.6807 47.7785 25.25C47.4518 25.8193 46.9945 26.2673 46.4065 26.594C45.8278 26.9207 45.1698 27.084 44.4325 27.084ZM44.4325 25.908C44.9085 25.908 45.3331 25.8007 45.7065 25.586C46.0891 25.3713 46.3878 25.068 46.6025 24.676C46.8171 24.2747 46.9245 23.8127 46.9245 23.29C46.9245 22.758 46.8171 22.3007 46.6025 21.918C46.3878 21.526 46.0891 21.2227 45.7065 21.008C45.3331 20.7933 44.9085 20.686 44.4325 20.686C43.9565 20.686 43.5318 20.7933 43.1585 21.008C42.7851 21.2227 42.4865 21.526 42.2625 21.918C42.0385 22.3007 41.9265 22.758 41.9265 23.29C41.9265 23.8127 42.0385 24.2747 42.2625 24.676C42.4865 25.068 42.7851 25.3713 43.1585 25.586C43.5318 25.8007 43.9565 25.908 44.4325 25.908ZM53.3752 27.084C52.6192 27.084 51.9425 26.9207 51.3452 26.594C50.7572 26.2673 50.2952 25.8193 49.9592 25.25C49.6232 24.6807 49.4552 24.0273 49.4552 23.29C49.4552 22.5527 49.6232 21.8993 49.9592 21.33C50.2952 20.7607 50.7572 20.3173 51.3452 20C51.9425 19.6733 52.6192 19.51 53.3752 19.51C54.0472 19.51 54.6445 19.6453 55.1672 19.916C55.6992 20.1773 56.1099 20.5693 56.3992 21.092L55.3772 21.75C55.1345 21.386 54.8359 21.12 54.4812 20.952C54.1359 20.7747 53.7625 20.686 53.3612 20.686C52.8759 20.686 52.4419 20.7933 52.0592 21.008C51.6765 21.2227 51.3732 21.526 51.1492 21.918C50.9252 22.3007 50.8132 22.758 50.8132 23.29C50.8132 23.822 50.9252 24.284 51.1492 24.676C51.3732 25.068 51.6765 25.3713 52.0592 25.586C52.4419 25.8007 52.8759 25.908 53.3612 25.908C53.7625 25.908 54.1359 25.824 54.4812 25.656C54.8359 25.4787 55.1345 25.208 55.3772 24.844L56.3992 25.488C56.1099 26.0013 55.6992 26.398 55.1672 26.678C54.6445 26.9487 54.0472 27.084 53.3752 27.084ZM59.1355 25.208L59.1635 23.486L63.4335 19.58H65.0575L61.7815 22.8L61.0535 23.416L59.1355 25.208ZM58.0435 27V16.612H59.3875V27H58.0435ZM63.7135 27L60.8015 23.388L61.6695 22.31L65.3655 27H63.7135ZM74.3643 27.084C73.7483 27.084 73.1836 26.944 72.6703 26.664C72.1663 26.3747 71.7603 25.95 71.4523 25.39C71.1536 24.83 71.0042 24.13 71.0042 23.29C71.0042 22.45 71.1489 21.75 71.4383 21.19C71.7369 20.63 72.1383 20.21 72.6423 19.93C73.1556 19.65 73.7296 19.51 74.3643 19.51C75.0923 19.51 75.7363 19.6687 76.2963 19.986C76.8563 20.3033 77.2996 20.7467 77.6263 21.316C77.9529 21.876 78.1163 22.534 78.1163 23.29C78.1163 24.046 77.9529 24.7087 77.6263 25.278C77.2996 25.8473 76.8563 26.2907 76.2963 26.608C75.7363 26.9253 75.0923 27.084 74.3643 27.084ZM70.4303 29.716V19.58H71.7183V21.582L71.6343 23.304L71.7743 25.026V29.716H70.4303ZM74.2523 25.908C74.7283 25.908 75.1529 25.8007 75.5263 25.586C75.9089 25.3713 76.2076 25.068 76.4223 24.676C76.6463 24.2747 76.7583 23.8127 76.7583 23.29C76.7583 22.758 76.6463 22.3007 76.4223 21.918C76.2076 21.526 75.9089 21.2227 75.5263 21.008C75.1529 20.7933 74.7283 20.686 74.2523 20.686C73.7856 20.686 73.3609 20.7933 72.9783 21.008C72.6049 21.2227 72.3063 21.526 72.0823 21.918C71.8676 22.3007 71.7603 22.758 71.7603 23.29C71.7603 23.8127 71.8676 24.2747 72.0823 24.676C72.3063 25.068 72.6049 25.3713 72.9783 25.586C73.3609 25.8007 73.7856 25.908 74.2523 25.908ZM84.5109 27V25.432L84.4409 25.138V22.464C84.4409 21.8947 84.2729 21.456 83.9369 21.148C83.6102 20.8307 83.1155 20.672 82.4529 20.672C82.0142 20.672 81.5849 20.7467 81.1649 20.896C80.7449 21.036 80.3902 21.2273 80.1009 21.47L79.5409 20.462C79.9235 20.154 80.3809 19.9207 80.9129 19.762C81.4542 19.594 82.0189 19.51 82.6069 19.51C83.6242 19.51 84.4082 19.7573 84.9589 20.252C85.5095 20.7467 85.7849 21.5027 85.7849 22.52V27H84.5109ZM82.0749 27.084C81.5242 27.084 81.0389 26.9907 80.6189 26.804C80.2082 26.6173 79.8909 26.3607 79.6669 26.034C79.4429 25.698 79.3309 25.32 79.3309 24.9C79.3309 24.4987 79.4242 24.1347 79.6109 23.808C79.8069 23.4813 80.1195 23.22 80.5489 23.024C80.9875 22.828 81.5755 22.73 82.3129 22.73H84.6649V23.696H82.3689C81.6969 23.696 81.2442 23.808 81.0109 24.032C80.7775 24.256 80.6609 24.5267 80.6609 24.844C80.6609 25.208 80.8055 25.502 81.0949 25.726C81.3842 25.9407 81.7855 26.048 82.2989 26.048C82.8029 26.048 83.2415 25.936 83.6149 25.712C83.9975 25.488 84.2729 25.1613 84.4409 24.732L84.7069 25.656C84.5295 26.0947 84.2169 26.4447 83.7689 26.706C83.3209 26.958 82.7562 27.084 82.0749 27.084ZM88.272 27V19.58H89.56V21.596L89.434 21.092C89.6394 20.5787 89.9847 20.1867 90.47 19.916C90.9554 19.6453 91.5527 19.51 92.262 19.51V20.812C92.206 20.8027 92.15 20.798 92.094 20.798C92.0474 20.798 92.0007 20.798 91.954 20.798C91.2354 20.798 90.666 21.0127 90.246 21.442C89.826 21.8713 89.616 22.492 89.616 23.304V27H88.272ZM96.7673 27.084C96.0206 27.084 95.442 26.8833 95.0313 26.482C94.6206 26.0807 94.4153 25.5067 94.4153 24.76V17.956H95.7593V24.704C95.7593 25.1053 95.8573 25.4133 96.0533 25.628C96.2586 25.8427 96.548 25.95 96.9213 25.95C97.3413 25.95 97.6913 25.8333 97.9713 25.6L98.3913 26.566C98.186 26.7433 97.9386 26.874 97.6493 26.958C97.3693 27.042 97.0753 27.084 96.7673 27.084ZM93.1553 20.686V19.58H97.8873V20.686H93.1553ZM102.144 27.084C101.528 27.084 100.94 27 100.38 26.832C99.8295 26.664 99.3955 26.4587 99.0782 26.216L99.6382 25.152C99.9555 25.3667 100.348 25.5487 100.814 25.698C101.281 25.8473 101.757 25.922 102.242 25.922C102.868 25.922 103.316 25.8333 103.586 25.656C103.866 25.4787 104.006 25.2313 104.006 24.914C104.006 24.6807 103.922 24.4987 103.754 24.368C103.586 24.2373 103.362 24.1393 103.082 24.074C102.812 24.0087 102.508 23.9527 102.172 23.906C101.836 23.85 101.5 23.7847 101.164 23.71C100.828 23.626 100.52 23.514 100.24 23.374C99.9602 23.2247 99.7362 23.024 99.5682 22.772C99.4002 22.5107 99.3162 22.1653 99.3162 21.736C99.3162 21.288 99.4422 20.896 99.6942 20.56C99.9462 20.224 100.301 19.9673 100.758 19.79C101.225 19.6033 101.776 19.51 102.41 19.51C102.896 19.51 103.386 19.5707 103.88 19.692C104.384 19.804 104.795 19.9673 105.112 20.182L104.538 21.246C104.202 21.022 103.852 20.868 103.488 20.784C103.124 20.7 102.76 20.658 102.396 20.658C101.808 20.658 101.37 20.756 101.08 20.952C100.791 21.1387 100.646 21.3813 100.646 21.68C100.646 21.932 100.73 22.128 100.898 22.268C101.076 22.3987 101.3 22.5013 101.57 22.576C101.85 22.6507 102.158 22.716 102.494 22.772C102.83 22.8187 103.166 22.884 103.502 22.968C103.838 23.0427 104.142 23.15 104.412 23.29C104.692 23.43 104.916 23.626 105.084 23.878C105.262 24.13 105.35 24.466 105.35 24.886C105.35 25.334 105.22 25.7213 104.958 26.048C104.697 26.3747 104.328 26.6313 103.852 26.818C103.376 26.9953 102.807 27.084 102.144 27.084ZM110.986 27V18.922C110.986 18.194 111.196 17.6153 111.616 17.186C112.045 16.7473 112.652 16.528 113.436 16.528C113.725 16.528 114 16.5653 114.262 16.64C114.532 16.7053 114.761 16.8127 114.948 16.962L114.542 17.984C114.402 17.872 114.243 17.788 114.066 17.732C113.888 17.6667 113.702 17.634 113.506 17.634C113.114 17.634 112.815 17.746 112.61 17.97C112.404 18.1847 112.302 18.5067 112.302 18.936V19.93L112.33 20.546V27H110.986ZM109.726 20.686V19.58H114.458V20.686H109.726ZM118.794 27.084C118.047 27.084 117.384 26.9207 116.806 26.594C116.227 26.2673 115.77 25.8193 115.434 25.25C115.098 24.6713 114.93 24.018 114.93 23.29C114.93 22.5527 115.098 21.8993 115.434 21.33C115.77 20.7607 116.227 20.3173 116.806 20C117.384 19.6733 118.047 19.51 118.794 19.51C119.531 19.51 120.189 19.6733 120.768 20C121.356 20.3173 121.813 20.7607 122.14 21.33C122.476 21.89 122.644 22.5433 122.644 23.29C122.644 24.0273 122.476 24.6807 122.14 25.25C121.813 25.8193 121.356 26.2673 120.768 26.594C120.189 26.9207 119.531 27.084 118.794 27.084ZM118.794 25.908C119.27 25.908 119.694 25.8007 120.068 25.586C120.45 25.3713 120.749 25.068 120.964 24.676C121.178 24.2747 121.286 23.8127 121.286 23.29C121.286 22.758 121.178 22.3007 120.964 21.918C120.749 21.526 120.45 21.2227 120.068 21.008C119.694 20.7933 119.27 20.686 118.794 20.686C118.318 20.686 117.893 20.7933 117.52 21.008C117.146 21.2227 116.848 21.526 116.624 21.918C116.4 22.3007 116.288 22.758 116.288 23.29C116.288 23.8127 116.4 24.2747 116.624 24.676C116.848 25.068 117.146 25.3713 117.52 25.586C117.893 25.8007 118.318 25.908 118.794 25.908ZM124.503 27V19.58H125.791V21.596L125.665 21.092C125.87 20.5787 126.215 20.1867 126.701 19.916C127.186 19.6453 127.783 19.51 128.493 19.51V20.812C128.437 20.8027 128.381 20.798 128.325 20.798C128.278 20.798 128.231 20.798 128.185 20.798C127.466 20.798 126.897 21.0127 126.477 21.442C126.057 21.8713 125.847 22.492 125.847 23.304V27H124.503ZM138.61 27V25.432L138.54 25.138V22.464C138.54 21.8947 138.372 21.456 138.036 21.148C137.71 20.8307 137.215 20.672 136.552 20.672C136.114 20.672 135.684 20.7467 135.264 20.896C134.844 21.036 134.49 21.2273 134.2 21.47L133.64 20.462C134.023 20.154 134.48 19.9207 135.012 19.762C135.554 19.594 136.118 19.51 136.706 19.51C137.724 19.51 138.508 19.7573 139.058 20.252C139.609 20.7467 139.884 21.5027 139.884 22.52V27H138.61ZM136.174 27.084C135.624 27.084 135.138 26.9907 134.718 26.804C134.308 26.6173 133.99 26.3607 133.766 26.034C133.542 25.698 133.43 25.32 133.43 24.9C133.43 24.4987 133.524 24.1347 133.71 23.808C133.906 23.4813 134.219 23.22 134.648 23.024C135.087 22.828 135.675 22.73 136.412 22.73H138.764V23.696H136.468C135.796 23.696 135.344 23.808 135.11 24.032C134.877 24.256 134.76 24.5267 134.76 24.844C134.76 25.208 134.905 25.502 135.194 25.726C135.484 25.9407 135.885 26.048 136.398 26.048C136.902 26.048 137.341 25.936 137.714 25.712C138.097 25.488 138.372 25.1613 138.54 24.732L138.806 25.656C138.629 26.0947 138.316 26.4447 137.868 26.706C137.42 26.958 136.856 27.084 136.174 27.084ZM142.372 27V16.612H143.716V27H142.372ZM146.282 27V16.612H147.626V27H146.282ZM163.234 19.51C163.831 19.51 164.358 19.6267 164.816 19.86C165.273 20.0933 165.628 20.448 165.88 20.924C166.141 21.4 166.272 22.002 166.272 22.73V27H164.928V22.884C164.928 22.1653 164.76 21.624 164.424 21.26C164.088 20.896 163.616 20.714 163.01 20.714C162.562 20.714 162.17 20.8073 161.834 20.994C161.498 21.1807 161.236 21.456 161.05 21.82C160.872 22.184 160.784 22.6367 160.784 23.178V27H159.44V22.884C159.44 22.1653 159.272 21.624 158.936 21.26C158.609 20.896 158.138 20.714 157.522 20.714C157.083 20.714 156.696 20.8073 156.36 20.994C156.024 21.1807 155.762 21.456 155.576 21.82C155.389 22.184 155.296 22.6367 155.296 23.178V27H153.952V19.58H155.24V21.554L155.03 21.05C155.263 20.5647 155.622 20.1867 156.108 19.916C156.593 19.6453 157.158 19.51 157.802 19.51C158.511 19.51 159.122 19.6873 159.636 20.042C160.149 20.3873 160.485 20.9147 160.644 21.624L160.098 21.4C160.322 20.8307 160.714 20.3733 161.274 20.028C161.834 19.6827 162.487 19.51 163.234 19.51ZM173.351 27V25.432L173.281 25.138V22.464C173.281 21.8947 173.113 21.456 172.777 21.148C172.45 20.8307 171.955 20.672 171.293 20.672C170.854 20.672 170.425 20.7467 170.005 20.896C169.585 21.036 169.23 21.2273 168.941 21.47L168.381 20.462C168.763 20.154 169.221 19.9207 169.753 19.762C170.294 19.594 170.859 19.51 171.447 19.51C172.464 19.51 173.248 19.7573 173.799 20.252C174.349 20.7467 174.625 21.5027 174.625 22.52V27H173.351ZM170.915 27.084C170.364 27.084 169.879 26.9907 169.459 26.804C169.048 26.6173 168.731 26.3607 168.507 26.034C168.283 25.698 168.171 25.32 168.171 24.9C168.171 24.4987 168.264 24.1347 168.451 23.808C168.647 23.4813 168.959 23.22 169.389 23.024C169.827 22.828 170.415 22.73 171.153 22.73H173.505V23.696H171.209C170.537 23.696 170.084 23.808 169.851 24.032C169.617 24.256 169.501 24.5267 169.501 24.844C169.501 25.208 169.645 25.502 169.935 25.726C170.224 25.9407 170.625 26.048 171.139 26.048C171.643 26.048 172.081 25.936 172.455 25.712C172.837 25.488 173.113 25.1613 173.281 24.732L173.547 25.656C173.369 26.0947 173.057 26.4447 172.609 26.706C172.161 26.958 171.596 27.084 170.915 27.084ZM176.16 29.8C175.852 29.8 175.558 29.7627 175.278 29.688C174.989 29.6133 174.746 29.5013 174.55 29.352L174.984 28.316C175.264 28.5493 175.628 28.666 176.076 28.666C176.431 28.666 176.701 28.554 176.888 28.33C177.084 28.1153 177.182 27.7933 177.182 27.364V19.58H178.526V27.336C178.526 28.092 178.321 28.6893 177.91 29.128C177.509 29.576 176.925 29.8 176.16 29.8ZM177.854 18.152C177.593 18.152 177.373 18.068 177.196 17.9C177.028 17.732 176.944 17.5267 176.944 17.284C176.944 17.032 177.028 16.822 177.196 16.654C177.373 16.486 177.593 16.402 177.854 16.402C178.115 16.402 178.33 16.486 178.498 16.654C178.675 16.8127 178.764 17.0133 178.764 17.256C178.764 17.508 178.68 17.7227 178.512 17.9C178.344 18.068 178.125 18.152 177.854 18.152ZM184.268 27.084C183.522 27.084 182.859 26.9207 182.28 26.594C181.702 26.2673 181.244 25.8193 180.908 25.25C180.572 24.6713 180.404 24.018 180.404 23.29C180.404 22.5527 180.572 21.8993 180.908 21.33C181.244 20.7607 181.702 20.3173 182.28 20C182.859 19.6733 183.522 19.51 184.268 19.51C185.006 19.51 185.664 19.6733 186.242 20C186.83 20.3173 187.288 20.7607 187.614 21.33C187.95 21.89 188.118 22.5433 188.118 23.29C188.118 24.0273 187.95 24.6807 187.614 25.25C187.288 25.8193 186.83 26.2673 186.242 26.594C185.664 26.9207 185.006 27.084 184.268 27.084ZM184.268 25.908C184.744 25.908 185.169 25.8007 185.542 25.586C185.925 25.3713 186.224 25.068 186.438 24.676C186.653 24.2747 186.76 23.8127 186.76 23.29C186.76 22.758 186.653 22.3007 186.438 21.918C186.224 21.526 185.925 21.2227 185.542 21.008C185.169 20.7933 184.744 20.686 184.268 20.686C183.792 20.686 183.368 20.7933 182.994 21.008C182.621 21.2227 182.322 21.526 182.098 21.918C181.874 22.3007 181.762 22.758 181.762 23.29C181.762 23.8127 181.874 24.2747 182.098 24.676C182.322 25.068 182.621 25.3713 182.994 25.586C183.368 25.8007 183.792 25.908 184.268 25.908ZM189.977 27V19.58H191.265V21.596L191.139 21.092C191.344 20.5787 191.69 20.1867 192.175 19.916C192.66 19.6453 193.258 19.51 193.967 19.51V20.812C193.911 20.8027 193.855 20.798 193.799 20.798C193.752 20.798 193.706 20.798 193.659 20.798C192.94 20.798 192.371 21.0127 191.951 21.442C191.531 21.8713 191.321 22.492 191.321 23.304V27H189.977ZM204.085 27V25.432L204.015 25.138V22.464C204.015 21.8947 203.847 21.456 203.511 21.148C203.184 20.8307 202.69 20.672 202.027 20.672C201.588 20.672 201.159 20.7467 200.739 20.896C200.319 21.036 199.964 21.2273 199.675 21.47L199.115 20.462C199.498 20.154 199.955 19.9207 200.487 19.762C201.028 19.594 201.593 19.51 202.181 19.51C203.198 19.51 203.982 19.7573 204.533 20.252C205.084 20.7467 205.359 21.5027 205.359 22.52V27H204.085ZM201.649 27.084C201.098 27.084 200.613 26.9907 200.193 26.804C199.782 26.6173 199.465 26.3607 199.241 26.034C199.017 25.698 198.905 25.32 198.905 24.9C198.905 24.4987 198.998 24.1347 199.185 23.808C199.381 23.4813 199.694 23.22 200.123 23.024C200.562 22.828 201.15 22.73 201.887 22.73H204.239V23.696H201.943C201.271 23.696 200.818 23.808 200.585 24.032C200.352 24.256 200.235 24.5267 200.235 24.844C200.235 25.208 200.38 25.502 200.669 25.726C200.958 25.9407 201.36 26.048 201.873 26.048C202.377 26.048 202.816 25.936 203.189 25.712C203.572 25.488 203.847 25.1613 204.015 24.732L204.281 25.656C204.104 26.0947 203.791 26.4447 203.343 26.706C202.895 26.958 202.33 27.084 201.649 27.084ZM210.968 27.084C210.334 27.084 209.774 26.9673 209.288 26.734C208.812 26.5007 208.439 26.146 208.168 25.67C207.907 25.1847 207.776 24.578 207.776 23.85V19.58H209.12V23.696C209.12 24.424 209.293 24.97 209.638 25.334C209.993 25.698 210.488 25.88 211.122 25.88C211.589 25.88 211.995 25.7867 212.34 25.6C212.686 25.404 212.952 25.124 213.138 24.76C213.325 24.3867 213.418 23.9387 213.418 23.416V19.58H214.762V27H213.488V24.998L213.698 25.53C213.456 26.0247 213.092 26.4073 212.606 26.678C212.121 26.9487 211.575 27.084 210.968 27.084ZM219.869 27.084C219.122 27.084 218.544 26.8833 218.133 26.482C217.722 26.0807 217.517 25.5067 217.517 24.76V17.956H218.861V24.704C218.861 25.1053 218.959 25.4133 219.155 25.628C219.36 25.8427 219.65 25.95 220.023 25.95C220.443 25.95 220.793 25.8333 221.073 25.6L221.493 26.566C221.288 26.7433 221.04 26.874 220.751 26.958C220.471 27.042 220.177 27.084 219.869 27.084ZM216.257 20.686V19.58H220.989V20.686H216.257ZM226.05 27.084C225.303 27.084 224.64 26.9207 224.062 26.594C223.483 26.2673 223.026 25.8193 222.69 25.25C222.354 24.6713 222.186 24.018 222.186 23.29C222.186 22.5527 222.354 21.8993 222.69 21.33C223.026 20.7607 223.483 20.3173 224.062 20C224.64 19.6733 225.303 19.51 226.05 19.51C226.787 19.51 227.445 19.6733 228.024 20C228.612 20.3173 229.069 20.7607 229.396 21.33C229.732 21.89 229.9 22.5433 229.9 23.29C229.9 24.0273 229.732 24.6807 229.396 25.25C229.069 25.8193 228.612 26.2673 228.024 26.594C227.445 26.9207 226.787 27.084 226.05 27.084ZM226.05 25.908C226.526 25.908 226.95 25.8007 227.324 25.586C227.706 25.3713 228.005 25.068 228.22 24.676C228.434 24.2747 228.542 23.8127 228.542 23.29C228.542 22.758 228.434 22.3007 228.22 21.918C228.005 21.526 227.706 21.2227 227.324 21.008C226.95 20.7933 226.526 20.686 226.05 20.686C225.574 20.686 225.149 20.7933 224.776 21.008C224.402 21.2227 224.104 21.526 223.88 21.918C223.656 22.3007 223.544 22.758 223.544 23.29C223.544 23.8127 223.656 24.2747 223.88 24.676C224.104 25.068 224.402 25.3713 224.776 25.586C225.149 25.8007 225.574 25.908 226.05 25.908ZM241.04 19.51C241.638 19.51 242.165 19.6267 242.622 19.86C243.08 20.0933 243.434 20.448 243.686 20.924C243.948 21.4 244.078 22.002 244.078 22.73V27H242.734V22.884C242.734 22.1653 242.566 21.624 242.23 21.26C241.894 20.896 241.423 20.714 240.816 20.714C240.368 20.714 239.976 20.8073 239.64 20.994C239.304 21.1807 239.043 21.456 238.856 21.82C238.679 22.184 238.59 22.6367 238.59 23.178V27H237.246V22.884C237.246 22.1653 237.078 21.624 236.742 21.26C236.416 20.896 235.944 20.714 235.328 20.714C234.89 20.714 234.502 20.8073 234.166 20.994C233.83 21.1807 233.569 21.456 233.382 21.82C233.196 22.184 233.102 22.6367 233.102 23.178V27H231.758V19.58H233.046V21.554L232.836 21.05C233.07 20.5647 233.429 20.1867 233.914 19.916C234.4 19.6453 234.964 19.51 235.608 19.51C236.318 19.51 236.929 19.6873 237.442 20.042C237.956 20.3873 238.292 20.9147 238.45 21.624L237.904 21.4C238.128 20.8307 238.52 20.3733 239.08 20.028C239.64 19.6827 240.294 19.51 241.04 19.51ZM249.729 27.084C248.983 27.084 248.32 26.9207 247.741 26.594C247.163 26.2673 246.705 25.8193 246.369 25.25C246.033 24.6713 245.865 24.018 245.865 23.29C245.865 22.5527 246.033 21.8993 246.369 21.33C246.705 20.7607 247.163 20.3173 247.741 20C248.32 19.6733 248.983 19.51 249.729 19.51C250.467 19.51 251.125 19.6733 251.703 20C252.291 20.3173 252.749 20.7607 253.075 21.33C253.411 21.89 253.579 22.5433 253.579 23.29C253.579 24.0273 253.411 24.6807 253.075 25.25C252.749 25.8193 252.291 26.2673 251.703 26.594C251.125 26.9207 250.467 27.084 249.729 27.084ZM249.729 25.908C250.205 25.908 250.63 25.8007 251.003 25.586C251.386 25.3713 251.685 25.068 251.899 24.676C252.114 24.2747 252.221 23.8127 252.221 23.29C252.221 22.758 252.114 22.3007 251.899 21.918C251.685 21.526 251.386 21.2227 251.003 21.008C250.63 20.7933 250.205 20.686 249.729 20.686C249.253 20.686 248.829 20.7933 248.455 21.008C248.082 21.2227 247.783 21.526 247.559 21.918C247.335 22.3007 247.223 22.758 247.223 23.29C247.223 23.8127 247.335 24.2747 247.559 24.676C247.783 25.068 248.082 25.3713 248.455 25.586C248.829 25.8007 249.253 25.908 249.729 25.908ZM257.986 27.084C257.239 27.084 256.661 26.8833 256.25 26.482C255.839 26.0807 255.634 25.5067 255.634 24.76V17.956H256.978V24.704C256.978 25.1053 257.076 25.4133 257.272 25.628C257.477 25.8427 257.767 25.95 258.14 25.95C258.56 25.95 258.91 25.8333 259.19 25.6L259.61 26.566C259.405 26.7433 259.157 26.874 258.868 26.958C258.588 27.042 258.294 27.084 257.986 27.084ZM254.374 20.686V19.58H259.106V20.686H254.374ZM261.235 27V19.58H262.579V27H261.235ZM261.907 18.152C261.646 18.152 261.426 18.068 261.249 17.9C261.081 17.732 260.997 17.5267 260.997 17.284C260.997 17.032 261.081 16.822 261.249 16.654C261.426 16.486 261.646 16.402 261.907 16.402C262.168 16.402 262.383 16.486 262.551 16.654C262.728 16.8127 262.817 17.0133 262.817 17.256C262.817 17.508 262.733 17.7227 262.565 17.9C262.397 18.068 262.178 18.152 261.907 18.152ZM267.091 27L263.843 19.58H265.243L268.127 26.3H267.455L270.395 19.58H271.711L268.463 27H267.091ZM276.064 27.084C275.271 27.084 274.571 26.9207 273.964 26.594C273.367 26.2673 272.9 25.8193 272.564 25.25C272.238 24.6807 272.074 24.0273 272.074 23.29C272.074 22.5527 272.233 21.8993 272.55 21.33C272.877 20.7607 273.32 20.3173 273.88 20C274.45 19.6733 275.089 19.51 275.798 19.51C276.517 19.51 277.152 19.6687 277.702 19.986C278.253 20.3033 278.682 20.7513 278.99 21.33C279.308 21.8993 279.466 22.5667 279.466 23.332C279.466 23.388 279.462 23.4533 279.452 23.528C279.452 23.6027 279.448 23.6727 279.438 23.738H273.124V22.772H278.738L278.192 23.108C278.202 22.632 278.104 22.2073 277.898 21.834C277.693 21.4607 277.408 21.1713 277.044 20.966C276.69 20.7513 276.274 20.644 275.798 20.644C275.332 20.644 274.916 20.7513 274.552 20.966C274.188 21.1713 273.904 21.4653 273.698 21.848C273.493 22.2213 273.39 22.6507 273.39 23.136V23.36C273.39 23.8547 273.502 24.298 273.726 24.69C273.96 25.0727 274.282 25.3713 274.692 25.586C275.103 25.8007 275.574 25.908 276.106 25.908C276.545 25.908 276.942 25.8333 277.296 25.684C277.66 25.5347 277.978 25.3107 278.248 25.012L278.99 25.88C278.654 26.272 278.234 26.5707 277.73 26.776C277.236 26.9813 276.68 27.084 276.064 27.084ZM289.026 27.084C288.392 27.084 287.818 26.944 287.304 26.664C286.8 26.3747 286.399 25.95 286.1 25.39C285.811 24.83 285.666 24.13 285.666 23.29C285.666 22.45 285.816 21.75 286.114 21.19C286.422 20.63 286.828 20.21 287.332 19.93C287.846 19.65 288.41 19.51 289.026 19.51C289.754 19.51 290.398 19.6687 290.958 19.986C291.518 20.3033 291.962 20.7467 292.288 21.316C292.615 21.876 292.778 22.534 292.778 23.29C292.778 24.046 292.615 24.7087 292.288 25.278C291.962 25.8473 291.518 26.2907 290.958 26.608C290.398 26.9253 289.754 27.084 289.026 27.084ZM285.092 27V16.612H286.436V21.554L286.296 23.276L286.38 24.998V27H285.092ZM288.914 25.908C289.39 25.908 289.815 25.8007 290.188 25.586C290.571 25.3713 290.87 25.068 291.084 24.676C291.308 24.2747 291.42 23.8127 291.42 23.29C291.42 22.758 291.308 22.3007 291.084 21.918C290.87 21.526 290.571 21.2227 290.188 21.008C289.815 20.7933 289.39 20.686 288.914 20.686C288.448 20.686 288.023 20.7933 287.64 21.008C287.267 21.2227 286.968 21.526 286.744 21.918C286.53 22.3007 286.422 22.758 286.422 23.29C286.422 23.8127 286.53 24.2747 286.744 24.676C286.968 25.068 287.267 25.3713 287.64 25.586C288.023 25.8007 288.448 25.908 288.914 25.908ZM294.635 27V19.58H295.923V21.596L295.797 21.092C296.003 20.5787 296.348 20.1867 296.833 19.916C297.319 19.6453 297.916 19.51 298.625 19.51V20.812C298.569 20.8027 298.513 20.798 298.457 20.798C298.411 20.798 298.364 20.798 298.317 20.798C297.599 20.798 297.029 21.0127 296.609 21.442C296.189 21.8713 295.979 22.492 295.979 23.304V27H294.635ZM304.341 27V25.432L304.271 25.138V22.464C304.271 21.8947 304.103 21.456 303.767 21.148C303.44 20.8307 302.946 20.672 302.283 20.672C301.844 20.672 301.415 20.7467 300.995 20.896C300.575 21.036 300.22 21.2273 299.931 21.47L299.371 20.462C299.754 20.154 300.211 19.9207 300.743 19.762C301.284 19.594 301.849 19.51 302.437 19.51C303.454 19.51 304.238 19.7573 304.789 20.252C305.34 20.7467 305.615 21.5027 305.615 22.52V27H304.341ZM301.905 27.084C301.354 27.084 300.869 26.9907 300.449 26.804C300.038 26.6173 299.721 26.3607 299.497 26.034C299.273 25.698 299.161 25.32 299.161 24.9C299.161 24.4987 299.254 24.1347 299.441 23.808C299.637 23.4813 299.95 23.22 300.379 23.024C300.818 22.828 301.406 22.73 302.143 22.73H304.495V23.696H302.199C301.527 23.696 301.074 23.808 300.841 24.032C300.608 24.256 300.491 24.5267 300.491 24.844C300.491 25.208 300.636 25.502 300.925 25.726C301.214 25.9407 301.616 26.048 302.129 26.048C302.633 26.048 303.072 25.936 303.445 25.712C303.828 25.488 304.103 25.1613 304.271 24.732L304.537 25.656C304.36 26.0947 304.047 26.4447 303.599 26.706C303.151 26.958 302.586 27.084 301.905 27.084ZM312.064 19.51C312.671 19.51 313.203 19.6267 313.66 19.86C314.127 20.0933 314.491 20.448 314.752 20.924C315.013 21.4 315.144 22.002 315.144 22.73V27H313.8V22.884C313.8 22.1653 313.623 21.624 313.268 21.26C312.923 20.896 312.433 20.714 311.798 20.714C311.322 20.714 310.907 20.8073 310.552 20.994C310.197 21.1807 309.922 21.456 309.726 21.82C309.539 22.184 309.446 22.6367 309.446 23.178V27H308.102V19.58H309.39V21.582L309.18 21.05C309.423 20.5647 309.796 20.1867 310.3 19.916C310.804 19.6453 311.392 19.51 312.064 19.51ZM320.697 27.084C319.979 27.084 319.335 26.9253 318.765 26.608C318.205 26.2907 317.762 25.8473 317.435 25.278C317.109 24.7087 316.945 24.046 316.945 23.29C316.945 22.534 317.109 21.876 317.435 21.316C317.762 20.7467 318.205 20.3033 318.765 19.986C319.335 19.6687 319.979 19.51 320.697 19.51C321.323 19.51 321.887 19.65 322.391 19.93C322.895 20.21 323.297 20.63 323.595 21.19C323.903 21.75 324.057 22.45 324.057 23.29C324.057 24.13 323.908 24.83 323.609 25.39C323.32 25.95 322.923 26.3747 322.419 26.664C321.915 26.944 321.341 27.084 320.697 27.084ZM320.809 25.908C321.276 25.908 321.696 25.8007 322.069 25.586C322.452 25.3713 322.751 25.068 322.965 24.676C323.189 24.2747 323.301 23.8127 323.301 23.29C323.301 22.758 323.189 22.3007 322.965 21.918C322.751 21.526 322.452 21.2227 322.069 21.008C321.696 20.7933 321.276 20.686 320.809 20.686C320.333 20.686 319.909 20.7933 319.535 21.008C319.162 21.2227 318.863 21.526 318.639 21.918C318.415 22.3007 318.303 22.758 318.303 23.29C318.303 23.8127 318.415 24.2747 318.639 24.676C318.863 25.068 319.162 25.3713 319.535 25.586C319.909 25.8007 320.333 25.908 320.809 25.908ZM323.343 27V24.998L323.427 23.276L323.287 21.554V16.612H324.631V27H323.343ZM329.302 27.084C328.686 27.084 328.098 27 327.538 26.832C326.988 26.664 326.554 26.4587 326.236 26.216L326.796 25.152C327.114 25.3667 327.506 25.5487 327.972 25.698C328.439 25.8473 328.915 25.922 329.4 25.922C330.026 25.922 330.474 25.8333 330.744 25.656C331.024 25.4787 331.164 25.2313 331.164 24.914C331.164 24.6807 331.08 24.4987 330.912 24.368C330.744 24.2373 330.52 24.1393 330.24 24.074C329.97 24.0087 329.666 23.9527 329.33 23.906C328.994 23.85 328.658 23.7847 328.322 23.71C327.986 23.626 327.678 23.514 327.398 23.374C327.118 23.2247 326.894 23.024 326.726 22.772C326.558 22.5107 326.474 22.1653 326.474 21.736C326.474 21.288 326.6 20.896 326.852 20.56C327.104 20.224 327.459 19.9673 327.916 19.79C328.383 19.6033 328.934 19.51 329.568 19.51C330.054 19.51 330.544 19.5707 331.038 19.692C331.542 19.804 331.953 19.9673 332.27 20.182L331.696 21.246C331.36 21.022 331.01 20.868 330.646 20.784C330.282 20.7 329.918 20.658 329.554 20.658C328.966 20.658 328.528 20.756 328.238 20.952C327.949 21.1387 327.804 21.3813 327.804 21.68C327.804 21.932 327.888 22.128 328.056 22.268C328.234 22.3987 328.458 22.5013 328.728 22.576C329.008 22.6507 329.316 22.716 329.652 22.772C329.988 22.8187 330.324 22.884 330.66 22.968C330.996 23.0427 331.3 23.15 331.57 23.29C331.85 23.43 332.074 23.626 332.242 23.878C332.42 24.13 332.508 24.466 332.508 24.886C332.508 25.334 332.378 25.7213 332.116 26.048C331.855 26.3747 331.486 26.6313 331.01 26.818C330.534 26.9953 329.965 27.084 329.302 27.084Z" fill="#363636"/>
</g>
<defs>
<filter id="filter0_d_174_546" x="-4.26606" y="11.6021" width="341.574" height="22.9979" filterUnits="userSpaceOnUse" color-interpolation-filters="sRGB">
<feFlood flood-opacity="0" result="BackgroundImageFix"/>
<feColorMatrix in="SourceAlpha" type="matrix" values="0 0 0 0 0 0 0 0 0 0 0 0 0 0 0 0 0 0 127 0" result="hardAlpha"/>
<feOffset/>
<feGaussianBlur stdDeviation="2.4"/>
<feComposite in2="hardAlpha" operator="out"/>
<feColorMatrix type="matrix" values="0 0 0 0 0 0 0 0 0 0 0 0 0 0 0 0 0 0 0.12 0"/>
<feBlend mode="normal" in2="BackgroundImageFix" result="effect1_dropShadow_174_546"/>
<feBlend mode="normal" in="SourceGraphic" in2="effect1_dropShadow_174_546" result="shape"/>
</filter>
</defs>
</svg>
